<?xml version="1.0" encoding="utf-8"?>
<!-- Generator: Adobe Illustrator 16.0.0, SVG Export Plug-In . SVG Version: 6.00 Build 0)  -->
<!DOCTYPE svg PUBLIC "-//W3C//DTD SVG 1.1//EN" "http://www.w3.org/Graphics/SVG/1.1/DTD/svg11.dtd">
<svg version="1.1" id="Calque_1" xmlns="http://www.w3.org/2000/svg" xmlns:xlink="http://www.w3.org/1999/xlink" x="0px" y="0px"
	 width="59px" height="56px" viewBox="0 0 59 56" enable-background="new 0 0 59 56" xml:space="preserve">
<g id="Calque_1_1_">
	<circle fill="#FFFFFF" stroke="#010101" stroke-width="13" stroke-miterlimit="10" cx="30.177" cy="27.712" r="17.667"/>
	<circle fill="#010101" stroke="#FFFFFF" stroke-width="3" stroke-miterlimit="10" cx="30.174" cy="27.714" r="17.667"/>
	<g>
		<g>
			<path fill="#FFFFFF" d="M13.739,29.114c0.648,0,1.299,0,1.947,0c1.936,0,1.936-3,0-3c-0.648,0-1.299,0-1.947,0
				C11.805,26.114,11.805,29.114,13.739,29.114L13.739,29.114z"/>
		</g>
	</g>
	<g>
		<g>
			<path fill="#FFFFFF" d="M46.926,26.118c-0.723-0.003-1.443-0.005-2.166-0.008c-1.936-0.007-1.946,2.993-0.011,3
				c0.723,0.003,1.443,0.005,2.166,0.008C48.851,29.125,48.861,26.125,46.926,26.118L46.926,26.118z"/>
		</g>
	</g>
	<g>
		<g>
			<path fill="#FFFFFF" d="M28.676,11.448c0,0.334,0,0.668,0,1c0,1.936,3,1.936,3,0c0-0.332,0-0.666,0-1
				C31.676,9.515,28.676,9.515,28.676,11.448L28.676,11.448z"/>
		</g>
	</g>
	<g>
		<g>
			<path fill="#FFFFFF" d="M28.665,42.879c0.006,0.415,0.012,0.829,0.018,1.241c0.034,2.401,3.034,2.357,3-0.043
				c-0.006-0.412-0.012-0.826-0.018-1.241C31.63,40.438,28.63,40.481,28.665,42.879L28.665,42.879z"/>
		</g>
	</g>
</g>
<g>
	<title>4chan</title>
	<desc>Created with Sketch.</desc>
	<g id="Page-1">
		<g id="_x34_chan" transform="translate(-1.000000, -1.000000)">
			<g id="_x23_006701ff" transform="translate(283.607843, 0.000000)">
				<path id="Shape" fill="#FFFFFF" d="M-249.503,17.331c0.566-0.773,1.796-0.94,2.54-0.333c0.585,0.457,0.932,1.126,1.276,1.767
					c0.202-0.362,0.503-0.706,0.931-0.788c0.586-0.127,1.142,0.217,1.562,0.593c1.057,1.021,1.465,2.672,0.969,4.062
					c-0.403,1.159-1.349,2.045-2.389,2.649c-1.422,0.855-3.059,1.232-4.661,1.59c-0.881-1.696-1.349-3.614-1.389-5.526
					C-250.645,19.946-250.404,18.452-249.503,17.331L-249.503,17.331z M-248.54,17.468c-0.666,0.34-0.993,1.065-1.187,1.75
					c-0.403,1.57-0.289,3.243,0.117,4.801c0.179,0.711,0.432,1.397,0.693,2.082c0.774-0.081,1.513-0.335,2.248-0.58
					c1.31-0.484,2.59-1.252,3.341-2.466c0.496-0.803,0.619-1.789,0.441-2.708c-0.192-0.666-0.585-1.39-1.32-1.545
					c-0.548-0.102-0.938,0.393-1.197,0.8c-0.049,0.15-0.101,0.3-0.153,0.449c-0.05,0.126-0.1,0.252-0.15,0.377
					c-0.348-0.916-0.738-1.852-1.433-2.563C-247.5,17.523-248.048,17.267-248.54,17.468L-248.54,17.468z"/>
			</g>
			<g id="_x23_61a54dff" transform="translate(298.666667, 17.568627)">
				<path id="Shape_1_" fill="#FFFFFF" d="M-263.599-0.101c0.492-0.201,1.04,0.056,1.4,0.396c0.695,0.712,1.085,1.647,1.433,2.563
					c0.05-0.125,0.1-0.251,0.15-0.377c0.093,0.17,0.18,0.345,0.3,0.498c0.612,0.085,1.232-0.035,1.845,0.034
					c0.402,0.245,0.524,0.757,0.328,1.176c-0.075-0.149-0.147-0.298-0.221-0.446c-0.248,0.107-0.515,0.159-0.786,0.143
					c-1.56-0.035-3.121,0.019-4.68-0.021c-0.286,0.01-0.614-0.1-0.868,0.072c-0.08,0.31-0.009,0.628,0.03,0.938
					c0.042,0.278,0.082,0.557,0.128,0.834c0.061,0.329,0.127,0.656,0.21,0.98c-0.113-0.081-0.227-0.162-0.342-0.24
					c-0.405-1.558-0.52-3.23-0.117-4.801C-264.591,0.965-264.265,0.239-263.599-0.101L-263.599-0.101z M-263.318,0.091
					c-0.753,0.227-1.008,1.029-1.268,1.683c-0.096,0.314-0.138,0.643-0.172,0.97c-0.062,0.159,0.061,0.317,0.227,0.296
					c1.16-0.112,2.327,0.002,3.488-0.076c-0.069-0.253-0.138-0.507-0.208-0.761l-0.062,0.013c-0.258-0.451-0.399-0.973-0.756-1.364
					C-262.382,0.471-262.781,0.053-263.318,0.091L-263.318,0.091z"/>
			</g>
			<g id="_x23_91c66eff" transform="translate(97.882353, 22.588235)">
				<path id="Shape_2_" fill="#FFFFFF" d="M-62.533-4.929c0.537-0.037,0.936,0.381,1.249,0.76c0.356,0.392,0.498,0.913,0.756,1.364
					c-0.974,0.193-1.973,0.01-2.956,0.105c-0.027-0.088-0.055-0.177-0.082-0.267c-0.034,0.092-0.1,0.275-0.133,0.366
					c-0.043-0.214-0.08-0.43-0.102-0.646C-63.541-3.9-63.286-4.703-62.533-4.929L-62.533-4.929z"/>
				<path id="Shape_3_" fill="#FFFFFF" d="M-73.271,10.091c1.015-0.709,2.127-1.312,3.328-1.627c0.415,0.694,0.719,1.46,0.982,2.227
					c-0.233-0.044-0.45-0.141-0.643-0.278c-0.507,0.237-1.074,0.109-1.613,0.134c-0.492,0.019-0.982-0.03-1.473-0.021
					c-0.316,0.049-0.624,0.146-0.942,0.184C-73.475,10.526-73.342,10.324-73.271,10.091L-73.271,10.091z"/>
				<path id="Shape_4_" fill="#FFFFFF" d="M-64.411,9.216c1.001-0.174,1.985-0.472,3.006-0.527c0.946-0.056,1.914-0.063,2.834,0.192
					c0.737,0.183,1.517,0.452,2.009,1.064c0.223,0.236,0.12,0.579,0.103,0.867c-0.049-0.052-0.147-0.155-0.196-0.208
					c-0.8-0.101-1.608-0.067-2.413-0.068c-1.13,0.007-2.261-0.011-3.39,0.001c-0.506,0.009-1.02-0.071-1.516,0.061
					c-0.102-0.09-0.203-0.179-0.304-0.269C-64.354,9.963-64.397,9.59-64.411,9.216L-64.411,9.216z"/>
			</g>
			<g id="_x23_006600ff" transform="translate(0.000000, 25.098039)">
				<path id="Shape_5_" fill="#FFFFFF" d="M22.278-6.503c1.11-0.846,2.698-1.04,3.96-0.428c0.975,0.449,1.72,1.283,2.25,2.201
					c0.865,1.492,1.25,3.199,1.521,4.887c-2.155,0.952-4.562,1.449-6.91,1.088c-1.021-0.189-2.067-0.546-2.807-1.305
					c-0.464-0.469-0.712-1.211-0.417-1.834c0.399-0.894,1.315-1.366,2.146-1.784c-0.416-0.232-0.768-0.628-0.777-1.129
					C21.253-5.508,21.736-6.106,22.278-6.503L22.278-6.503z M22.379-5.703c-0.356,0.351-0.365,0.994-0.007,1.346
					c0.365,0.385,0.867,0.581,1.355,0.755c-0.999,0.316-2.042,0.715-2.763,1.51c-0.374,0.388-0.504,1.059-0.146,1.497
					c0.54,0.689,1.433,0.975,2.26,1.139c2.097,0.35,4.277-0.028,6.221-0.853c-0.251-1.563-0.726-3.13-1.659-4.43
					c-0.548-0.703-1.25-1.319-2.112-1.597C24.478-6.702,23.161-6.546,22.379-5.703L22.379-5.703z"/>
				<path id="Shape_6_" fill="#FFFFFF" d="M23.926,6.928c1.308-0.979,2.844-1.617,4.409-2.06l0.09,0.006
					c1.265,2.061,2.121,4.464,1.994,6.909c-0.077,0.985-0.307,2.021-0.957,2.799c-0.413,0.502-1.133,0.771-1.76,0.535
					c-0.869-0.308-1.47-1.073-1.928-1.838c-0.221,0.331-0.41,0.751-0.823,0.877c-0.634,0.231-1.301-0.104-1.791-0.498
					c-1.147-0.949-1.684-2.597-1.247-4.03C22.221,8.513,23.023,7.615,23.926,6.928L23.926,6.928z M23.613,8.21
					c-0.194,0.206-0.362,0.434-0.509,0.676c-0.67,1.128-0.774,2.672,0.004,3.774c0.343,0.489,0.977,0.936,1.589,0.655
					c0.574-0.354,0.738-1.07,0.848-1.689c0.553,0.894,1.019,1.92,1.941,2.5c0.47,0.323,1.215,0.314,1.57-0.175
					c0.633-0.801,0.733-1.879,0.717-2.863c-0.097-1.938-0.735-3.833-1.725-5.495C26.421,6.144,24.737,6.858,23.613,8.21L23.613,8.21
					z"/>
			</g>
			<g id="_x23_6aad56ff" transform="translate(20.078431, 42.666667)">
				<path id="Shape_7_" fill="#FFFFFF" d="M2.3-23.272c0.782-0.843,2.099-0.998,3.148-0.633c0.862,0.277,1.564,0.894,2.112,1.597
					c0.933,1.3,1.408,2.866,1.659,4.43c-1.944,0.824-4.125,1.202-6.221,0.853c-0.827-0.164-1.72-0.449-2.26-1.139
					c-0.358-0.438-0.228-1.109,0.146-1.497c0.721-0.795,1.765-1.193,2.763-1.51c-0.488-0.174-0.99-0.37-1.355-0.755
					C1.936-22.278,1.944-22.922,2.3-23.272L2.3-23.272z M2.548-23.137c-0.212,0.171-0.303,0.468-0.223,0.729
					c0.098,0.36,0.465,0.549,0.779,0.691c0.501,0.089,0.996-0.133,1.501-0.087c0.798,0.042,1.605-0.08,2.395,0.075
					c0.042-0.039,0.127-0.118,0.17-0.157C7.29-21.818,7.41-21.75,7.53-21.683c-0.407-1.042-1.42-1.764-2.477-2.043
					C4.196-23.856,3.192-23.79,2.548-23.137L2.548-23.137z M4.058-21.249c0.014,0.092,0.027,0.185,0.041,0.276
					c-0.663,0.079-1.281,0.359-1.864,0.674c-0.274,0.144-0.528,0.325-0.793,0.486c-0.252,0.21-0.458,0.467-0.627,0.747
					c-0.132,0.878,0.781,1.356,1.483,1.574c2.167,0.636,4.503,0.238,6.583-0.53c-0.047-0.322-0.102-0.644-0.16-0.963
					c-0.081-0.264-0.161-0.527-0.25-0.789c-0.036-0.139-0.072-0.277-0.108-0.418c-0.151-0.305-0.264-0.635-0.48-0.901
					c-0.646-0.254-1.329-0.007-1.995-0.062C5.278-21.177,4.655-21.08,4.058-21.249L4.058-21.249z"/>
			</g>
			<g id="_x23_5ca553ff" transform="translate(396.549020, 47.686275)">
				<path id="Shape_8_" fill="#FFFFFF" d="M-358.344-28.085c0.259-0.407,0.649-0.901,1.197-0.8c0.735,0.155,1.128,0.879,1.32,1.545
					c-0.085-0.024-0.256-0.074-0.341-0.1c-0.159-0.45-0.321-1.023-0.858-1.142c-0.446-0.151-0.835,0.196-1.117,0.496H-358.344
					L-358.344-28.085z"/>
			</g>
			<g id="_x23_91c56eff" transform="translate(57.725490, 47.686275)">
				<path id="Shape_9_" fill="#FFFFFF" d="M-35.099-28.157c0.644-0.652,1.648-0.719,2.505-0.589c1.057,0.279,2.07,1.001,2.477,2.043
					c-0.12-0.066-0.24-0.135-0.359-0.202c-0.043,0.039-0.128,0.118-0.17,0.157c-0.79-0.155-1.597-0.033-2.395-0.075
					c-0.505-0.046-1,0.176-1.501,0.087c-0.314-0.143-0.681-0.331-0.779-0.691C-35.402-27.689-35.311-27.986-35.099-28.157
					L-35.099-28.157z"/>
			</g>
			<g id="_x23_8cc269ff" transform="translate(401.568627, 52.705882)">
				<path id="Shape_10_" fill="#FFFFFF" d="M-363.163-33.104c0.281-0.3,0.67-0.647,1.117-0.496c0.537,0.118,0.699,0.691,0.858,1.142
					c-0.586-0.304-1.239-0.081-1.861-0.193C-363.085-32.805-363.122-32.955-363.163-33.104L-363.163-33.104z"/>
			</g>
			<g id="_x23_7ab55bff" transform="translate(303.686275, 57.725490)">
				<path id="Shape_11_" fill="#FFFFFF" d="M-269.777-37.414c0.034-0.327,0.076-0.655,0.172-0.97
					c0.022,0.217,0.059,0.433,0.102,0.646c0.034-0.091,0.099-0.274,0.133-0.366c0.027,0.09,0.055,0.179,0.082,0.267
					c0.983-0.096,1.982,0.088,2.956-0.105l0.062-0.013c0.07,0.254,0.139,0.508,0.208,0.761c-1.161,0.078-2.328-0.036-3.488,0.076
					C-269.716-37.097-269.839-37.255-269.777-37.414L-269.777-37.414z"/>
			</g>
			<g id="_x23_76b258ff" transform="translate(306.196078, 65.254902)">
				<path id="Shape_12_" fill="#FFFFFF" d="M-267.991-45.653h0.201c0.041,0.149,0.078,0.3,0.114,0.452
					c0.622,0.112,1.274-0.11,1.861,0.193c0.085,0.025,0.255,0.075,0.341,0.1c0.178,0.919,0.055,1.905-0.441,2.708
					c-0.751,1.214-2.031,1.981-3.341,2.466c-0.735,0.245-1.474,0.499-2.248,0.58c-0.261-0.685-0.514-1.371-0.693-2.082
					c0.116,0.078,0.229,0.159,0.342,0.24c0.161,0.514,0.323,1.027,0.522,1.528c1.841-0.302,3.753-1.028,4.946-2.531
					c0.023-0.03,0.071-0.093,0.096-0.122c0.22-0.283,0.365-0.614,0.48-0.951c0.049-0.141,0.096-0.282,0.141-0.424
					c0.196-0.419,0.074-0.931-0.328-1.176c-0.613-0.069-1.233,0.051-1.845-0.034c-0.121-0.153-0.207-0.328-0.3-0.498
					C-268.092-45.354-268.04-45.503-267.991-45.653L-267.991-45.653z"/>
			</g>
			<g id="_x23_479437ff" transform="translate(306.196078, 100.392157)">
				<path id="Shape_13_" fill="#FFFFFF" d="M-266.677-78.937c0.271,0.017,0.538-0.035,0.786-0.143
					c0.074,0.148,0.146,0.297,0.221,0.446c-0.045,0.142-0.092,0.283-0.141,0.424c-1.532-0.107-3.07-0.012-4.605-0.048
					c-0.491,0.017-1.065-0.126-1.453,0.264c-0.014-0.056-0.043-0.167-0.058-0.223c-0.089,0.089-0.178,0.179-0.267,0.269
					c-0.04-0.31-0.11-0.628-0.03-0.938c0.253-0.172,0.582-0.063,0.868-0.072C-269.798-78.919-268.237-78.972-266.677-78.937
					L-266.677-78.937z"/>
			</g>
			<g id="_x23_4f983cff" transform="translate(55.215686, 102.901961)">
				<path id="Shape_14_" fill="#FFFFFF" d="M-31.079-81.484c0.597,0.169,1.219,0.071,1.83,0.095
					c0.666,0.055,1.349-0.192,1.995,0.062c0.216,0.267,0.329,0.597,0.48,0.901c-1.12-0.209-2.274-0.041-3.408-0.091
					c-0.906-0.071-1.813-0.016-2.72-0.017c0.583-0.314,1.201-0.595,1.864-0.674C-31.052-81.299-31.065-81.392-31.079-81.484
					L-31.079-81.484z"/>
			</g>
			<g id="_x23_1f7b18ff" transform="translate(306.196078, 120.470588)">
				<path id="Shape_15_" fill="#FFFFFF" d="M-272.195-98.026c0.089-0.09,0.178-0.18,0.267-0.269
					c0.015,0.056,0.044,0.167,0.058,0.223c0.019,0.075,0.057,0.226,0.076,0.301c0.885-0.091,1.774-0.034,2.662-0.045
					c0.848,0.005,1.696-0.021,2.542,0.04c-0.019,0.127-0.036,0.255-0.053,0.382c0.108-0.071,0.218-0.143,0.328-0.213
					c0.006,0.067,0.018,0.202,0.023,0.271c-0.024,0.029-0.073,0.092-0.096,0.122c-0.139,0.022-0.278,0.042-0.417,0.062
					c-0.061-0.051-0.121-0.102-0.181-0.151c-0.043,0.042-0.131,0.125-0.174,0.167c-0.967,0.093-1.938,0.001-2.908,0.03
					c-0.668,0.028-1.334-0.024-1.999-0.085C-272.113-97.47-272.153-97.748-272.195-98.026L-272.195-98.026z"/>
			</g>
			<g id="_x23_338727ff" transform="translate(313.725490, 117.960784)">
				<path id="Shape_16_" fill="#FFFFFF" d="M-279.399-95.562c0.388-0.39,0.962-0.247,1.453-0.264
					c1.535,0.036,3.073-0.06,4.605,0.048c-0.115,0.337-0.26,0.668-0.48,0.951c-0.006-0.068-0.018-0.203-0.023-0.271
					c-0.11,0.07-0.22,0.142-0.328,0.213c0.018-0.127,0.035-0.255,0.053-0.382c-0.846-0.061-1.694-0.035-2.542-0.04
					c-0.888,0.011-1.777-0.046-2.662,0.045C-279.342-95.337-279.381-95.487-279.399-95.562L-279.399-95.562z"/>
			</g>
			<g id="_x23_348828ff" transform="translate(37.647059, 122.980392)">
				<path id="Shape_17_" fill="#FFFFFF" d="M-15.334-100.612c0.907,0.001,1.814-0.055,2.72,0.017
					c1.134,0.05,2.288-0.118,3.408,0.091c0.036,0.141,0.072,0.279,0.108,0.418c-0.052,0.008-0.159,0.021-0.212,0.027
					c-0.031-0.034-0.096-0.1-0.128-0.133c-0.011,0.061-0.033,0.18-0.043,0.239c-1.625-0.134-3.257-0.02-4.885-0.067
					c-0.587-0.052-1.215,0.217-1.76-0.105C-15.861-100.287-15.608-100.469-15.334-100.612L-15.334-100.612z"/>
			</g>
			<g id="_x23_1d7715ff" transform="translate(25.098039, 133.019608)">
				<path id="Shape_18_" fill="#FFFFFF" d="M3.111-110.232c0.033,0.033,0.097,0.099,0.128,0.133c0.054-0.007,0.16-0.02,0.212-0.027
					c0.089,0.262,0.169,0.525,0.25,0.789c-0.315-0.118-0.651-0.115-0.982-0.092c-1.824-0.029-3.649,0.005-5.474-0.009
					c-0.483,0.004-0.967,0.065-1.45,0.02c0.169-0.28,0.375-0.537,0.627-0.747c0.544,0.322,1.172,0.054,1.76,0.105
					c1.628,0.048,3.261-0.066,4.885,0.067C3.078-110.052,3.1-110.171,3.111-110.232L3.111-110.232z"/>
			</g>
			<g id="_x23_026701ff" transform="translate(25.098039, 140.549020)">
				<path id="Shape_19_" fill="#FFFFFF" d="M14.112-117.383c0.06,0.05,0.12,0.101,0.181,0.151c0.139-0.02,0.278-0.039,0.417-0.062
					c-1.193,1.503-3.105,2.229-4.946,2.531c-0.199-0.501-0.361-1.015-0.522-1.528c-0.083-0.324-0.149-0.651-0.21-0.98
					c0.665,0.061,1.331,0.113,1.999,0.085c0.969-0.029,1.941,0.063,2.908-0.03C13.982-117.258,14.069-117.341,14.112-117.383
					L14.112-117.383z"/>
				<path id="Shape_20_" fill="#FFFFFF" d="M2.719-116.958c0.331-0.023,0.667-0.026,0.982,0.092c0.059,0.319,0.113,0.641,0.16,0.963
					c-2.08,0.769-4.416,1.166-6.583,0.53c-0.702-0.218-1.615-0.696-1.483-1.574c0.483,0.046,0.967-0.016,1.45-0.02
					C-0.93-116.953,0.896-116.987,2.719-116.958L2.719-116.958z"/>
				<path id="Shape_21_" fill="#FFFFFF" d="M9.661-104.524c0.282-0.097,0.467,0.094,0.602,0.314c0.093-0.095,0.13-0.292,0.291-0.281
					c0.665-0.041,1.332,0.005,1.997-0.015c0.581-0.027,1.167,0.166,1.741,0.017c0.175,0.159,0.368,0.337,0.406,0.584
					c0.016,0.358-0.223,0.67-0.516,0.849c-0.779,0.496-1.795,0.494-2.636,0.165C10.754-103.203,10.137-103.833,9.661-104.524
					L9.661-104.524z"/>
				<path id="Shape_22_" fill="#FFFFFF" d="M0.836-103.901c0.125,0.065,0.251,0.132,0.376,0.2c0.092-0.067,0.186-0.135,0.278-0.201
					c-0.038,0.199-0.076,0.4-0.11,0.6c0.144-0.186,0.262-0.39,0.364-0.602c0.032,0.093,0.065,0.185,0.098,0.277
					c0.685-0.132,1.391-0.134,2.073,0.016c0.093-0.077,0.188-0.154,0.284-0.232c0.074,0.258,0.129,0.521,0.119,0.79
					c-0.129,0.518-0.266,1.083-0.657,1.471c-0.372,0.343-0.931,0.205-1.285-0.088c-0.684-0.546-1.146-1.316-1.536-2.087
					L0.836-103.901L0.836-103.901z"/>
			</g>
			<g id="_x23_006601ff" transform="translate(273.568627, 293.647059)">
				<path id="Shape_23_" fill="#FFFFFF" d="M-241.106-262.466c1.998-0.686,4.139-1.091,6.249-0.776
					c1.108,0.171,2.227,0.53,3.1,1.257c0.566,0.481,0.997,1.276,0.693,2.02c-0.398,0.933-1.376,1.434-2.287,1.748
					c0.279,0.249,0.597,0.504,0.688,0.887c0.126,0.499-0.113,1.015-0.439,1.385c-1.029,1.162-2.813,1.538-4.243,0.962
					c-1.146-0.452-1.979-1.45-2.523-2.526C-240.635-259.049-240.951-260.769-241.106-262.466L-241.106-262.466z M-240.436-261.935
					c0.091,0.509,0.131,1.027,0.27,1.528l-0.027,0.043l0.056,0.046c0.085,0.652,0.32,1.275,0.582,1.877
					c0.564,1.32,1.618,2.534,3.061,2.88c0.845,0.165,1.805,0.097,2.502-0.454c0.355-0.254,0.579-0.732,0.463-1.162
					c-0.28-0.631-0.94-0.959-1.557-1.18c0.982-0.226,1.976-0.578,2.76-1.23c0.46-0.37,0.711-1.064,0.365-1.594
					c-0.572-0.844-1.628-1.14-2.57-1.35C-236.501-262.864-238.566-262.63-240.436-261.935L-240.436-261.935z"/>
			</g>
			<g id="_x23_66ab5dff" transform="translate(60.235294, 301.176471)">
				<path id="Shape_24_" fill="#FFFFFF" d="M-36.622-267.869c1.124-1.352,2.808-2.065,4.435-2.617
					c0.99,1.662,1.628,3.557,1.725,5.495c0.016,0.984-0.084,2.063-0.717,2.863c-0.355,0.489-1.1,0.498-1.57,0.175
					c-0.922-0.58-1.388-1.606-1.941-2.5c-0.109,0.619-0.273,1.335-0.848,1.689c-0.612,0.28-1.246-0.166-1.589-0.655
					c-0.778-1.103-0.674-2.646-0.004-3.774c0.184,0.04,0.367,0.081,0.551,0.114c-0.157,0.046-0.314,0.096-0.471,0.145
					c0.021,0.096,0.043,0.191,0.064,0.288c-0.098,0.119-0.183,0.248-0.257,0.384c-0.139,0.491-0.173,1.004-0.214,1.512
					c0.03,0.02,0.092,0.057,0.124,0.075c0.021,0.115,0.044,0.23,0.071,0.345c0.185,0.501,0.452,1.026,0.945,1.283
					c0.268,0.151,0.64,0.121,0.852-0.112c0.253-0.286,0.362-0.664,0.447-1.028c0.05-0.294,0.116-0.636,0.494-0.613
					c0.076,0.138,0.153,0.276,0.228,0.417c0.39,0.771,0.852,1.541,1.536,2.087c0.354,0.293,0.914,0.431,1.285,0.088
					c0.391-0.388,0.528-0.953,0.657-1.471c0.084-0.476,0.102-0.961,0.074-1.442c-0.027-0.315-0.06-0.631-0.113-0.942
					c-0.036-0.261-0.144-0.503-0.352-0.671c0.008-0.139,0.02-0.277,0.035-0.415c0.038-0.103,0.077-0.206,0.117-0.308
					c-0.028-0.046-0.085-0.137-0.113-0.182c-0.05-0.085-0.098-0.171-0.143-0.257c-0.263-0.767-0.567-1.532-0.982-2.227
					c-1.201,0.315-2.313,0.918-3.328,1.627c-0.347,0.21-0.584,0.543-0.833,0.853C-36.498-267.701-36.581-267.812-36.622-267.869
					L-36.622-267.869z"/>
			</g>
			<g id="_x23_68ac5eff" transform="translate(288.627451, 308.705882)">
				<path id="Shape_25_" fill="#FFFFFF" d="M-255.495-276.994c1.87-0.695,3.935-0.929,5.905-0.596c0.942,0.21,1.998,0.506,2.57,1.35
					c0.346,0.529,0.095,1.224-0.365,1.594c-0.784,0.652-1.778,1.005-2.76,1.23c0.617,0.221,1.277,0.549,1.557,1.18
					c0.116,0.43-0.108,0.908-0.463,1.162c-0.697,0.551-1.657,0.619-2.502,0.454c-1.443-0.346-2.497-1.56-3.061-2.88
					c0.039-0.084,0.115-0.25,0.153-0.333c0.105,0.281,0.223,0.561,0.373,0.823c0.068,0.112,0.144,0.222,0.22,0.329
					c0.476,0.69,1.092,1.32,1.885,1.633c0.841,0.329,1.857,0.331,2.636-0.165c0.293-0.179,0.531-0.49,0.516-0.849
					c-0.039-0.247-0.231-0.425-0.406-0.584c-0.363-0.262-0.778-0.44-1.197-0.588c0.036-0.121,0.073-0.243,0.111-0.365
					c0.325-0.112,0.647-0.229,0.974-0.334c0.402-0.083,0.763-0.28,1.116-0.481c0.364-0.213,0.911-0.304,0.995-0.792l0.035-0.099
					c0.018-0.288,0.12-0.631-0.103-0.867c-0.492-0.612-1.272-0.882-2.009-1.064c-0.92-0.255-1.888-0.248-2.834-0.192
					c-1.021,0.056-2.004,0.354-3.006,0.527c0.014,0.374,0.057,0.746,0.133,1.113c-0.05,0.081-0.152,0.241-0.202,0.322
					C-255.364-275.967-255.404-276.485-255.495-276.994L-255.495-276.994z"/>
			</g>
			<g id="_x23_80ba61ff" transform="translate(87.843137, 346.352941)">
				<path id="Shape_26_" fill="#FFFFFF" d="M-64.064-312.821c0.249-0.31,0.486-0.643,0.833-0.853
					c-0.071,0.232-0.204,0.435-0.361,0.617c0.319-0.037,0.626-0.135,0.942-0.184c0.491-0.009,0.981,0.04,1.473,0.021
					c0.539-0.024,1.106,0.104,1.613-0.134c0.193,0.138,0.409,0.234,0.643,0.278c0.044,0.086,0.092,0.172,0.143,0.257
					c-0.913,0.044-1.824,0.098-2.738,0.084c-0.803,0.013-1.615-0.064-2.41,0.091C-63.961-312.686-64.03-312.776-64.064-312.821
					L-64.064-312.821z"/>
			</g>
			<g id="_x23_76b25aff" transform="translate(293.647059, 351.372549)">
				<path id="Shape_27_" fill="#FFFFFF" d="M-260.043-318.455c0.101,0.09,0.202,0.179,0.304,0.269
					c0.497-0.132,1.01-0.052,1.516-0.061c1.129-0.012,2.26,0.006,3.39-0.001c0.805,0.001,1.613-0.032,2.413,0.068
					c0.049,0.053,0.147,0.156,0.196,0.208l-0.035,0.099c-0.401,0.339-0.941,0.146-1.411,0.145c-1.633-0.055-3.268,0.005-4.9-0.033
					c-0.27-0.013-0.535,0.041-0.788,0.131c-0.158-0.034-0.316-0.068-0.474-0.106c-0.127-0.104-0.255-0.205-0.383-0.307l-0.056-0.046
					l0.027-0.043C-260.194-318.213-260.093-318.374-260.043-318.455L-260.043-318.455z"/>
			</g>
			<g id="_x23_70af59ff" transform="translate(72.784314, 358.901961)">
				<path id="Shape_28_" fill="#FFFFFF" d="M-49.68-324.919c0.147-0.242,0.315-0.47,0.509-0.676
					c0.041,0.057,0.124,0.168,0.166,0.225c0.034,0.045,0.103,0.135,0.137,0.179c0.795-0.155,1.607-0.078,2.41-0.091
					c0.914,0.014,1.825-0.04,2.738-0.084c0.028,0.045,0.085,0.136,0.113,0.182c-0.04,0.102-0.08,0.205-0.117,0.308
					c-1.181,0.116-2.37,0.028-3.555,0.054c-0.617,0.033-1.238-0.111-1.85,0.019C-49.314-324.838-49.497-324.879-49.68-324.919
					L-49.68-324.919z"/>
			</g>
			<g id="_x23_64a750ff" transform="translate(293.647059, 358.901961)">
				<path id="Shape_29_" fill="#FFFFFF" d="M-260.215-325.573c0.128,0.102,0.256,0.203,0.383,0.307
					c0.158,0.038,0.316,0.072,0.474,0.106c0.253-0.09,0.519-0.144,0.788-0.131c1.633,0.038,3.268-0.021,4.9,0.033
					c0.47,0.001,1.01,0.194,1.411-0.145c-0.084,0.488-0.631,0.579-0.995,0.792c-0.137-0.067-0.261-0.176-0.417-0.189
					c-1.931-0.061-3.871,0.07-5.797-0.075c-0.105,0.027-0.202,0.076-0.292,0.143c0.071,0.17,0.141,0.341,0.208,0.514
					c0.017,0.048,0.054,0.142,0.071,0.189c-0.039,0.083-0.115,0.249-0.153,0.333C-259.895-324.297-260.13-324.921-260.215-325.573
					L-260.215-325.573z"/>
			</g>
			<g id="_x23_60a54bff" transform="translate(75.294118, 373.960784)">
				<path id="Shape_30_" fill="#FFFFFF" d="M-51.639-339.863c0.612-0.13,1.233,0.015,1.85-0.019
					c1.185-0.025,2.374,0.063,3.555-0.054c-0.015,0.138-0.027,0.276-0.035,0.415c-0.576,0.171-1.181,0.095-1.771,0.104
					c-1.335-0.014-2.67,0.025-4.005-0.015c-0.021-0.097-0.043-0.192-0.064-0.288C-51.953-339.767-51.796-339.817-51.639-339.863
					L-51.639-339.863z"/>
			</g>
			<g id="_x23_50993dff" transform="translate(303.686275, 373.960784)">
				<path id="Shape_31_" fill="#FFFFFF" d="M-269.507-339.933c1.927,0.146,3.867,0.015,5.797,0.075
					c0.156,0.014,0.28,0.122,0.417,0.189c-0.353,0.201-0.714,0.398-1.116,0.481c-0.334-0.265-0.774-0.192-1.168-0.198
					c-1.05,0.028-2.1-0.013-3.15,0.023c-0.24,0.012-0.481-0.021-0.713-0.084c-0.039,0.041-0.113,0.127-0.15,0.169
					c-0.067-0.173-0.137-0.344-0.208-0.514C-269.709-339.857-269.613-339.906-269.507-339.933L-269.507-339.933z"/>
			</g>
			<g id="_x23_549a40ff" transform="translate(70.274510, 384.000000)">
				<path id="Shape_32_" fill="#FFFFFF" d="M-43.021-349.455c0.591-0.01,1.196,0.066,1.771-0.104
					c0.208,0.168,0.315,0.41,0.352,0.671c-0.09-0.061-0.183-0.135-0.298-0.112c-1.347,0.077-2.697,0.017-4.046,0.033
					c-0.681-0.021-1.379,0.09-2.041-0.118c0.074-0.136,0.159-0.265,0.257-0.384C-45.69-349.43-44.356-349.469-43.021-349.455
					L-43.021-349.455z"/>
			</g>
			<g id="_x23_398a2bff" transform="translate(308.705882, 384.000000)">
				<path id="Shape_33_" fill="#FFFFFF" d="M-274.46-349.485c0.232,0.063,0.473,0.096,0.713,0.084c1.05-0.036,2.1,0.005,3.15-0.023
					c0.395,0.006,0.834-0.066,1.168,0.198c-0.327,0.104-0.649,0.222-0.974,0.334c-0.038,0.122-0.075,0.244-0.111,0.365
					c-0.881-0.06-1.765-0.021-2.646-0.031c-0.336,0.042-0.759-0.031-1.008,0.255c-0.15-0.263-0.268-0.542-0.373-0.823
					c-0.018-0.048-0.054-0.142-0.071-0.189C-274.573-349.358-274.499-349.444-274.46-349.485L-274.46-349.485z"/>
			</g>
			<g id="_x23_3e8e2fff" transform="translate(65.254902, 394.039216)">
				<path id="Shape_34_" fill="#FFFFFF" d="M-42.263-359.125c0.662,0.208,1.36,0.098,2.041,0.118
					c1.349-0.017,2.699,0.044,4.046-0.033c0.115-0.022,0.208,0.052,0.298,0.112c0.054,0.312,0.086,0.627,0.113,0.942
					c-0.106-0.022-0.212-0.044-0.319-0.066c-0.027-0.111-0.054-0.221-0.081-0.331c-0.166,0.115-0.35,0.215-0.559,0.196
					c-1.818,0.005-3.638-0.059-5.454,0.038c-0.006-0.159-0.012-0.317-0.017-0.477c-0.111,0.352-0.154,0.719-0.16,1.087
					c-0.032-0.019-0.094-0.056-0.124-0.075C-42.436-358.121-42.402-358.634-42.263-359.125L-42.263-359.125z"/>
			</g>
			<g id="_x23_207c19ff" transform="translate(67.764706, 404.078431)">
				<path id="Shape_35_" fill="#FFFFFF" d="M-44.862-367.577c0.005-0.368,0.049-0.735,0.16-1.087
					c0.004,0.159,0.011,0.317,0.017,0.477c1.816-0.097,3.635-0.033,5.454-0.038c0.209,0.019,0.393-0.081,0.559-0.196
					c0.027,0.11,0.054,0.22,0.081,0.331c0.106,0.022,0.212,0.044,0.319,0.066c0.028,0.481,0.01,0.967-0.074,1.442
					c0.01-0.269-0.045-0.532-0.119-0.79c-0.096,0.078-0.19,0.155-0.284,0.232c-0.682-0.149-1.389-0.147-2.073-0.016
					c-0.033-0.093-0.066-0.185-0.098-0.277c-0.103,0.212-0.221,0.416-0.364,0.602c0.034-0.199,0.072-0.4,0.11-0.6
					c-0.092,0.066-0.186,0.134-0.278,0.201c-0.125-0.068-0.251-0.135-0.376-0.2l0.004,0.144c-0.075-0.141-0.152-0.279-0.228-0.417
					c-0.378-0.022-0.444,0.319-0.494,0.613c-0.05-0.056-0.151-0.165-0.2-0.22c-0.533-0.057-1.071-0.011-1.606-0.048
					c-0.16-0.024-0.303,0.051-0.438,0.125C-44.818-367.347-44.842-367.462-44.862-367.577L-44.862-367.577z"/>
			</g>
			<g id="_x23_177612ff" transform="translate(318.745098, 404.078431)">
				<path id="Shape_36_" fill="#FFFFFF" d="M-284.206-368.382c0.249-0.286,0.671-0.213,1.008-0.255
					c0.882,0.01,1.766-0.028,2.646,0.031c0.419,0.147,0.833,0.326,1.197,0.588c-0.575,0.149-1.161-0.044-1.741-0.017
					c-0.666,0.02-1.333-0.026-1.997,0.015c-0.161-0.011-0.198,0.187-0.291,0.281c-0.134-0.221-0.32-0.411-0.602-0.314
					C-284.062-368.16-284.138-368.27-284.206-368.382L-284.206-368.382z"/>
			</g>
			<g id="_x23_026703ff" transform="translate(70.274510, 431.686275)">
				<path id="Shape_37_" fill="#FFFFFF" d="M-47.301-394.841c0.135-0.074,0.278-0.149,0.438-0.125
					c0.535,0.037,1.073-0.009,1.606,0.048c0.049,0.055,0.149,0.164,0.2,0.22c-0.085,0.364-0.194,0.742-0.447,1.028
					c-0.211,0.233-0.584,0.264-0.852,0.112C-46.849-393.814-47.117-394.34-47.301-394.841L-47.301-394.841z"/>
			</g>
		</g>
	</g>
</g>
<path fill="#FFFFFF" d="M20.762,18.988c0,0,4.681-6.332,7.741,4.887c0,0-12.346,3.676-7.377-3.334s-0.103-0.121-0.103-0.121
	l-0.272-0.592L20.762,18.988z"/>
<polygon fill="#FFFFFF" points="21.125,20.541 19.607,22.027 19.25,22.683 19.607,23.535 20.521,23.781 "/>
<polygon fill="#FFFFFF" points="22.185,24.838 26.469,24.771 27.25,24.492 27.656,23.719 26.813,22.875 "/>
<polygon fill="#FFFFFF" points="36.624,18.068 36.356,17.063 35.531,16.396 34.5,16.031 33.002,16.81 32.376,19.983 32.887,23.535 
	33.095,25.101 33.759,25.461 35.375,24.787 37.031,24.313 38.156,23.781 39.381,22.166 40.094,20.75 40.094,19.347 39.381,17.688 
	38.39,17.344 37.406,17.576 "/>
<polygon fill="#FFFFFF" points="38.904,34.438 39.381,35.501 38.809,36.889 37.813,37.438 36.467,37.438 35.063,37.165 
	33.759,36.188 33.002,35.188 32.472,33.775 31.945,32.401 31.813,31.175 31.813,30.406 32.63,30.246 33.759,29.844 35.281,29.69 
	37.063,29.69 38.278,29.967 40.094,30.406 40.769,31.323 41.094,32.401 40.593,33.268 39.525,34.135 "/>
<polygon fill="#FFFFFF" points="29.01,36.496 28.355,37.576 27.921,38.445 26.344,38.625 25.586,37.929 24.921,37.165 
	24.378,36.496 24.224,37.561 22.625,37.561 21.778,36.889 21.314,35.943 21.125,34.696 21.314,33.4 22.185,32.195 23.095,31.531 
	24.035,30.688 25.586,29.967 27.063,29.5 27.921,30.246 28.503,32.308 29.01,33.612 29.01,36.25 "/>
</svg>
