<?xml version="1.0" encoding="utf-8"?>
<!-- Generator: Adobe Illustrator 16.0.0, SVG Export Plug-In . SVG Version: 6.00 Build 0)  -->
<!DOCTYPE svg PUBLIC "-//W3C//DTD SVG 1.1//EN" "http://www.w3.org/Graphics/SVG/1.1/DTD/svg11.dtd">
<svg version="1.1" id="Calque_1" xmlns="http://www.w3.org/2000/svg" xmlns:xlink="http://www.w3.org/1999/xlink" x="0px" y="0px"
	 width="59px" height="56px" viewBox="0 0 59 56" enable-background="new 0 0 59 56" xml:space="preserve">
<g id="Calque_1_1_">
	<circle fill="#FFFFFF" stroke="#010101" stroke-width="13" stroke-miterlimit="10" cx="30.177" cy="27.712" r="17.667"/>
	<circle fill="#010101" stroke="#FFFFFF" stroke-width="3" stroke-miterlimit="10" cx="30.174" cy="27.714" r="17.667"/>
	<g>
		<g>
			<path fill="#FFFFFF" d="M13.739,29.114c0.648,0,1.299,0,1.947,0c1.936,0,1.936-3,0-3c-0.648,0-1.299,0-1.947,0
				C11.805,26.114,11.805,29.114,13.739,29.114L13.739,29.114z"/>
		</g>
	</g>
	<g>
		<g>
			<path fill="#FFFFFF" d="M46.926,26.118c-0.723-0.003-1.443-0.005-2.166-0.008c-1.936-0.007-1.946,2.993-0.011,3
				c0.723,0.003,1.443,0.005,2.166,0.008C48.851,29.125,48.861,26.125,46.926,26.118L46.926,26.118z"/>
		</g>
	</g>
	<g>
		<g>
			<path fill="#FFFFFF" d="M28.676,11.448c0,0.334,0,0.668,0,1c0,1.936,3,1.936,3,0c0-0.332,0-0.666,0-1
				C31.676,9.515,28.676,9.515,28.676,11.448L28.676,11.448z"/>
		</g>
	</g>
	<g>
		<g>
			<path fill="#FFFFFF" d="M28.665,42.879c0.006,0.415,0.012,0.829,0.018,1.241c0.034,2.401,3.034,2.357,3-0.043
				c-0.006-0.412-0.012-0.826-0.018-1.241C31.63,40.438,28.63,40.481,28.665,42.879L28.665,42.879z"/>
		</g>
	</g>
</g>
<g>
	<path fill="#FFFFFF" d="M39.134,22.411c0-0.325-0.158-0.63-0.423-0.818l-7.949-5.636c-0.35-0.248-0.819-0.248-1.169,0l-7.95,5.636
		c-0.266,0.188-0.423,0.493-0.423,0.817c0,0.325,0.158,0.63,0.423,0.818l7.949,5.636c0.175,0.124,0.379,0.186,0.584,0.186
		c0.205,0,0.409-0.062,0.584-0.186l6.358-4.508v7.097l-6.941,4.922l-7.366-5.222c-0.454-0.321-1.083-0.216-1.406,0.236
		c-0.322,0.451-0.216,1.078,0.237,1.399l7.951,5.635c0.175,0.125,0.38,0.187,0.584,0.187s0.41-0.062,0.584-0.187l7.95-5.635
		c0.285-0.202,0.433-0.525,0.422-0.851c0-0.005,0.001-0.01,0.001-0.015v-9.465C39.134,22.45,39.134,22.418,39.134,22.411z
		 M30.176,26.814l-6.211-4.403l6.212-4.403l6.211,4.403L30.176,26.814z"/>
	<g>
	</g>
	<g>
	</g>
	<g>
	</g>
	<g>
	</g>
	<g>
	</g>
	<g>
	</g>
	<g>
	</g>
	<g>
	</g>
	<g>
	</g>
	<g>
	</g>
	<g>
	</g>
	<g>
	</g>
	<g>
	</g>
	<g>
	</g>
	<g>
	</g>
</g>
</svg>
