<?xml version="1.0" encoding="utf-8"?>
<!-- Generator: Adobe Illustrator 16.0.0, SVG Export Plug-In . SVG Version: 6.00 Build 0)  -->
<!DOCTYPE svg PUBLIC "-//W3C//DTD SVG 1.1//EN" "http://www.w3.org/Graphics/SVG/1.1/DTD/svg11.dtd">
<svg version="1.1" id="Calque_1" xmlns="http://www.w3.org/2000/svg" xmlns:xlink="http://www.w3.org/1999/xlink" x="0px" y="0px"
	 width="59px" height="56px" viewBox="0 0 59 56" enable-background="new 0 0 59 56" xml:space="preserve">
<g id="Calque_1_1_">
	<circle fill="#FFFFFF" stroke="#010101" stroke-width="13" stroke-miterlimit="10" cx="30.177" cy="27.712" r="17.667"/>
	<circle fill="#010101" stroke="#FFFFFF" stroke-width="3" stroke-miterlimit="10" cx="30.174" cy="27.714" r="17.667"/>
	<g>
		<g>
			<path fill="#FFFFFF" d="M13.739,29.114c0.648,0,1.299,0,1.947,0c1.936,0,1.936-3,0-3c-0.648,0-1.299,0-1.947,0
				C11.805,26.114,11.805,29.114,13.739,29.114L13.739,29.114z"/>
		</g>
	</g>
	<g>
		<g>
			<path fill="#FFFFFF" d="M46.926,26.118c-0.723-0.003-1.443-0.005-2.166-0.008c-1.936-0.007-1.946,2.993-0.011,3
				c0.723,0.003,1.443,0.005,2.166,0.008C48.851,29.125,48.861,26.125,46.926,26.118L46.926,26.118z"/>
		</g>
	</g>
	<g>
		<g>
			<path fill="#FFFFFF" d="M28.676,11.448c0,0.334,0,0.668,0,1c0,1.936,3,1.936,3,0c0-0.332,0-0.666,0-1
				C31.676,9.515,28.676,9.515,28.676,11.448L28.676,11.448z"/>
		</g>
	</g>
	<g>
		<g>
			<path fill="#FFFFFF" d="M28.665,42.879c0.006,0.415,0.012,0.829,0.018,1.241c0.034,2.401,3.034,2.357,3-0.043
				c-0.006-0.412-0.012-0.826-0.018-1.241C31.63,40.438,28.63,40.481,28.665,42.879L28.665,42.879z"/>
		</g>
	</g>
</g>
<g>
	<path fill="#FFFFFF" d="M18.535,33.862c0.071-0.113,0.184-0.12,0.34-0.021c3.54,2.054,7.391,3.08,11.553,3.08
		c2.775,0,5.515-0.517,8.219-1.551c0.071-0.028,0.173-0.07,0.308-0.127c0.135-0.058,0.23-0.1,0.287-0.128
		c0.213-0.085,0.379-0.042,0.5,0.128c0.12,0.169,0.082,0.325-0.117,0.467c-0.255,0.185-0.58,0.396-0.977,0.637
		c-1.218,0.723-2.577,1.282-4.078,1.678c-1.501,0.396-2.966,0.595-4.396,0.595c-2.208,0-4.297-0.386-6.265-1.157
		c-1.968-0.771-3.73-1.857-5.288-3.26c-0.085-0.07-0.127-0.142-0.127-0.212C18.493,33.947,18.507,33.905,18.535,33.862z
		 M24.928,27.81c0-0.977,0.241-1.813,0.722-2.506s1.14-1.218,1.975-1.571c0.765-0.326,1.706-0.56,2.825-0.701
		c0.382-0.043,1.005-0.1,1.869-0.17V22.5c0-0.906-0.099-1.515-0.297-1.826c-0.297-0.425-0.765-0.638-1.401-0.638h-0.17
		c-0.467,0.043-0.871,0.191-1.211,0.446c-0.339,0.255-0.559,0.608-0.658,1.063c-0.057,0.282-0.198,0.445-0.425,0.488l-2.442-0.298
		c-0.241-0.057-0.361-0.184-0.361-0.383c0-0.042,0.007-0.091,0.021-0.148c0.241-1.26,0.832-2.193,1.773-2.803
		s2.042-0.949,3.303-1.02h0.531c1.614,0,2.874,0.418,3.78,1.253c0.142,0.142,0.273,0.294,0.393,0.457s0.216,0.308,0.287,0.435
		c0.071,0.128,0.135,0.312,0.191,0.553s0.099,0.407,0.127,0.499c0.028,0.092,0.049,0.29,0.063,0.595s0.021,0.484,0.021,0.541v5.14
		c0,0.368,0.053,0.705,0.16,1.009c0.106,0.305,0.208,0.524,0.308,0.658c0.099,0.136,0.262,0.351,0.489,0.648
		c0.085,0.127,0.127,0.24,0.127,0.34c0,0.113-0.057,0.212-0.17,0.297c-1.175,1.02-1.813,1.572-1.912,1.657
		c-0.17,0.127-0.375,0.142-0.616,0.042c-0.198-0.17-0.372-0.332-0.521-0.488c-0.148-0.156-0.255-0.27-0.318-0.34
		c-0.064-0.071-0.167-0.209-0.308-0.414c-0.142-0.206-0.241-0.344-0.297-0.414c-0.793,0.863-1.571,1.401-2.336,1.614
		c-0.481,0.142-1.076,0.212-1.784,0.212c-1.09,0-1.985-0.336-2.687-1.009C25.278,29.993,24.928,29.041,24.928,27.81z M28.581,27.385
		c0,0.552,0.138,0.994,0.414,1.327c0.276,0.333,0.648,0.5,1.115,0.5c0.042,0,0.103-0.008,0.18-0.021
		c0.078-0.015,0.131-0.021,0.16-0.021c0.595-0.156,1.055-0.538,1.38-1.146c0.156-0.27,0.272-0.563,0.35-0.882
		c0.078-0.318,0.121-0.577,0.127-0.775c0.007-0.198,0.011-0.523,0.011-0.977v-0.531c-0.821,0-1.444,0.057-1.869,0.17
		C29.204,25.382,28.581,26.167,28.581,27.385z M37.5,34.224c0.028-0.058,0.071-0.113,0.127-0.17c0.354-0.241,0.694-0.404,1.02-0.488
		c0.538-0.142,1.062-0.22,1.572-0.234c0.141-0.014,0.276-0.007,0.403,0.021c0.637,0.057,1.02,0.163,1.146,0.318
		c0.057,0.085,0.085,0.213,0.085,0.383v0.148c0,0.495-0.135,1.08-0.404,1.752c-0.269,0.673-0.644,1.214-1.125,1.625
		c-0.071,0.057-0.135,0.085-0.191,0.085c-0.028,0-0.056-0.007-0.085-0.021c-0.084-0.043-0.106-0.12-0.063-0.233
		c0.524-1.231,0.786-2.088,0.786-2.57c0-0.155-0.028-0.269-0.085-0.339c-0.142-0.171-0.538-0.256-1.189-0.256
		c-0.24,0-0.523,0.015-0.849,0.043c-0.354,0.042-0.68,0.085-0.977,0.128c-0.085,0-0.142-0.015-0.17-0.043s-0.035-0.057-0.021-0.085
		C37.479,34.272,37.486,34.252,37.5,34.224z"/>
</g>
</svg>
