<?xml version="1.0" encoding="utf-8"?>
<!-- Generator: Adobe Illustrator 16.0.0, SVG Export Plug-In . SVG Version: 6.00 Build 0)  -->
<!DOCTYPE svg PUBLIC "-//W3C//DTD SVG 1.1//EN" "http://www.w3.org/Graphics/SVG/1.1/DTD/svg11.dtd">
<svg version="1.1" id="Calque_1" xmlns="http://www.w3.org/2000/svg" xmlns:xlink="http://www.w3.org/1999/xlink" x="0px" y="0px"
	 width="59px" height="56px" viewBox="0 0 59 56" enable-background="new 0 0 59 56" xml:space="preserve">
<g id="Calque_1_1_">
	<circle fill="#FFFFFF" stroke="#010101" stroke-width="13" stroke-miterlimit="10" cx="30.177" cy="27.712" r="17.667"/>
	<circle fill="#010101" stroke="#FFFFFF" stroke-width="3" stroke-miterlimit="10" cx="30.174" cy="27.714" r="17.667"/>
	<g>
		<g>
			<path fill="#FFFFFF" d="M13.739,29.114c0.648,0,1.299,0,1.947,0c1.936,0,1.936-3,0-3c-0.648,0-1.299,0-1.947,0
				C11.805,26.114,11.805,29.114,13.739,29.114L13.739,29.114z"/>
		</g>
	</g>
	<g>
		<g>
			<path fill="#FFFFFF" d="M46.926,26.118c-0.723-0.003-1.443-0.005-2.166-0.008c-1.936-0.007-1.946,2.993-0.011,3
				c0.723,0.003,1.443,0.005,2.166,0.008C48.851,29.125,48.861,26.125,46.926,26.118L46.926,26.118z"/>
		</g>
	</g>
	<g>
		<g>
			<path fill="#FFFFFF" d="M28.676,11.448c0,0.334,0,0.668,0,1c0,1.936,3,1.936,3,0c0-0.332,0-0.666,0-1
				C31.676,9.515,28.676,9.515,28.676,11.448L28.676,11.448z"/>
		</g>
	</g>
	<g>
		<g>
			<path fill="#FFFFFF" d="M28.665,42.879c0.006,0.415,0.012,0.829,0.018,1.241c0.034,2.401,3.034,2.357,3-0.043
				c-0.006-0.412-0.012-0.826-0.018-1.241C31.63,40.438,28.63,40.481,28.665,42.879L28.665,42.879z"/>
		</g>
	</g>
</g>
<g>
	<path fill="#FFFFFF" d="M39.426,19.622l-0.07-0.176c-0.001-0.005-0.005-0.011-0.01-0.012l-0.173-0.078
		c-1.419-0.646-3.422-0.804-5.196-0.875H31.98c-0.023,0-0.03,0.032-0.009,0.04l4.1,1.969c0.024,0.01,0.01,0.043-0.014,0.037
		c-1.845-0.481-3.708-0.726-5.547-0.726c-1.834,0-3.691,0.242-5.529,0.721c-0.025,0.006-0.039-0.028-0.014-0.04l4.244-1.961
		c0.02-0.008,0.015-0.04-0.008-0.04h-2.159c-1.772,0.071-3.776,0.229-5.196,0.875l-0.173,0.078c-0.005,0.003-0.008,0.007-0.01,0.012
		l-0.069,0.179c-1.454,3.682-1.868,9.935-1.426,13.85l0.023,0.207l0.163,0.127c2.27,1.76,5.307,2.665,7.217,2.906l0.247,0.029
		c0.081,0.011,0.157-0.034,0.186-0.11l1.242-3.323c0.039-0.101-0.027-0.216-0.136-0.233l-0.381-0.059
		c-1.33-0.208-3.215-0.762-4.807-2.207c-0.035-0.032-0.002-0.087,0.041-0.071c0.129,0.048,0.271,0.104,0.419,0.161
		c0.36,0.141,0.732,0.287,0.976,0.343c1.708,0.407,3.44,0.614,5.152,0.614v-0.032h0.003v0.032c1.708,0,3.44-0.207,5.148-0.614
		c0.243-0.056,0.616-0.202,0.976-0.343c0.147-0.057,0.289-0.113,0.419-0.161c0.042-0.016,0.076,0.039,0.042,0.071
		c-1.588,1.438-3.475,1.99-4.808,2.197l-0.382,0.062c-0.109,0.018-0.175,0.13-0.137,0.231l1.243,3.332
		c0.029,0.076,0.106,0.121,0.187,0.11l0.247-0.029c1.91-0.241,4.946-1.146,7.216-2.906l0.164-0.127l0.023-0.207
		C41.292,29.56,40.879,23.307,39.426,19.622z M26.452,28.664c-1.543,0.14-2.833-1.148-2.695-2.692
		c0.106-1.184,1.059-2.136,2.243-2.242c1.544-0.137,2.833,1.148,2.695,2.693C28.59,27.606,27.636,28.56,26.452,28.664z
		 M35.021,28.664c-1.544,0.14-2.832-1.148-2.695-2.692c0.106-1.184,1.059-2.136,2.242-2.242c1.543-0.137,2.833,1.148,2.695,2.693
		C37.157,27.606,36.205,28.56,35.021,28.664z"/>
	<g>
	</g>
	<g>
	</g>
	<g>
	</g>
	<g>
	</g>
	<g>
	</g>
	<g>
	</g>
	<g>
	</g>
	<g>
	</g>
	<g>
	</g>
	<g>
	</g>
	<g>
	</g>
	<g>
	</g>
	<g>
	</g>
	<g>
	</g>
	<g>
	</g>
</g>
</svg>
