<?xml version="1.0" encoding="utf-8"?>
<!-- Generator: Adobe Illustrator 16.0.0, SVG Export Plug-In . SVG Version: 6.00 Build 0)  -->
<!DOCTYPE svg PUBLIC "-//W3C//DTD SVG 1.1//EN" "http://www.w3.org/Graphics/SVG/1.1/DTD/svg11.dtd">
<svg version="1.1" id="Calque_1" xmlns="http://www.w3.org/2000/svg" xmlns:xlink="http://www.w3.org/1999/xlink" x="0px" y="0px"
	 width="59px" height="56px" viewBox="0 0 59 56" enable-background="new 0 0 59 56" xml:space="preserve">
<g id="Calque_1_1_">
	<circle fill="#FFFFFF" stroke="#010101" stroke-width="13" stroke-miterlimit="10" cx="30.177" cy="27.712" r="17.667"/>
	<circle fill="#010101" stroke="#FFFFFF" stroke-width="3" stroke-miterlimit="10" cx="30.174" cy="27.714" r="17.667"/>
	<g>
		<g>
			<path fill="#FFFFFF" d="M13.739,29.114c0.648,0,1.299,0,1.947,0c1.936,0,1.936-3,0-3c-0.648,0-1.299,0-1.947,0
				C11.805,26.114,11.805,29.114,13.739,29.114L13.739,29.114z"/>
		</g>
	</g>
	<g>
		<g>
			<path fill="#FFFFFF" d="M46.926,26.118c-0.723-0.003-1.443-0.005-2.166-0.008c-1.936-0.007-1.946,2.993-0.011,3
				c0.723,0.003,1.443,0.005,2.166,0.008C48.851,29.125,48.861,26.125,46.926,26.118L46.926,26.118z"/>
		</g>
	</g>
	<g>
		<g>
			<path fill="#FFFFFF" d="M28.676,11.448c0,0.334,0,0.668,0,1c0,1.936,3,1.936,3,0c0-0.332,0-0.666,0-1
				C31.676,9.515,28.676,9.515,28.676,11.448L28.676,11.448z"/>
		</g>
	</g>
	<g>
		<g>
			<path fill="#FFFFFF" d="M28.665,42.879c0.006,0.415,0.012,0.829,0.018,1.241c0.034,2.401,3.034,2.357,3-0.043
				c-0.006-0.412-0.012-0.826-0.018-1.241C31.63,40.438,28.63,40.481,28.665,42.879L28.665,42.879z"/>
		</g>
	</g>
</g>
<g>
	<title>g2a_rgb_black_full</title>
	<path fill="#FFFFFF" d="M28.859,25.727c-1.103,0-1.996,0.894-1.996,1.996v2.246h5.601l0.794-1.497H28.43v-0.601
		c0-0.356,0.29-0.646,0.647-0.646l3.15-0.002c1.172,0,2.121-0.949,2.121-2.119c0-1.172-0.949-2.122-2.121-2.122l-3.749,0.001
		c-0.827,0-1.497,0.671-1.497,1.497l0,0h5.137c0.342-0.003,0.624,0.266,0.638,0.607c0.009,0.344-0.262,0.631-0.606,0.64
		c-0.005,0-0.011,0-0.016,0H28.859z"/>
	<path fill="#FFFFFF" d="M21.644,28.468c-1.101,0-1.993-0.893-1.993-1.993c0-1.1,0.892-1.992,1.993-1.992l4.044-0.003v-1.497
		l-4.14,0.003c-1.928,0-3.49,1.563-3.49,3.489c0,1.928,1.563,3.491,3.49,3.491l4.14,0.003v-4.242h-4.491v1.498h2.925v1.247
		L21.644,28.468z"/>
	<path fill="#FFFFFF" d="M39.475,23.787c-0.115-0.227-0.279-0.425-0.48-0.582c-0.235-0.174-0.521-0.267-0.815-0.264
		c-0.286-0.003-0.566,0.09-0.793,0.264c-0.201,0.157-0.364,0.355-0.48,0.582c-1.309,2.493-3.268,6.182-3.268,6.182h1.788
		l2.753-5.275l1.294,2.479h-1.992l0.702,1.341h1.99l0.76,1.455h1.788C42.721,29.969,40.783,26.28,39.475,23.787z"/>
</g>
</svg>
