<?xml version="1.0" encoding="utf-8"?>
<!-- Generator: Adobe Illustrator 16.0.0, SVG Export Plug-In . SVG Version: 6.00 Build 0)  -->
<!DOCTYPE svg PUBLIC "-//W3C//DTD SVG 1.1//EN" "http://www.w3.org/Graphics/SVG/1.1/DTD/svg11.dtd">
<svg version="1.1" id="Calque_1" xmlns="http://www.w3.org/2000/svg" xmlns:xlink="http://www.w3.org/1999/xlink" x="0px" y="0px"
	 width="59px" height="56px" viewBox="0 0 59 56" enable-background="new 0 0 59 56" xml:space="preserve">
<g id="Calque_1_1_">
	<circle fill="#FFFFFF" stroke="#010101" stroke-width="13" stroke-miterlimit="10" cx="30.177" cy="27.712" r="17.667"/>
	<circle fill="#010101" stroke="#FFFFFF" stroke-width="3" stroke-miterlimit="10" cx="30.174" cy="27.714" r="17.667"/>
	<g>
		<g>
			<path fill="#FFFFFF" d="M13.739,29.114c0.648,0,1.299,0,1.947,0c1.936,0,1.936-3,0-3c-0.648,0-1.299,0-1.947,0
				C11.805,26.114,11.805,29.114,13.739,29.114L13.739,29.114z"/>
		</g>
	</g>
	<g>
		<g>
			<path fill="#FFFFFF" d="M46.926,26.118c-0.723-0.003-1.443-0.005-2.166-0.008c-1.936-0.007-1.946,2.993-0.011,3
				c0.723,0.003,1.443,0.005,2.166,0.008C48.851,29.125,48.861,26.125,46.926,26.118L46.926,26.118z"/>
		</g>
	</g>
	<g>
		<g>
			<path fill="#FFFFFF" d="M28.676,11.448c0,0.334,0,0.668,0,1c0,1.936,3,1.936,3,0c0-0.332,0-0.666,0-1
				C31.676,9.515,28.676,9.515,28.676,11.448L28.676,11.448z"/>
		</g>
	</g>
	<g>
		<g>
			<path fill="#FFFFFF" d="M28.665,42.879c0.006,0.415,0.012,0.829,0.018,1.241c0.034,2.401,3.034,2.357,3-0.043
				c-0.006-0.412-0.012-0.826-0.018-1.241C31.63,40.438,28.63,40.481,28.665,42.879L28.665,42.879z"/>
		</g>
	</g>
</g>
<g>
	<g id="XMLID_122_">
		<g>
			<path fill="#FFFFFF" d="M39.662,25.668c0.089-0.567,0.145-1.188,0.16-1.885c-0.006-2.987-1.436-4.044-1.711-4.539
				c0.406-2.264-0.067-3.294-0.286-3.646c-0.811-0.288-2.819,0.742-3.917,1.467c-1.79-0.523-5.571-0.473-6.989,0.136
				c-2.616-1.874-4-1.588-4-1.588s-0.895,1.604-0.237,3.951c-0.861,1.097-1.502,1.873-1.502,3.93c0,0.493,0.03,0.959,0.082,1.407
				c0.742,3.897,3.831,5.579,6.864,5.869c-0.456,0.347-1.005,1.003-1.08,1.765c-0.574,0.37-1.728,0.493-2.625,0.211
				c-1.257-0.396-1.739-2.888-3.622-2.532c-0.407,0.077-0.326,0.346,0.026,0.575c0.574,0.371,1.114,0.834,1.531,1.823
				c0.319,0.76,0.993,2.116,3.119,2.116c0.844,0,1.436-0.1,1.436-0.1s0.016,1.937,0.016,2.692c0,0.869-1.173,1.112-1.173,1.529
				c0,0.166,0.388,0.182,0.7,0.182c0.617,0,1.899-0.513,1.899-1.417c0-0.718,0.012-3.129,0.012-3.552
				c0-0.924,0.495-1.217,0.495-1.217s0.061,4.927-0.119,5.587c-0.21,0.777-0.592,0.667-0.592,1.013c0,0.516,1.542,0.127,2.053-1.003
				c0.396-0.882,0.219-5.715,0.219-5.715l0.413-0.009c0,0,0.005,2.214-0.009,3.225c-0.015,1.047-0.123,2.371,0.499,2.996
				c0.408,0.41,1.659,1.131,1.659,0.473c0-0.382-0.875-0.698-0.875-1.732v-4.766c0.532,0,0.642,1.566,0.642,1.566l0.192,2.911
				c0,0-0.127,1.062,1.147,1.505c0.45,0.157,1.413,0.2,1.458-0.063c0.045-0.266-1.159-0.657-1.17-1.479
				c-0.006-0.501,0.022-0.794,0.022-2.972c0-2.177-0.292-2.981-1.311-3.623C36.04,30.456,39.109,29.137,39.662,25.668z"/>
		</g>
	</g>
	<g>
	</g>
	<g>
	</g>
	<g>
	</g>
	<g>
	</g>
	<g>
	</g>
	<g>
	</g>
	<g>
	</g>
	<g>
	</g>
	<g>
	</g>
	<g>
	</g>
	<g>
	</g>
	<g>
	</g>
	<g>
	</g>
	<g>
	</g>
	<g>
	</g>
</g>
</svg>
