<?xml version="1.0" encoding="utf-8"?>
<!-- Generator: Adobe Illustrator 16.0.0, SVG Export Plug-In . SVG Version: 6.00 Build 0)  -->
<!DOCTYPE svg PUBLIC "-//W3C//DTD SVG 1.1//EN" "http://www.w3.org/Graphics/SVG/1.1/DTD/svg11.dtd">
<svg version="1.1" id="Calque_1" xmlns="http://www.w3.org/2000/svg" xmlns:xlink="http://www.w3.org/1999/xlink" x="0px" y="0px"
	 width="59px" height="56px" viewBox="0 0 59 56" enable-background="new 0 0 59 56" xml:space="preserve">
<g id="Calque_1_1_">
	<circle fill="#FFFFFF" stroke="#010101" stroke-width="13" stroke-miterlimit="10" cx="30.177" cy="27.712" r="17.667"/>
	<circle fill="#010101" stroke="#FFFFFF" stroke-width="3" stroke-miterlimit="10" cx="30.174" cy="27.714" r="17.667"/>
	<g>
		<g>
			<path fill="#FFFFFF" d="M13.739,29.114c0.648,0,1.299,0,1.947,0c1.936,0,1.936-3,0-3c-0.648,0-1.299,0-1.947,0
				C11.805,26.114,11.805,29.114,13.739,29.114L13.739,29.114z"/>
		</g>
	</g>
	<g>
		<g>
			<path fill="#FFFFFF" d="M46.926,26.118c-0.723-0.003-1.443-0.005-2.166-0.008c-1.936-0.007-1.946,2.993-0.011,3
				c0.723,0.003,1.443,0.005,2.166,0.008C48.851,29.125,48.861,26.125,46.926,26.118L46.926,26.118z"/>
		</g>
	</g>
	<g>
		<g>
			<path fill="#FFFFFF" d="M28.676,11.448c0,0.334,0,0.668,0,1c0,1.936,3,1.936,3,0c0-0.332,0-0.666,0-1
				C31.676,9.515,28.676,9.515,28.676,11.448L28.676,11.448z"/>
		</g>
	</g>
	<g>
		<g>
			<path fill="#FFFFFF" d="M28.665,42.879c0.006,0.415,0.012,0.829,0.018,1.241c0.034,2.401,3.034,2.357,3-0.043
				c-0.006-0.412-0.012-0.826-0.018-1.241C31.63,40.438,28.63,40.481,28.665,42.879L28.665,42.879z"/>
		</g>
	</g>
</g>
<g>
	<path fill="#FFFFFF" d="M34.668,14.906c-1.646,1.186-3.072,2.531-3.979,4.319l0.635-2.531c-0.959,1.701-1.607,3.457-1.814,5.174
		l-1.283-0.854l-0.233,0.181c1.153,2.062,0.557,3.163-0.013,3.552c-1.153,0.801-2.838,1.786-3.667,2.654
		c-1.607,1.646-2.061,3.228-1.931,5.287c0.168,2.657,2.1,4.873,4.679,5.742c1.127,0.376,2.177,0.428,3.344,0.428
		c1.879,0,3.811-0.506,5.21-1.672c1.478-1.231,2.372-3.098,2.372-5.028c0-1.944-0.816-3.785-2.255-5.095
		c-0.765-0.687-1.711-1.256-2.709-1.801c-0.44-0.246-1.802-1.307-1.348-2.836l-0.972-0.13c1.361-2.138,3.136-4.27,5.366-6.257
		c-1.711,0.584-3.24,1.47-4.368,3.063C32.374,17.703,33.462,16.305,34.668,14.906z M28.499,21.558l0.998,0.413l0.441,0.194h-0.013
		v9.759c-0.194,0.583-0.363,0.687-0.83,1.23c-0.544,0.636-0.635,1.582-0.635,2.333c0,0.324,0.129,0.674,0.246,1.011
		c0.143,0.35,0.259,0.713,0.454,0.973c0.259,0.363,0.57,0.596,0.765,0.687v0.053c-0.687-0.144-1.451-0.39-1.931-0.791
		c-0.933-0.816-1.763-2.178-1.866-3.356c-0.091-0.973,0.804-2.411,2.061-3.137c1.063-0.622,1.309-1.322,1.542-2.463
		c-0.311,0.998-0.609,1.828-1.646,2.358c-1.478,0.777-2.242,2.087-2.178,3.318c0.104,1.594,0.752,2.67,2.009,3.538
		c0.363,0.26,0.933,0.519,1.452,0.687c-1.905-0.427-2.1-0.647-2.657-1.295c0-0.039-0.142-0.13-0.142-0.169
		c-0.713-0.804-1.621-2.19-1.932-3.461c-0.104-0.439-0.207-0.92-0.09-1.36c0.583-2.1,1.854-2.903,3.136-3.771
		c0.311-0.221,0.622-0.428,0.92-0.635c0.7-0.558,0.881-2.022,1.037-2.838c-0.298,1.011-0.596,2.241-1.141,2.655
		c-0.285,0.234-0.648,0.402-0.946,0.597c-1.322,0.907-2.631,1.763-3.24,3.914c-0.143,0.545-0.026,0.96,0.09,1.49
		c0.337,1.322,1.245,2.748,1.983,3.591c0,0,0.129,0.129,0.129,0.142c0.337,0.39,0.778,0.662,1.283,0.882
		c-0.44-0.117-0.868-0.285-1.283-0.479c-2.074-0.998-3.46-3.162-3.538-4.938c-0.194-3.59,1.529-4.626,3.124-5.936
		c0.907-0.752,2.151-1.102,2.877-2.409c0.13-0.285,0.208-0.92,0.052-1.581C28.952,22.528,28.615,21.737,28.499,21.558L28.499,21.558
		z M29.989,22.189l0.493,0.212c0.013,0.189,0.013,0.373,0.013,0.556c-0.052,0.849-0.065,1.2,0.104,1.867
		c0.194,0.748,1.192,1.85,1.594,3.107c0.778,2.411,0.583,5.56,0.013,8.022c-0.091,0.402-0.363,0.894-0.726,1.335
		c0.129-0.233,0.233-0.492,0.311-0.752c0.558-1.982,0.791-2.902,0.531-5.106c-0.039-0.207-0.129-0.934-0.466-1.711
		c-0.493-1.192-1.205-2.319-1.296-2.553c-0.156-0.363-0.363-1.983-0.402-3.069c0.013,0.918,0.09,2.628,0.337,3.303
		c0.065,0.233,0.726,1.244,1.18,2.462c0.324,0.843,0.389,1.634,0.453,1.854c0.208,1.011-0.064,2.709-0.415,4.329
		c-0.143,0.7-0.558,1.542-1.089,2.061c-0.013,0.013-0.026,0.026-0.052,0.039c0.337-0.337,0.661-0.895,0.855-1.581
		c0.272-0.933,0.376-2.139,0.363-2.891c-0.026-0.44-0.22-1.399-0.57-2.268c-0.194-0.479-0.492-0.96-0.687-1.297
		c-0.22-0.337-0.22-1.063-0.324-1.918c0.013,0.934-0.064,1.388,0.156,2.048c0.143,0.39,0.622,0.92,0.765,1.426
		c0.194,0.7,0.401,1.451,0.389,1.918c0,0.532-0.039,1.517-0.259,2.579c-0.181,0.882-0.583,1.634-1.257,2.062h-0.013v-0.039
		c0.013,0.013,0.026,0.013,0.026,0.013h0.013v-0.025c0.35-0.376,0.557-0.752,0.623-1.141c0.09-0.454,0.116-0.921,0.168-1.465
		c0.052-0.467,0.013-1.089-0.116-1.724c-0.168-0.791-0.48-1.607-0.596-2.178c0.013,0.622,0.259,1.412,0.376,2.229
		c0.09,0.609,0.052,1.205,0.026,1.737c-0.013,0.621-0.221,1.723-0.506,2.255h-0.013V22.189L29.989,22.189z M29.924,31.988v5.858
		c-0.208-0.104-0.298-0.247-0.454-0.44c-0.22-0.298-0.363-0.609-0.505-0.96c-0.104-0.259-0.221-0.57-0.272-0.92
		c-0.078-0.531-0.051-1.36,0.544-2.216C29.665,32.688,29.782,32.598,29.924,31.988z"/>
</g>
</svg>
