<?xml version="1.0" encoding="utf-8"?>
<!-- Generator: Adobe Illustrator 16.0.0, SVG Export Plug-In . SVG Version: 6.00 Build 0)  -->
<!DOCTYPE svg PUBLIC "-//W3C//DTD SVG 1.1//EN" "http://www.w3.org/Graphics/SVG/1.1/DTD/svg11.dtd">
<svg version="1.1" id="Calque_1" xmlns="http://www.w3.org/2000/svg" xmlns:xlink="http://www.w3.org/1999/xlink" x="0px" y="0px"
	 width="59px" height="56px" viewBox="0 0 59 56" enable-background="new 0 0 59 56" xml:space="preserve">
<g id="Calque_1_1_">
	<circle fill="#FFFFFF" stroke="#010101" stroke-width="13" stroke-miterlimit="10" cx="30.177" cy="27.712" r="17.667"/>
	<circle fill="#010101" stroke="#FFFFFF" stroke-width="3" stroke-miterlimit="10" cx="30.174" cy="27.714" r="17.667"/>
	<g>
		<g>
			<path fill="#FFFFFF" d="M13.739,29.114c0.648,0,1.299,0,1.947,0c1.936,0,1.936-3,0-3c-0.648,0-1.299,0-1.947,0
				C11.805,26.114,11.805,29.114,13.739,29.114L13.739,29.114z"/>
		</g>
	</g>
	<g>
		<g>
			<path fill="#FFFFFF" d="M46.926,26.118c-0.723-0.003-1.443-0.005-2.166-0.008c-1.936-0.007-1.946,2.993-0.011,3
				c0.723,0.003,1.443,0.005,2.166,0.008C48.851,29.125,48.861,26.125,46.926,26.118L46.926,26.118z"/>
		</g>
	</g>
	<g>
		<g>
			<path fill="#FFFFFF" d="M28.676,11.448c0,0.334,0,0.668,0,1c0,1.936,3,1.936,3,0c0-0.332,0-0.666,0-1
				C31.676,9.515,28.676,9.515,28.676,11.448L28.676,11.448z"/>
		</g>
	</g>
	<g>
		<g>
			<path fill="#FFFFFF" d="M28.665,42.879c0.006,0.415,0.012,0.829,0.018,1.241c0.034,2.401,3.034,2.357,3-0.043
				c-0.006-0.412-0.012-0.826-0.018-1.241C31.63,40.438,28.63,40.481,28.665,42.879L28.665,42.879z"/>
		</g>
	</g>
</g>
<g>
	<g>
		<g>
			<path fill="#FFFFFF" d="M23.426,32.5h4.091v2.046c0,0.165,0.1,0.314,0.252,0.378c0.051,0.021,0.104,0.03,0.157,0.03
				c0.106,0,0.211-0.041,0.289-0.119L30.55,32.5h4.535c0.108,0,0.213-0.043,0.29-0.12l2.659-2.659c0.077-0.076,0.12-0.18,0.12-0.289
				v-9.614c0-0.226-0.183-0.408-0.409-0.408H23.426c-0.226,0-0.409,0.183-0.409,0.408v12.273C23.017,32.317,23.2,32.5,23.426,32.5z
				 M23.835,20.228h13.5v9.035l-2.419,2.419h-4.535c-0.108,0-0.213,0.043-0.289,0.12l-1.756,1.756v-1.467
				c0-0.226-0.184-0.409-0.409-0.409h-4.091V20.228z"/>
			<path fill="#FFFFFF" d="M40.199,17.363H21.585c-0.146,0-0.28,0.077-0.354,0.203L19.8,20.021
				c-0.036,0.063-0.056,0.134-0.056,0.207v15.137c0,0.226,0.183,0.408,0.409,0.408h4.5v2.455c0,0.227,0.184,0.409,0.409,0.409h2.864
				c0.101,0,0.198-0.038,0.273-0.105l3.066-2.759h3.82c0.103,0,0.202-0.038,0.277-0.107l5.114-4.705
				c0.084-0.077,0.132-0.187,0.132-0.301V17.772C40.608,17.546,40.425,17.363,40.199,17.363z M39.79,30.479l-4.864,4.475h-3.817
				c-0.101,0-0.199,0.038-0.274,0.106l-3.065,2.758h-2.297v-2.454c0-0.227-0.184-0.41-0.409-0.41h-4.5V20.338l1.257-2.156h17.97
				V30.479z"/>
			<path fill="#FFFFFF" d="M28.335,28.818h1.636c0.226,0,0.409-0.183,0.409-0.409v-5.318c0-0.227-0.183-0.409-0.409-0.409h-1.636
				c-0.226,0-0.409,0.183-0.409,0.409v5.318C27.926,28.636,28.109,28.818,28.335,28.818z M28.745,23.5h0.818V28h-0.818V23.5z"/>
			<path fill="#FFFFFF" d="M32.426,28.818h1.636c0.226,0,0.409-0.183,0.409-0.409v-5.318c0-0.227-0.183-0.409-0.409-0.409h-1.636
				c-0.226,0-0.409,0.183-0.409,0.409v5.318C32.017,28.636,32.201,28.818,32.426,28.818z M32.835,23.5h0.818V28h-0.818V23.5z"/>
		</g>
	</g>
	<g>
	</g>
	<g>
	</g>
	<g>
	</g>
	<g>
	</g>
	<g>
	</g>
	<g>
	</g>
	<g>
	</g>
	<g>
	</g>
	<g>
	</g>
	<g>
	</g>
	<g>
	</g>
	<g>
	</g>
	<g>
	</g>
	<g>
	</g>
	<g>
	</g>
</g>
</svg>
