<?xml version="1.0" encoding="utf-8"?>
<!-- Generator: Adobe Illustrator 16.0.0, SVG Export Plug-In . SVG Version: 6.00 Build 0)  -->
<!DOCTYPE svg PUBLIC "-//W3C//DTD SVG 1.1//EN" "http://www.w3.org/Graphics/SVG/1.1/DTD/svg11.dtd">
<svg version="1.1" id="Calque_1" xmlns="http://www.w3.org/2000/svg" xmlns:xlink="http://www.w3.org/1999/xlink" x="0px" y="0px"
	 width="59px" height="56px" viewBox="0 0 59 56" enable-background="new 0 0 59 56" xml:space="preserve">
<g id="Calque_1_1_">
	<circle fill="#FFFFFF" stroke="#010101" stroke-width="13" stroke-miterlimit="10" cx="30.177" cy="27.712" r="17.667"/>
	<circle fill="#010101" stroke="#FFFFFF" stroke-width="3" stroke-miterlimit="10" cx="30.174" cy="27.714" r="17.667"/>
	<g>
		<g>
			<path fill="#FFFFFF" d="M13.739,29.114c0.648,0,1.299,0,1.947,0c1.936,0,1.936-3,0-3c-0.648,0-1.299,0-1.947,0
				C11.805,26.114,11.805,29.114,13.739,29.114L13.739,29.114z"/>
		</g>
	</g>
	<g>
		<g>
			<path fill="#FFFFFF" d="M46.926,26.118c-0.723-0.003-1.443-0.005-2.166-0.008c-1.936-0.007-1.946,2.993-0.011,3
				c0.723,0.003,1.443,0.005,2.166,0.008C48.851,29.125,48.861,26.125,46.926,26.118L46.926,26.118z"/>
		</g>
	</g>
	<g>
		<g>
			<path fill="#FFFFFF" d="M28.676,11.448c0,0.334,0,0.668,0,1c0,1.936,3,1.936,3,0c0-0.332,0-0.666,0-1
				C31.676,9.515,28.676,9.515,28.676,11.448L28.676,11.448z"/>
		</g>
	</g>
	<g>
		<g>
			<path fill="#FFFFFF" d="M28.665,42.879c0.006,0.415,0.012,0.829,0.018,1.241c0.034,2.401,3.034,2.357,3-0.043
				c-0.006-0.412-0.012-0.826-0.018-1.241C31.63,40.438,28.63,40.481,28.665,42.879L28.665,42.879z"/>
		</g>
	</g>
</g>
<g>
	<g>
		<g>
			<path fill="#FFFFFF" d="M40.673,31.1c-0.752,0.009-1.352-0.052-1.779-0.174c-1.295-0.369-1.695-0.899-1.695-0.899
				c-0.091-0.136-0.25-0.21-0.414-0.188c-0.163,0.021-0.299,0.134-0.352,0.289c-0.006,0.019-0.616,1.781-2.149,2.547
				c-1.593,0.796-4.479,0.603-4.507,0.602c-0.156-0.015-0.295,0.058-0.382,0.181c-0.087,0.124-0.103,0.284-0.042,0.422l2.214,5.018
				c0.069,0.158,0.225,0.257,0.393,0.257c0.022,0,0.045-0.001,0.068-0.005c4.139-0.665,7.608-3.526,9.052-7.471
				c0.049-0.131,0.03-0.279-0.052-0.395S40.806,31.092,40.673,31.1z M32.218,38.24l-1.801-4.082
				c1.026,0.007,2.954-0.065,4.252-0.714c1.256-0.628,1.98-1.76,2.327-2.452c0.336,0.244,0.864,0.533,1.663,0.762
				c0.372,0.105,0.837,0.17,1.389,0.196C38.64,35.206,35.706,37.57,32.218,38.24z"/>
			<path fill="#FFFFFF" d="M30.177,16.075c-6.402,0-11.61,5.207-11.61,11.609c0,5.074,3.389,9.645,8.242,11.114
				c0.041,0.013,0.083,0.018,0.125,0.018c0.118,0,0.234-0.048,0.317-0.139c0.111-0.121,0.144-0.296,0.083-0.449
				c-4.577-11.537-5.405-14.221-5.535-14.841c0.618-0.326,2.683-0.776,3.232-0.686c0.162,0.231,0.495,1.047,0.791,1.771
				c1.125,2.751,2.823,6.911,5.186,7.079c1.676,0.12,3.185-0.515,4.047-1.695c0.524-0.718,0.703-1.529,0.468-2.117
				c-0.357-0.895-2.008-4.659-2.595-5.996l2.587-0.647c0.564,1.343,2.612,6.133,3.579,7.293c0.421,0.506,1.147,0.815,2.157,0.922
				c0.24,0.02,0.447-0.147,0.472-0.382c0.042-0.41,0.064-0.829,0.064-1.245C41.786,21.284,36.578,16.075,30.177,16.075z
				 M40.903,28.393c-0.542-0.106-0.937-0.294-1.152-0.553c-0.847-1.017-2.876-5.696-3.588-7.414
				c-0.081-0.196-0.295-0.305-0.501-0.252l-3.44,0.859c-0.123,0.03-0.227,0.113-0.282,0.228s-0.059,0.246-0.007,0.363
				c0.023,0.054,2.367,5.381,2.789,6.436c0.102,0.255,0.029,0.753-0.364,1.29c-0.687,0.941-1.917,1.444-3.291,1.347
				c-1.829-0.13-3.535-4.305-4.451-6.547c-0.672-1.646-0.882-2.124-1.249-2.247c-0.774-0.26-3.755,0.407-4.31,0.964
				c-0.28,0.279-0.523,0.522,5.128,14.803c-4.021-1.614-6.759-5.596-6.759-9.984c0-5.927,4.822-10.749,10.75-10.749
				c5.927,0,10.749,4.822,10.749,10.749C40.926,27.921,40.918,28.157,40.903,28.393z"/>
		</g>
	</g>
	<g>
	</g>
	<g>
	</g>
	<g>
	</g>
	<g>
	</g>
	<g>
	</g>
	<g>
	</g>
	<g>
	</g>
	<g>
	</g>
	<g>
	</g>
	<g>
	</g>
	<g>
	</g>
	<g>
	</g>
	<g>
	</g>
	<g>
	</g>
	<g>
	</g>
</g>
</svg>
