<?xml version="1.0" encoding="utf-8"?>
<!-- Generator: Adobe Illustrator 16.0.0, SVG Export Plug-In . SVG Version: 6.00 Build 0)  -->
<!DOCTYPE svg PUBLIC "-//W3C//DTD SVG 1.1//EN" "http://www.w3.org/Graphics/SVG/1.1/DTD/svg11.dtd">
<svg version="1.1" id="Calque_1" xmlns="http://www.w3.org/2000/svg" xmlns:xlink="http://www.w3.org/1999/xlink" x="0px" y="0px"
	 width="104.333px" height="104.667px" viewBox="62.834 49.167 104.333 104.667"
	 enable-background="new 62.834 49.167 104.333 104.667" xml:space="preserve">
<g id="Calque_2">
</g>
<g id="Calque_1_1_">
	<circle cx="116.542" cy="95.142" r="27.542"/>
	<rect x="89" y="61" width="55" height="34"/>
	<path fill="none" stroke="#000000" stroke-width="5" stroke-miterlimit="10" d="M93.5,68.5H71.486c0,0-5.11,35.398,22.015,36.25
		V68.5z"/>
	<path fill="none" stroke="#000000" stroke-width="5" stroke-miterlimit="10" d="M139.5,68.5h22.473c0,0,4.713,35.883-22.473,36.733
		V68.5z"/>
	<rect x="85" y="59" width="63" height="3"/>
	<rect x="113" y="112" width="8" height="20"/>
	<polygon points="113,132 104.959,142 128.875,142 121,132 	"/>
	<rect x="93" y="138" width="47" height="10"/>
	<polyline points="93.014,138 85.125,148 93,148 	"/>
	<polyline points="139.801,138 148.404,148 140,148 	"/>
	<circle stroke="#FFFFFF" stroke-width="3" stroke-miterlimit="10" cx="117.294" cy="89.605" r="17.667"/>
	<g>
		<g>
			<path fill="#FFFFFF" d="M100.859,91.006c0.649,0,1.299,0,1.947,0c1.936,0,1.936-3,0-3c-0.648,0-1.298,0-1.947,0
				C98.925,88.006,98.925,91.006,100.859,91.006L100.859,91.006z"/>
		</g>
	</g>
	<g>
		<g>
			<path fill="#FFFFFF" d="M134.666,87.673c-0.723,0-1.444,0-2.166,0c-1.936,0-1.936,3,0,3c0.722,0,1.443,0,2.166,0
				C136.601,90.673,136.601,87.673,134.666,87.673L134.666,87.673z"/>
		</g>
	</g>
	<g>
		<g>
			<path fill="#FFFFFF" d="M116.334,73.34c0,0.333,0,0.667,0,1c0,1.935,3,1.935,3,0c0-0.333,0-0.667,0-1
				C119.334,71.405,116.334,71.405,116.334,73.34L116.334,73.34z"/>
		</g>
	</g>
	<g>
		<g>
			<path fill="#FFFFFF" d="M116.334,105.34c0,0.333,0,0.667,0,1c0,1.935,3,1.935,3,0c0-0.333,0-0.667,0-1
				C119.334,103.405,116.334,103.405,116.334,105.34L116.334,105.34z"/>
		</g>
	</g>
	<g>
		<g>
			<path fill="#FFFFFF" d="M119.063,88.469c0-3.115,0-6.229,0-9.344c0-1.935-3-1.935-3,0c0,3.115,0,6.229,0,9.344
				C116.063,90.403,119.063,90.403,119.063,88.469L119.063,88.469z"/>
		</g>
	</g>
	<g>
		<g>
			<path fill="#FFFFFF" d="M116.344,90.447c1.6,1.912,3.2,3.825,4.8,5.736c1.243,1.485,3.354-0.648,2.121-2.121
				c-1.6-1.912-3.2-3.824-4.8-5.736C117.222,86.84,115.111,88.975,116.344,90.447L116.344,90.447z"/>
		</g>
	</g>
	<circle stroke="#FFFFFF" stroke-miterlimit="10" cx="117.543" cy="89.356" r="1.586"/>
</g>
<g id="Calque_1_2_">
	<circle fill="#FFFFFF" stroke="#000000" stroke-width="13" stroke-miterlimit="10" cx="117.681" cy="89.368" r="17.667"/>
	<circle stroke="#FFFFFF" stroke-width="3" stroke-miterlimit="10" cx="117.678" cy="89.37" r="17.667"/>
	<g>
		<g>
			<path fill="#FFFFFF" d="M101.243,90.771c0.648,0,1.299,0,1.947,0c1.936,0,1.936-3,0-3c-0.648,0-1.299,0-1.947,0
				C99.309,87.771,99.309,90.771,101.243,90.771L101.243,90.771z"/>
		</g>
	</g>
	<g>
		<g>
			<path fill="#FFFFFF" d="M134.43,87.774c-0.723-0.003-1.443-0.005-2.166-0.008c-1.936-0.007-1.946,2.993-0.011,3
				c0.723,0.003,1.443,0.005,2.166,0.008C136.355,90.781,136.365,87.781,134.43,87.774L134.43,87.774z"/>
		</g>
	</g>
	<g>
		<g>
			<path fill="#FFFFFF" d="M116.18,73.104c0,0.334,0,0.668,0,1c0,1.936,3,1.936,3,0c0-0.332,0-0.666,0-1
				C119.18,71.171,116.18,71.171,116.18,73.104L116.18,73.104z"/>
		</g>
	</g>
	<g>
		<g>
			<path fill="#FFFFFF" d="M116.169,104.535c0.006,0.415,0.012,0.829,0.018,1.241c0.034,2.401,3.034,2.357,3-0.043
				c-0.006-0.412-0.012-0.826-0.018-1.241C119.134,102.095,116.135,102.138,116.169,104.535L116.169,104.535z"/>
		</g>
	</g>
</g>
<g>
	<path fill="#FFFFFF" d="M122.928,81.449c-0.66-0.132-1.551-0.231-2.112-0.231c-1.518,0-1.617,0.66-1.617,1.716v1.881h3.796
		l-0.33,3.895h-3.466v11.849h-4.752V88.71h-2.442v-3.895h2.442v-2.41c0-3.3,1.551-5.148,5.446-5.148c1.353,0,2.343,0.198,3.63,0.462
		L122.928,81.449z"/>
</g>
<g id="Calque_1_3_">
	<circle fill="#FFFFFF" stroke="#010101" stroke-width="13" stroke-miterlimit="10" cx="117.68" cy="89.683" r="17.667"/>
	<circle fill="#010101" stroke="#FFFFFF" stroke-width="3" stroke-miterlimit="10" cx="117.677" cy="89.685" r="17.667"/>
	<g>
		<g>
			<path fill="#FFFFFF" d="M101.242,91.085c0.648,0,1.299,0,1.947,0c1.936,0,1.936-3,0-3c-0.648,0-1.299,0-1.947,0
				C99.309,88.085,99.309,91.085,101.242,91.085L101.242,91.085z"/>
		</g>
	</g>
	<g>
		<g>
			<path fill="#FFFFFF" d="M134.429,88.089c-0.723-0.003-1.443-0.005-2.166-0.008c-1.936-0.007-1.945,2.994-0.011,3
				c0.724,0.004,1.442,0.006,2.166,0.009C136.355,91.096,136.365,88.096,134.429,88.089L134.429,88.089z"/>
		</g>
	</g>
	<g>
		<g>
			<path fill="#FFFFFF" d="M116.179,73.419c0,0.334,0,0.668,0,1c0,1.936,3,1.936,3,0c0-0.332,0-0.666,0-1
				C119.179,71.486,116.179,71.486,116.179,73.419L116.179,73.419z"/>
		</g>
	</g>
	<g>
		<g>
			<path fill="#FFFFFF" d="M116.169,104.85c0.006,0.415,0.012,0.829,0.018,1.241c0.034,2.401,3.034,2.356,3-0.043
				c-0.007-0.412-0.013-0.826-0.019-1.241C119.134,102.408,116.134,102.451,116.169,104.85L116.169,104.85z"/>
		</g>
	</g>
</g>
<g>
	<title>4chan</title>
	<desc>Created with Sketch.</desc>
	<g id="Page-1">
		<g id="_x34_chan" transform="translate(-1.000000, -1.000000)">
			<g id="_x23_006701ff" transform="translate(283.607843, 0.000000)">
				<path id="Shape" fill="#FFFFFF" d="M-161.999,79.302c0.565-0.773,1.795-0.94,2.539-0.333c0.586,0.457,0.932,1.126,1.276,1.767
					c0.202-0.362,0.503-0.706,0.931-0.788c0.586-0.127,1.143,0.217,1.563,0.593c1.057,1.021,1.465,2.672,0.969,4.062
					c-0.402,1.159-1.35,2.045-2.389,2.649c-1.422,0.854-3.059,1.232-4.661,1.59c-0.882-1.696-1.349-3.614-1.39-5.526
					C-163.141,81.917-162.901,80.423-161.999,79.302L-161.999,79.302z M-161.036,79.438c-0.666,0.34-0.994,1.065-1.188,1.75
					c-0.402,1.57-0.289,3.243,0.117,4.801c0.179,0.711,0.432,1.397,0.693,2.082c0.773-0.081,1.513-0.335,2.248-0.58
					c1.31-0.484,2.59-1.252,3.34-2.466c0.496-0.803,0.619-1.789,0.441-2.708c-0.191-0.666-0.585-1.39-1.32-1.545
					c-0.547-0.102-0.938,0.393-1.197,0.8c-0.049,0.15-0.1,0.3-0.152,0.449c-0.05,0.126-0.1,0.252-0.15,0.377
					c-0.348-0.916-0.737-1.852-1.433-2.563C-159.997,79.494-160.544,79.238-161.036,79.438L-161.036,79.438z"/>
			</g>
			<g id="_x23_61a54dff" transform="translate(298.666667, 17.568627)">
				<path id="Shape_1_" fill="#FFFFFF" d="M-176.095,61.87c0.491-0.201,1.039,0.056,1.399,0.396
					c0.694,0.712,1.085,1.647,1.433,2.563c0.051-0.125,0.1-0.251,0.15-0.377c0.093,0.17,0.18,0.345,0.3,0.498
					c0.612,0.085,1.231-0.035,1.845,0.034c0.402,0.245,0.524,0.757,0.328,1.176c-0.074-0.149-0.146-0.298-0.221-0.446
					c-0.248,0.107-0.516,0.159-0.786,0.143c-1.56-0.035-3.121,0.019-4.681-0.021c-0.285,0.01-0.613-0.1-0.867,0.072
					c-0.08,0.31-0.01,0.628,0.029,0.938c0.043,0.278,0.082,0.557,0.129,0.834c0.061,0.329,0.127,0.656,0.209,0.98
					c-0.112-0.081-0.227-0.162-0.342-0.24c-0.404-1.558-0.52-3.23-0.117-4.801C-177.087,62.936-176.761,62.21-176.095,61.87
					L-176.095,61.87z M-175.814,62.062c-0.753,0.227-1.008,1.029-1.269,1.683c-0.096,0.314-0.137,0.643-0.172,0.97
					c-0.062,0.159,0.062,0.317,0.228,0.296c1.16-0.112,2.327,0.002,3.487-0.076c-0.068-0.253-0.137-0.507-0.207-0.761l-0.063,0.013
					c-0.258-0.451-0.398-0.973-0.756-1.364C-174.878,62.442-175.277,62.024-175.814,62.062L-175.814,62.062z"/>
			</g>
			<g id="_x23_91c66eff" transform="translate(97.882353, 22.588235)">
				<path id="Shape_2_" fill="#FFFFFF" d="M24.971,57.042c0.537-0.037,0.936,0.381,1.248,0.76c0.357,0.392,0.498,0.913,0.757,1.364
					c-0.974,0.193-1.974,0.01-2.956,0.105c-0.027-0.088-0.055-0.177-0.082-0.267c-0.034,0.092-0.1,0.275-0.133,0.366
					c-0.043-0.214-0.08-0.43-0.102-0.646C23.963,58.071,24.217,57.268,24.971,57.042L24.971,57.042z"/>
				<path id="Shape_3_" fill="#FFFFFF" d="M14.233,72.062c1.015-0.709,2.127-1.313,3.328-1.627c0.415,0.693,0.719,1.459,0.982,2.227
					c-0.233-0.044-0.45-0.141-0.643-0.277c-0.507,0.236-1.074,0.108-1.613,0.133c-0.492,0.02-0.982-0.029-1.473-0.021
					c-0.316,0.049-0.624,0.146-0.942,0.185C14.029,72.497,14.162,72.295,14.233,72.062L14.233,72.062z"/>
				<path id="Shape_4_" fill="#FFFFFF" d="M23.092,71.187c1.002-0.174,1.986-0.473,3.007-0.527c0.946-0.057,1.913-0.063,2.834,0.191
					c0.737,0.184,1.517,0.453,2.009,1.064c0.223,0.236,0.12,0.579,0.104,0.867c-0.049-0.053-0.147-0.155-0.196-0.208
					c-0.8-0.101-1.608-0.067-2.413-0.068c-1.13,0.007-2.262-0.011-3.391,0.001c-0.506,0.01-1.02-0.07-1.516,0.062
					c-0.102-0.091-0.203-0.179-0.304-0.27C23.15,71.933,23.107,71.56,23.092,71.187L23.092,71.187z"/>
			</g>
			<g id="_x23_006600ff" transform="translate(0.000000, 25.098039)">
				<path id="Shape_5_" fill="#FFFFFF" d="M109.781,55.468c1.11-0.846,2.698-1.04,3.96-0.428c0.975,0.449,1.72,1.283,2.25,2.201
					c0.865,1.492,1.25,3.199,1.521,4.887c-2.155,0.952-4.562,1.449-6.91,1.088c-1.021-0.188-2.067-0.546-2.807-1.305
					c-0.464-0.469-0.712-1.211-0.417-1.834c0.399-0.894,1.315-1.366,2.146-1.784c-0.416-0.232-0.768-0.628-0.777-1.129
					C108.757,56.463,109.24,55.865,109.781,55.468L109.781,55.468z M109.883,56.268c-0.356,0.351-0.365,0.994-0.007,1.346
					c0.365,0.385,0.867,0.581,1.355,0.755c-0.999,0.316-2.042,0.715-2.763,1.51c-0.374,0.388-0.504,1.059-0.146,1.497
					c0.54,0.689,1.433,0.975,2.26,1.139c2.097,0.35,4.277-0.028,6.221-0.853c-0.251-1.563-0.726-3.13-1.659-4.43
					c-0.548-0.703-1.25-1.319-2.112-1.597C111.982,55.269,110.665,55.424,109.883,56.268L109.883,56.268z"/>
				<path id="Shape_6_" fill="#FFFFFF" d="M111.429,68.898c1.308-0.979,2.844-1.616,4.409-2.06l0.09,0.007
					c1.265,2.061,2.121,4.463,1.994,6.908c-0.077,0.985-0.307,2.021-0.957,2.799c-0.413,0.502-1.133,0.771-1.76,0.535
					c-0.869-0.308-1.47-1.072-1.928-1.838c-0.221,0.331-0.41,0.751-0.823,0.877c-0.634,0.23-1.301-0.104-1.791-0.498
					c-1.147-0.949-1.684-2.597-1.247-4.029C109.725,70.484,110.527,69.586,111.429,68.898L111.429,68.898z M111.116,70.181
					c-0.194,0.205-0.362,0.434-0.509,0.676c-0.67,1.127-0.774,2.672,0.004,3.773c0.343,0.489,0.977,0.936,1.589,0.655
					c0.574-0.354,0.738-1.07,0.848-1.688c0.553,0.894,1.019,1.92,1.941,2.5c0.47,0.322,1.215,0.313,1.57-0.176
					c0.633-0.801,0.733-1.879,0.717-2.863c-0.097-1.938-0.735-3.832-1.725-5.494C113.925,68.115,112.24,68.829,111.116,70.181
					L111.116,70.181z"/>
			</g>
			<g id="_x23_6aad56ff" transform="translate(20.078431, 42.666667)">
				<path id="Shape_7_" fill="#FFFFFF" d="M89.804,38.699c0.782-0.843,2.099-0.998,3.148-0.633c0.862,0.277,1.564,0.894,2.112,1.597
					c0.933,1.3,1.408,2.866,1.659,4.43c-1.944,0.824-4.125,1.202-6.221,0.853c-0.827-0.164-1.72-0.449-2.26-1.139
					c-0.358-0.438-0.228-1.109,0.146-1.497c0.721-0.795,1.765-1.193,2.763-1.51c-0.488-0.174-0.99-0.37-1.355-0.755
					C89.44,39.693,89.448,39.049,89.804,38.699L89.804,38.699z M90.052,38.834c-0.212,0.171-0.303,0.468-0.223,0.729
					c0.098,0.36,0.465,0.549,0.779,0.691c0.501,0.089,0.996-0.133,1.501-0.087c0.798,0.042,1.605-0.08,2.395,0.075
					c0.042-0.039,0.127-0.118,0.17-0.157c0.12,0.068,0.24,0.136,0.36,0.203c-0.407-1.042-1.42-1.764-2.477-2.043
					C91.7,38.115,90.696,38.181,90.052,38.834L90.052,38.834z M91.561,40.721c0.014,0.092,0.027,0.185,0.041,0.276
					c-0.663,0.079-1.281,0.359-1.864,0.674c-0.274,0.144-0.528,0.325-0.793,0.486c-0.252,0.21-0.458,0.467-0.627,0.747
					c-0.132,0.878,0.781,1.356,1.483,1.574c2.167,0.636,4.503,0.238,6.583-0.53c-0.047-0.322-0.102-0.644-0.16-0.963
					c-0.081-0.264-0.161-0.527-0.25-0.789c-0.036-0.139-0.072-0.277-0.108-0.418c-0.151-0.305-0.264-0.635-0.48-0.901
					c-0.646-0.254-1.329-0.007-1.995-0.062C92.782,40.794,92.159,40.891,91.561,40.721L91.561,40.721z"/>
			</g>
			<g id="_x23_5ca553ff" transform="translate(396.549020, 47.686275)">
				<path id="Shape_8_" fill="#FFFFFF" d="M-270.84,33.885c0.259-0.407,0.648-0.901,1.197-0.8c0.734,0.155,1.127,0.879,1.32,1.545
					c-0.086-0.024-0.257-0.074-0.342-0.1c-0.158-0.45-0.32-1.023-0.857-1.142c-0.446-0.151-0.836,0.196-1.117,0.496L-270.84,33.885
					L-270.84,33.885z"/>
			</g>
			<g id="_x23_91c56eff" transform="translate(57.725490, 47.686275)">
				<path id="Shape_9_" fill="#FFFFFF" d="M52.405,33.814c0.644-0.652,1.648-0.719,2.505-0.589c1.057,0.279,2.07,1.001,2.477,2.043
					c-0.12-0.066-0.24-0.135-0.359-0.202c-0.043,0.039-0.128,0.118-0.17,0.157c-0.79-0.155-1.597-0.033-2.395-0.075
					c-0.505-0.046-1,0.176-1.501,0.087c-0.314-0.143-0.681-0.331-0.779-0.691C52.102,34.281,52.193,33.985,52.405,33.814
					L52.405,33.814z"/>
			</g>
			<g id="_x23_8cc269ff" transform="translate(401.568627, 52.705882)">
				<path id="Shape_10_" fill="#FFFFFF" d="M-275.659,28.867c0.28-0.3,0.67-0.647,1.116-0.496c0.537,0.118,0.699,0.691,0.858,1.142
					c-0.586-0.304-1.239-0.081-1.861-0.193C-275.582,29.166-275.618,29.016-275.659,28.867L-275.659,28.867z"/>
			</g>
			<g id="_x23_7ab55bff" transform="translate(303.686275, 57.725490)">
				<path id="Shape_11_" fill="#FFFFFF" d="M-182.273,24.557c0.034-0.327,0.076-0.655,0.172-0.97
					c0.022,0.217,0.06,0.433,0.103,0.646c0.033-0.091,0.099-0.274,0.133-0.366c0.027,0.09,0.055,0.179,0.082,0.267
					c0.982-0.096,1.982,0.088,2.956-0.105l0.062-0.013c0.07,0.254,0.139,0.508,0.208,0.761c-1.161,0.078-2.327-0.036-3.487,0.076
					C-182.212,24.874-182.335,24.716-182.273,24.557L-182.273,24.557z"/>
			</g>
			<g id="_x23_76b258ff" transform="translate(306.196078, 65.254902)">
				<path id="Shape_12_" fill="#FFFFFF" d="M-180.487,16.318h0.201c0.041,0.149,0.078,0.3,0.113,0.452
					c0.623,0.112,1.274-0.11,1.861,0.193c0.085,0.025,0.256,0.075,0.342,0.1c0.178,0.919,0.055,1.905-0.441,2.708
					c-0.751,1.214-2.031,1.981-3.342,2.466c-0.734,0.245-1.474,0.499-2.248,0.58c-0.26-0.685-0.514-1.371-0.692-2.082
					c0.116,0.078,0.229,0.159,0.343,0.24c0.16,0.514,0.322,1.027,0.521,1.528c1.841-0.302,3.753-1.028,4.945-2.531
					c0.023-0.03,0.071-0.093,0.097-0.122c0.22-0.283,0.364-0.614,0.479-0.951c0.049-0.141,0.096-0.282,0.142-0.424
					c0.196-0.419,0.073-0.931-0.328-1.176c-0.613-0.069-1.233,0.051-1.845-0.034c-0.121-0.153-0.207-0.328-0.301-0.498
					C-180.589,16.617-180.536,16.468-180.487,16.318L-180.487,16.318z"/>
			</g>
			<g id="_x23_479437ff" transform="translate(306.196078, 100.392157)">
				<path id="Shape_13_" fill="#FFFFFF" d="M-179.173-16.966c0.271,0.017,0.537-0.035,0.785-0.143
					c0.074,0.148,0.146,0.297,0.221,0.446c-0.045,0.142-0.092,0.283-0.141,0.424c-1.531-0.107-3.07-0.012-4.604-0.048
					c-0.491,0.017-1.065-0.126-1.453,0.264c-0.015-0.056-0.043-0.167-0.058-0.223c-0.09,0.089-0.179,0.179-0.268,0.269
					c-0.04-0.31-0.109-0.628-0.029-0.938c0.252-0.172,0.582-0.063,0.867-0.072C-182.294-16.948-180.733-17.002-179.173-16.966
					L-179.173-16.966z"/>
			</g>
			<g id="_x23_4f983cff" transform="translate(55.215686, 102.901961)">
				<path id="Shape_14_" fill="#FFFFFF" d="M56.425-19.513c0.597,0.169,1.219,0.071,1.83,0.095c0.666,0.055,1.349-0.192,1.995,0.062
					c0.216,0.267,0.329,0.597,0.48,0.901c-1.12-0.209-2.274-0.041-3.408-0.091c-0.906-0.071-1.813-0.016-2.72-0.017
					c0.583-0.314,1.201-0.595,1.864-0.674C56.452-19.328,56.439-19.422,56.425-19.513L56.425-19.513z"/>
			</g>
			<g id="_x23_1f7b18ff" transform="translate(306.196078, 120.470588)">
				<path id="Shape_15_" fill="#FFFFFF" d="M-184.691-36.056c0.089-0.09,0.179-0.18,0.267-0.269
					c0.016,0.056,0.045,0.167,0.059,0.223c0.02,0.075,0.057,0.226,0.076,0.301c0.885-0.091,1.773-0.034,2.662-0.045
					c0.848,0.005,1.695-0.021,2.541,0.04c-0.019,0.127-0.035,0.255-0.053,0.382c0.108-0.071,0.219-0.143,0.328-0.213
					c0.006,0.067,0.018,0.202,0.023,0.271c-0.024,0.029-0.073,0.092-0.096,0.122c-0.14,0.022-0.278,0.042-0.418,0.062
					c-0.061-0.051-0.121-0.102-0.181-0.151c-0.043,0.042-0.131,0.125-0.174,0.167c-0.968,0.093-1.938,0.001-2.908,0.03
					c-0.668,0.028-1.334-0.024-1.999-0.085C-184.609-35.499-184.649-35.777-184.691-36.056L-184.691-36.056z"/>
			</g>
			<g id="_x23_338727ff" transform="translate(313.725490, 117.960784)">
				<path id="Shape_16_" fill="#FFFFFF" d="M-191.896-33.591c0.389-0.39,0.963-0.247,1.453-0.264
					c1.535,0.036,3.073-0.06,4.605,0.048c-0.115,0.337-0.26,0.668-0.48,0.951c-0.006-0.068-0.018-0.203-0.023-0.271
					c-0.109,0.07-0.219,0.142-0.327,0.213c0.018-0.127,0.034-0.255,0.053-0.382c-0.846-0.061-1.694-0.035-2.542-0.04
					c-0.888,0.011-1.777-0.046-2.662,0.045C-191.839-33.366-191.877-33.516-191.896-33.591L-191.896-33.591z"/>
			</g>
			<g id="_x23_348828ff" transform="translate(37.647059, 122.980392)">
				<path id="Shape_17_" fill="#FFFFFF" d="M72.17-38.642c0.907,0.001,1.814-0.055,2.72,0.017c1.134,0.05,2.288-0.118,3.408,0.091
					c0.036,0.141,0.072,0.279,0.108,0.418c-0.052,0.008-0.159,0.021-0.212,0.027c-0.031-0.034-0.096-0.1-0.128-0.133
					c-0.011,0.061-0.033,0.18-0.043,0.239c-1.625-0.134-3.257-0.02-4.885-0.067c-0.587-0.052-1.215,0.217-1.76-0.105
					C71.643-38.316,71.896-38.498,72.17-38.642L72.17-38.642z"/>
			</g>
			<g id="_x23_1d7715ff" transform="translate(25.098039, 133.019608)">
				<path id="Shape_18_" fill="#FFFFFF" d="M90.615-48.261c0.033,0.033,0.097,0.099,0.128,0.133c0.054-0.007,0.16-0.02,0.212-0.027
					c0.089,0.262,0.169,0.525,0.25,0.789c-0.315-0.118-0.651-0.115-0.982-0.092c-1.824-0.029-3.649,0.005-5.474-0.009
					c-0.483,0.004-0.967,0.065-1.45,0.02c0.169-0.28,0.375-0.537,0.627-0.747c0.544,0.322,1.172,0.054,1.76,0.105
					c1.628,0.048,3.261-0.066,4.885,0.067C90.582-48.081,90.604-48.2,90.615-48.261L90.615-48.261z"/>
			</g>
			<g id="_x23_026701ff" transform="translate(25.098039, 140.549020)">
				<path id="Shape_19_" fill="#FFFFFF" d="M101.616-55.412c0.06,0.05,0.12,0.101,0.181,0.151c0.14-0.02,0.278-0.039,0.418-0.062
					c-1.193,1.503-3.105,2.229-4.947,2.531c-0.198-0.501-0.36-1.015-0.521-1.528c-0.083-0.324-0.148-0.651-0.21-0.98
					c0.665,0.061,1.331,0.113,1.999,0.085c0.969-0.029,1.941,0.063,2.908-0.03C101.486-55.287,101.573-55.37,101.616-55.412
					L101.616-55.412z"/>
				<path id="Shape_20_" fill="#FFFFFF" d="M90.223-54.987c0.331-0.023,0.667-0.026,0.982,0.092c0.059,0.319,0.113,0.641,0.16,0.963
					c-2.08,0.769-4.416,1.166-6.583,0.53c-0.702-0.218-1.615-0.696-1.483-1.574c0.483,0.046,0.967-0.016,1.45-0.02
					C86.574-54.982,88.4-55.016,90.223-54.987L90.223-54.987z"/>
				<path id="Shape_21_" fill="#FFFFFF" d="M97.165-42.553c0.281-0.098,0.467,0.094,0.602,0.313c0.093-0.095,0.13-0.292,0.291-0.28
					c0.664-0.041,1.332,0.004,1.996-0.016c0.582-0.027,1.168,0.166,1.742,0.018c0.174,0.158,0.367,0.336,0.405,0.584
					c0.017,0.357-0.223,0.67-0.516,0.849c-0.779,0.496-1.796,0.493-2.636,0.165C98.257-41.233,97.64-41.862,97.165-42.553
					L97.165-42.553z"/>
				<path id="Shape_22_" fill="#FFFFFF" d="M88.34-41.93c0.125,0.064,0.251,0.132,0.376,0.199c0.092-0.066,0.186-0.135,0.278-0.201
					c-0.038,0.199-0.076,0.4-0.11,0.601c0.144-0.187,0.262-0.39,0.364-0.603c0.032,0.094,0.065,0.186,0.098,0.277
					c0.685-0.132,1.391-0.134,2.073,0.016c0.093-0.076,0.188-0.153,0.284-0.231c0.074,0.258,0.129,0.521,0.119,0.79
					c-0.129,0.518-0.266,1.083-0.657,1.471c-0.372,0.344-0.931,0.205-1.285-0.088c-0.684-0.546-1.146-1.316-1.536-2.087L88.34-41.93
					L88.34-41.93z"/>
			</g>
			<g id="_x23_006601ff" transform="translate(273.568627, 293.647059)">
				<path id="Shape_23_" fill="#FFFFFF" d="M-153.602-200.495c1.998-0.687,4.139-1.092,6.248-0.776
					c1.109,0.171,2.228,0.53,3.101,1.257c0.565,0.48,0.997,1.275,0.692,2.02c-0.397,0.934-1.375,1.435-2.286,1.748
					c0.278,0.25,0.597,0.504,0.688,0.887c0.125,0.5-0.113,1.016-0.439,1.386c-1.029,1.162-2.813,1.538-4.243,0.962
					c-1.146-0.452-1.979-1.45-2.522-2.525C-153.131-197.079-153.448-198.798-153.602-200.495L-153.602-200.495z M-152.932-199.964
					c0.091,0.509,0.131,1.027,0.27,1.528l-0.027,0.043l0.057,0.046c0.085,0.651,0.32,1.274,0.582,1.877
					c0.564,1.32,1.618,2.534,3.061,2.88c0.846,0.165,1.806,0.098,2.502-0.454c0.355-0.254,0.58-0.731,0.463-1.161
					c-0.279-0.632-0.939-0.959-1.557-1.181c0.982-0.226,1.977-0.578,2.76-1.229c0.461-0.371,0.711-1.064,0.365-1.595
					c-0.572-0.844-1.628-1.14-2.57-1.35C-148.998-200.893-151.063-200.659-152.932-199.964L-152.932-199.964z"/>
			</g>
			<g id="_x23_66ab5dff" transform="translate(60.235294, 301.176471)">
				<path id="Shape_24_" fill="#FFFFFF" d="M50.882-205.898c1.124-1.353,2.808-2.065,4.435-2.617
					c0.99,1.662,1.628,3.558,1.725,5.495c0.016,0.984-0.084,2.063-0.717,2.863c-0.355,0.488-1.1,0.498-1.57,0.175
					c-0.922-0.58-1.388-1.606-1.941-2.5c-0.109,0.618-0.273,1.335-0.848,1.688c-0.612,0.28-1.246-0.166-1.589-0.654
					c-0.778-1.104-0.674-2.646-0.004-3.774c0.184,0.04,0.367,0.081,0.551,0.114c-0.157,0.046-0.314,0.096-0.471,0.145
					c0.021,0.096,0.043,0.191,0.064,0.288c-0.098,0.119-0.183,0.248-0.257,0.384c-0.139,0.491-0.173,1.004-0.214,1.513
					c0.03,0.02,0.092,0.057,0.124,0.075c0.021,0.114,0.044,0.229,0.071,0.345c0.185,0.501,0.452,1.026,0.945,1.282
					c0.268,0.151,0.64,0.121,0.852-0.111c0.253-0.286,0.362-0.664,0.447-1.028c0.05-0.294,0.116-0.636,0.494-0.612
					c0.076,0.138,0.153,0.275,0.228,0.416c0.39,0.771,0.852,1.541,1.536,2.088c0.354,0.293,0.914,0.431,1.285,0.088
					c0.391-0.389,0.528-0.953,0.657-1.471c0.084-0.477,0.102-0.961,0.074-1.442c-0.027-0.315-0.06-0.632-0.113-0.942
					c-0.036-0.261-0.144-0.503-0.352-0.671c0.008-0.139,0.02-0.276,0.035-0.415c0.038-0.104,0.077-0.206,0.117-0.308
					c-0.028-0.046-0.085-0.138-0.113-0.183c-0.05-0.084-0.098-0.171-0.143-0.257c-0.263-0.767-0.567-1.532-0.982-2.227
					c-1.201,0.315-2.313,0.918-3.328,1.627c-0.347,0.21-0.584,0.543-0.833,0.853C51.006-205.73,50.923-205.842,50.882-205.898
					L50.882-205.898z"/>
			</g>
			<g id="_x23_68ac5eff" transform="translate(288.627451, 308.705882)">
				<path id="Shape_25_" fill="#FFFFFF" d="M-167.991-215.023c1.869-0.695,3.935-0.929,5.904-0.597
					c0.942,0.211,1.998,0.507,2.57,1.351c0.346,0.529,0.096,1.224-0.365,1.595c-0.783,0.651-1.777,1.004-2.76,1.229
					c0.617,0.221,1.277,0.549,1.557,1.18c0.116,0.431-0.107,0.908-0.463,1.162c-0.697,0.551-1.656,0.619-2.502,0.454
					c-1.443-0.346-2.496-1.561-3.061-2.88c0.039-0.084,0.115-0.25,0.152-0.333c0.105,0.281,0.224,0.561,0.373,0.822
					c0.068,0.112,0.145,0.223,0.221,0.33c0.476,0.689,1.092,1.319,1.885,1.633c0.841,0.328,1.857,0.33,2.636-0.166
					c0.293-0.178,0.531-0.489,0.517-0.848c-0.039-0.248-0.231-0.426-0.406-0.585c-0.363-0.262-0.778-0.439-1.197-0.588
					c0.036-0.121,0.073-0.243,0.111-0.364c0.324-0.112,0.646-0.229,0.974-0.334c0.402-0.084,0.763-0.281,1.116-0.481
					c0.363-0.213,0.911-0.304,0.995-0.792l0.034-0.1c0.019-0.287,0.121-0.631-0.103-0.867c-0.491-0.611-1.272-0.881-2.009-1.063
					c-0.92-0.255-1.889-0.248-2.834-0.192c-1.021,0.057-2.004,0.354-3.006,0.527c0.014,0.374,0.057,0.746,0.133,1.113
					c-0.05,0.081-0.152,0.24-0.202,0.322C-167.86-213.997-167.9-214.514-167.991-215.023L-167.991-215.023z"/>
			</g>
			<g id="_x23_80ba61ff" transform="translate(87.843137, 346.352941)">
				<path id="Shape_26_" fill="#FFFFFF" d="M23.44-250.851c0.249-0.31,0.486-0.643,0.833-0.853
					c-0.071,0.232-0.204,0.435-0.361,0.617c0.319-0.037,0.626-0.135,0.942-0.185c0.491-0.008,0.981,0.041,1.473,0.021
					c0.539-0.023,1.106,0.104,1.613-0.134c0.193,0.138,0.409,0.233,0.643,0.278c0.044,0.086,0.092,0.172,0.143,0.257
					c-0.913,0.044-1.824,0.098-2.738,0.084c-0.803,0.013-1.615-0.064-2.41,0.091C23.543-250.715,23.474-250.805,23.44-250.851
					L23.44-250.851z"/>
			</g>
			<g id="_x23_76b25aff" transform="translate(293.647059, 351.372549)">
				<path id="Shape_27_" fill="#FFFFFF" d="M-172.54-256.484c0.102,0.09,0.203,0.179,0.305,0.269
					c0.497-0.132,1.01-0.052,1.516-0.062c1.129-0.012,2.26,0.007,3.391,0c0.805,0,1.613-0.032,2.412,0.067
					c0.049,0.054,0.147,0.156,0.196,0.208l-0.034,0.1c-0.402,0.338-0.941,0.146-1.412,0.145c-1.633-0.055-3.268,0.005-4.899-0.033
					c-0.271-0.013-0.535,0.041-0.788,0.131c-0.158-0.033-0.316-0.067-0.475-0.105c-0.127-0.104-0.254-0.205-0.383-0.307
					l-0.056-0.047l0.026-0.043C-172.69-256.242-172.589-256.404-172.54-256.484L-172.54-256.484z"/>
			</g>
			<g id="_x23_70af59ff" transform="translate(72.784314, 358.901961)">
				<path id="Shape_28_" fill="#FFFFFF" d="M37.824-262.949c0.147-0.241,0.315-0.47,0.509-0.676
					c0.041,0.057,0.124,0.168,0.166,0.226c0.034,0.045,0.103,0.135,0.137,0.179c0.795-0.155,1.607-0.078,2.41-0.091
					c0.914,0.014,1.825-0.04,2.738-0.084c0.028,0.045,0.085,0.136,0.113,0.182c-0.04,0.103-0.08,0.205-0.117,0.308
					c-1.181,0.117-2.37,0.028-3.555,0.055c-0.617,0.033-1.238-0.111-1.85,0.02C38.19-262.867,38.006-262.908,37.824-262.949
					L37.824-262.949z"/>
			</g>
			<g id="_x23_64a750ff" transform="translate(293.647059, 358.901961)">
				<path id="Shape_29_" fill="#FFFFFF" d="M-172.712-263.602c0.129,0.102,0.256,0.203,0.383,0.307
					c0.158,0.038,0.316,0.072,0.475,0.106c0.253-0.09,0.52-0.145,0.788-0.131c1.633,0.037,3.269-0.021,4.899,0.033
					c0.471,0,1.01,0.193,1.412-0.146c-0.084,0.487-0.632,0.579-0.996,0.792c-0.137-0.066-0.261-0.176-0.416-0.189
					c-1.932-0.061-3.871,0.07-5.797-0.074c-0.105,0.026-0.203,0.076-0.293,0.143c0.071,0.17,0.141,0.341,0.209,0.514
					c0.017,0.049,0.053,0.143,0.07,0.189c-0.039,0.083-0.115,0.249-0.152,0.333C-172.391-262.326-172.626-262.951-172.712-263.602
					L-172.712-263.602z"/>
			</g>
			<g id="_x23_60a54bff" transform="translate(75.294118, 373.960784)">
				<path id="Shape_30_" fill="#FFFFFF" d="M35.865-277.892c0.612-0.13,1.233,0.016,1.85-0.02c1.185-0.024,2.374,0.063,3.555-0.053
					c-0.015,0.137-0.027,0.275-0.035,0.414c-0.576,0.172-1.181,0.096-1.771,0.104c-1.335-0.015-2.67,0.024-4.005-0.015
					c-0.021-0.098-0.043-0.192-0.064-0.289C35.551-277.797,35.708-277.847,35.865-277.892L35.865-277.892z"/>
			</g>
			<g id="_x23_50993dff" transform="translate(303.686275, 373.960784)">
				<path id="Shape_31_" fill="#FFFFFF" d="M-182.003-277.963c1.927,0.146,3.867,0.016,5.797,0.075
					c0.156,0.015,0.279,0.122,0.416,0.189c-0.353,0.2-0.713,0.397-1.115,0.481c-0.334-0.266-0.773-0.192-1.168-0.199
					c-1.051,0.028-2.1-0.013-3.15,0.023c-0.24,0.012-0.48-0.021-0.713-0.084c-0.039,0.041-0.113,0.127-0.15,0.169
					c-0.066-0.173-0.137-0.344-0.207-0.514C-182.206-277.887-182.109-277.935-182.003-277.963L-182.003-277.963z"/>
			</g>
			<g id="_x23_549a40ff" transform="translate(70.274510, 384.000000)">
				<path id="Shape_32_" fill="#FFFFFF" d="M44.483-287.484c0.591-0.01,1.196,0.066,1.771-0.104c0.208,0.168,0.315,0.41,0.352,0.67
					c-0.09-0.061-0.183-0.135-0.298-0.111c-1.347,0.077-2.697,0.018-4.046,0.033c-0.681-0.021-1.379,0.09-2.041-0.118
					c0.074-0.136,0.159-0.265,0.257-0.384C41.814-287.459,43.148-287.498,44.483-287.484L44.483-287.484z"/>
			</g>
			<g id="_x23_398a2bff" transform="translate(308.705882, 384.000000)">
				<path id="Shape_33_" fill="#FFFFFF" d="M-186.956-287.514c0.232,0.063,0.473,0.096,0.713,0.084c1.05-0.037,2.1,0.004,3.15-0.023
					c0.395,0.006,0.834-0.066,1.168,0.197c-0.328,0.104-0.649,0.223-0.975,0.334c-0.038,0.123-0.074,0.244-0.111,0.365
					c-0.881-0.06-1.765-0.021-2.646-0.031c-0.336,0.043-0.759-0.03-1.008,0.256c-0.15-0.264-0.269-0.542-0.373-0.823
					c-0.019-0.048-0.054-0.142-0.071-0.188C-187.069-287.387-186.995-287.473-186.956-287.514L-186.956-287.514z"/>
			</g>
			<g id="_x23_3e8e2fff" transform="translate(65.254902, 394.039216)">
				<path id="Shape_34_" fill="#FFFFFF" d="M45.24-297.154c0.662,0.208,1.36,0.098,2.041,0.118c1.349-0.017,2.699,0.044,4.046-0.033
					c0.115-0.022,0.208,0.052,0.298,0.112c0.054,0.313,0.086,0.627,0.113,0.941c-0.106-0.021-0.212-0.043-0.319-0.065
					c-0.027-0.111-0.054-0.222-0.081-0.331c-0.166,0.115-0.35,0.215-0.559,0.195c-1.818,0.006-3.638-0.059-5.454,0.039
					c-0.006-0.159-0.012-0.317-0.017-0.478c-0.111,0.353-0.154,0.72-0.16,1.087c-0.032-0.019-0.094-0.056-0.124-0.074
					C45.068-296.151,45.102-296.663,45.24-297.154L45.24-297.154z"/>
			</g>
			<g id="_x23_207c19ff" transform="translate(67.764706, 404.078431)">
				<path id="Shape_35_" fill="#FFFFFF" d="M42.642-305.606c0.005-0.369,0.049-0.735,0.16-1.088
					c0.004,0.159,0.011,0.317,0.017,0.478c1.816-0.097,3.635-0.033,5.454-0.038c0.209,0.02,0.393-0.081,0.559-0.196
					c0.027,0.11,0.054,0.22,0.081,0.331c0.106,0.021,0.212,0.044,0.319,0.066c0.028,0.48,0.01,0.967-0.074,1.441
					c0.01-0.269-0.045-0.531-0.119-0.789c-0.096,0.077-0.19,0.154-0.284,0.231c-0.682-0.149-1.389-0.147-2.073-0.017
					c-0.033-0.092-0.066-0.185-0.098-0.276c-0.103,0.212-0.221,0.416-0.364,0.603c0.034-0.199,0.072-0.4,0.11-0.601
					c-0.092,0.065-0.186,0.134-0.278,0.201c-0.125-0.068-0.251-0.136-0.376-0.2l0.004,0.145c-0.075-0.142-0.152-0.279-0.228-0.418
					c-0.378-0.021-0.444,0.319-0.494,0.613c-0.05-0.056-0.151-0.165-0.2-0.22c-0.533-0.058-1.071-0.011-1.606-0.048
					c-0.16-0.024-0.303,0.051-0.438,0.125C42.686-305.376,42.662-305.492,42.642-305.606L42.642-305.606z"/>
			</g>
			<g id="_x23_177612ff" transform="translate(318.745098, 404.078431)">
				<path id="Shape_36_" fill="#FFFFFF" d="M-196.702-306.411c0.249-0.286,0.671-0.213,1.008-0.255
					c0.883,0.01,1.766-0.027,2.646,0.031c0.419,0.146,0.832,0.326,1.197,0.588c-0.576,0.148-1.162-0.044-1.742-0.018
					c-0.666,0.021-1.332-0.025-1.996,0.016c-0.161-0.012-0.198,0.188-0.291,0.281c-0.135-0.221-0.32-0.411-0.602-0.314
					C-196.558-306.19-196.634-306.299-196.702-306.411L-196.702-306.411z"/>
			</g>
			<g id="_x23_026703ff" transform="translate(70.274510, 431.686275)">
				<path id="Shape_37_" fill="#FFFFFF" d="M40.203-332.87c0.135-0.074,0.278-0.149,0.438-0.125c0.535,0.037,1.073-0.01,1.606,0.048
					c0.049,0.055,0.149,0.163,0.2,0.22c-0.085,0.364-0.194,0.742-0.447,1.027c-0.211,0.233-0.584,0.265-0.852,0.113
					C40.654-331.844,40.387-332.37,40.203-332.87L40.203-332.87z"/>
			</g>
		</g>
	</g>
</g>
<path fill="#FFFFFF" d="M108.266,80.958c0,0,4.681-6.332,7.741,4.887c0,0-12.346,3.676-7.377-3.334
	c4.969-7.01-0.103-0.121-0.103-0.121l-0.272-0.592L108.266,80.958z"/>
<polygon fill="#FFFFFF" points="108.629,82.512 107.111,83.998 106.754,84.654 107.111,85.506 108.025,85.752 "/>
<polygon fill="#FFFFFF" points="109.689,86.809 113.973,86.742 114.754,86.463 115.159,85.689 114.317,84.846 "/>
<polygon fill="#FFFFFF" points="124.128,80.039 123.859,79.034 123.035,78.367 122.004,78.002 120.506,78.781 119.88,81.954 
	120.39,85.506 120.599,87.072 121.262,87.432 122.879,86.758 124.535,86.284 125.66,85.752 126.885,84.137 127.597,82.721 
	127.597,81.318 126.885,79.659 125.894,79.314 124.91,79.547 "/>
<polygon fill="#FFFFFF" points="126.408,96.408 126.885,97.472 126.312,98.859 125.316,99.408 123.97,99.408 122.566,99.136 
	121.262,98.158 120.506,97.158 119.976,95.746 119.449,94.371 119.316,93.146 119.316,92.377 120.134,92.217 121.262,91.814 
	122.785,91.66 124.566,91.66 125.781,91.938 127.597,92.377 128.273,93.294 128.597,94.371 128.096,95.238 127.029,96.105 "/>
<polygon fill="#FFFFFF" points="116.513,98.467 115.859,99.547 115.425,100.416 113.848,100.596 113.09,99.9 112.425,99.136 
	111.882,98.467 111.728,99.531 110.129,99.531 109.281,98.859 108.818,97.914 108.629,96.666 108.818,95.371 109.689,94.166 
	110.599,93.502 111.539,92.658 113.09,91.938 114.567,91.471 115.425,92.217 116.007,94.279 116.513,95.582 116.513,98.221 "/>
</svg>
