<?xml version="1.0" encoding="utf-8"?>
<!-- Generator: Adobe Illustrator 16.0.0, SVG Export Plug-In . SVG Version: 6.00 Build 0)  -->
<!DOCTYPE svg PUBLIC "-//W3C//DTD SVG 1.1//EN" "http://www.w3.org/Graphics/SVG/1.1/DTD/svg11.dtd">
<svg version="1.1" id="Calque_1" xmlns="http://www.w3.org/2000/svg" xmlns:xlink="http://www.w3.org/1999/xlink" x="0px" y="0px"
	 width="104.333px" height="104.667px" viewBox="62.834 49.167 104.333 104.667"
	 enable-background="new 62.834 49.167 104.333 104.667" xml:space="preserve">
<g id="Calque_2">
</g>
<g id="Calque_1_1_">
	<circle cx="116.542" cy="95.142" r="27.542"/>
	<rect x="89" y="61" width="55" height="34"/>
	<path fill="none" stroke="#000000" stroke-width="5" stroke-miterlimit="10" d="M93.5,68.5H71.486c0,0-5.11,35.398,22.015,36.25
		V68.5z"/>
	<path fill="none" stroke="#000000" stroke-width="5" stroke-miterlimit="10" d="M139.5,68.5h22.473c0,0,4.713,35.883-22.473,36.733
		V68.5z"/>
	<rect x="85" y="59" width="63" height="3"/>
	<rect x="113" y="112" width="8" height="20"/>
	<polygon points="113,132 104.959,142 128.875,142 121,132 	"/>
	<rect x="93" y="138" width="47" height="10"/>
	<polyline points="93.014,138 85.125,148 93,148 	"/>
	<polyline points="139.801,138 148.404,148 140,148 	"/>
	<circle stroke="#FFFFFF" stroke-width="3" stroke-miterlimit="10" cx="117.294" cy="89.605" r="17.667"/>
	<g>
		<g>
			<path fill="#FFFFFF" d="M100.859,91.006c0.649,0,1.299,0,1.947,0c1.936,0,1.936-3,0-3c-0.648,0-1.298,0-1.947,0
				C98.925,88.006,98.925,91.006,100.859,91.006L100.859,91.006z"/>
		</g>
	</g>
	<g>
		<g>
			<path fill="#FFFFFF" d="M134.666,87.673c-0.723,0-1.444,0-2.166,0c-1.936,0-1.936,3,0,3c0.722,0,1.443,0,2.166,0
				C136.601,90.673,136.601,87.673,134.666,87.673L134.666,87.673z"/>
		</g>
	</g>
	<g>
		<g>
			<path fill="#FFFFFF" d="M116.334,73.34c0,0.333,0,0.667,0,1c0,1.935,3,1.935,3,0c0-0.333,0-0.667,0-1
				C119.334,71.405,116.334,71.405,116.334,73.34L116.334,73.34z"/>
		</g>
	</g>
	<g>
		<g>
			<path fill="#FFFFFF" d="M116.334,105.34c0,0.333,0,0.667,0,1c0,1.935,3,1.935,3,0c0-0.333,0-0.667,0-1
				C119.334,103.405,116.334,103.405,116.334,105.34L116.334,105.34z"/>
		</g>
	</g>
	<g>
		<g>
			<path fill="#FFFFFF" d="M119.063,88.469c0-3.115,0-6.229,0-9.344c0-1.935-3-1.935-3,0c0,3.115,0,6.229,0,9.344
				C116.063,90.403,119.063,90.403,119.063,88.469L119.063,88.469z"/>
		</g>
	</g>
	<g>
		<g>
			<path fill="#FFFFFF" d="M116.344,90.447c1.6,1.912,3.2,3.825,4.8,5.736c1.243,1.485,3.354-0.648,2.121-2.121
				c-1.6-1.912-3.2-3.824-4.8-5.736C117.222,86.84,115.111,88.975,116.344,90.447L116.344,90.447z"/>
		</g>
	</g>
	<circle stroke="#FFFFFF" stroke-miterlimit="10" cx="117.543" cy="89.356" r="1.586"/>
</g>
<g id="Calque_1_2_">
	<circle fill="#FFFFFF" stroke="#000000" stroke-width="13" stroke-miterlimit="10" cx="117.681" cy="89.368" r="17.667"/>
	<circle stroke="#FFFFFF" stroke-width="3" stroke-miterlimit="10" cx="117.678" cy="89.37" r="17.667"/>
	<g>
		<g>
			<path fill="#FFFFFF" d="M101.243,90.771c0.648,0,1.299,0,1.947,0c1.936,0,1.936-3,0-3c-0.648,0-1.299,0-1.947,0
				C99.309,87.771,99.309,90.771,101.243,90.771L101.243,90.771z"/>
		</g>
	</g>
	<g>
		<g>
			<path fill="#FFFFFF" d="M134.43,87.774c-0.723-0.003-1.443-0.005-2.166-0.008c-1.936-0.007-1.946,2.993-0.011,3
				c0.723,0.003,1.443,0.005,2.166,0.008C136.355,90.781,136.365,87.781,134.43,87.774L134.43,87.774z"/>
		</g>
	</g>
	<g>
		<g>
			<path fill="#FFFFFF" d="M116.18,73.104c0,0.334,0,0.668,0,1c0,1.936,3,1.936,3,0c0-0.332,0-0.666,0-1
				C119.18,71.171,116.18,71.171,116.18,73.104L116.18,73.104z"/>
		</g>
	</g>
	<g>
		<g>
			<path fill="#FFFFFF" d="M116.169,104.535c0.006,0.415,0.012,0.829,0.018,1.241c0.034,2.401,3.034,2.357,3-0.043
				c-0.006-0.412-0.012-0.826-0.018-1.241C119.134,102.095,116.135,102.138,116.169,104.535L116.169,104.535z"/>
		</g>
	</g>
</g>
<g>
	<path fill="#FFFFFF" d="M122.928,81.449c-0.66-0.132-1.551-0.231-2.112-0.231c-1.518,0-1.617,0.66-1.617,1.716v1.881h3.796
		l-0.33,3.895h-3.466v11.849h-4.752V88.71h-2.442v-3.895h2.442v-2.41c0-3.3,1.551-5.148,5.446-5.148c1.353,0,2.343,0.198,3.63,0.462
		L122.928,81.449z"/>
</g>
<g>
	<g id="Calque_1_3_">
		<circle fill="#FFFFFF" stroke="#010101" stroke-width="13" stroke-miterlimit="10" cx="117.681" cy="89.27" r="17.667"/>
		<circle fill="#010101" stroke="#FFFFFF" stroke-width="3" stroke-miterlimit="10" cx="117.678" cy="89.271" r="17.667"/>
		<g>
			<g>
				<path fill="#FFFFFF" d="M101.243,90.671c0.648,0,1.299,0,1.947,0c1.936,0,1.936-3,0-3c-0.648,0-1.299,0-1.947,0
					C99.309,87.671,99.309,90.671,101.243,90.671L101.243,90.671z"/>
			</g>
		</g>
		<g>
			<g>
				<path fill="#FFFFFF" d="M134.43,87.676c-0.723-0.003-1.443-0.005-2.166-0.008c-1.936-0.007-1.946,2.993-0.011,3
					c0.723,0.003,1.443,0.005,2.166,0.008C136.355,90.683,136.365,87.683,134.43,87.676L134.43,87.676z"/>
			</g>
		</g>
		<g>
			<g>
				<path fill="#FFFFFF" d="M116.18,73.005c0,0.334,0,0.668,0,1c0,1.936,3,1.936,3,0c0-0.332,0-0.666,0-1
					C119.18,71.073,116.18,71.073,116.18,73.005L116.18,73.005z"/>
			</g>
		</g>
		<g>
			<g>
				<path fill="#FFFFFF" d="M116.169,104.437c0.006,0.415,0.012,0.829,0.018,1.241c0.034,2.401,3.034,2.357,3-0.043
					c-0.006-0.412-0.012-0.826-0.018-1.241C119.134,101.996,116.134,102.039,116.169,104.437L116.169,104.437z"/>
			</g>
		</g>
	</g>
	<g>
		<path fill="#FFFFFF" d="M126.93,81.18l-0.07-0.176c-0.001-0.005-0.005-0.011-0.01-0.012l-0.173-0.078
			c-1.419-0.646-3.422-0.804-5.196-0.875h-1.997c-0.023,0-0.03,0.032-0.009,0.04l4.1,1.969c0.024,0.01,0.01,0.043-0.014,0.037
			c-1.845-0.481-3.708-0.726-5.547-0.726c-1.834,0-3.691,0.242-5.529,0.721c-0.025,0.006-0.039-0.028-0.014-0.04l4.244-1.961
			c0.02-0.008,0.015-0.04-0.008-0.04h-2.159c-1.772,0.071-3.776,0.229-5.196,0.875l-0.173,0.078
			c-0.005,0.003-0.008,0.007-0.01,0.012l-0.069,0.179c-1.454,3.682-1.868,9.935-1.426,13.85l0.023,0.207l0.163,0.127
			c2.27,1.76,5.307,2.665,7.217,2.906l0.247,0.029c0.081,0.011,0.157-0.034,0.186-0.11l1.242-3.323
			c0.039-0.101-0.027-0.216-0.136-0.233l-0.381-0.059c-1.33-0.208-3.215-0.762-4.807-2.207c-0.035-0.032-0.002-0.087,0.041-0.071
			c0.129,0.048,0.271,0.104,0.419,0.161c0.36,0.141,0.732,0.287,0.976,0.343c1.708,0.407,3.44,0.614,5.152,0.614v-0.032h0.003v0.032
			c1.708,0,3.44-0.207,5.148-0.614c0.243-0.056,0.616-0.202,0.976-0.343c0.147-0.057,0.289-0.113,0.419-0.161
			c0.042-0.016,0.076,0.039,0.042,0.071c-1.588,1.438-3.475,1.99-4.808,2.197l-0.382,0.062c-0.109,0.018-0.175,0.13-0.137,0.231
			l1.243,3.332c0.029,0.076,0.106,0.121,0.187,0.11l0.247-0.029c1.91-0.241,4.946-1.146,7.216-2.906l0.164-0.127l0.023-0.207
			C128.796,91.118,128.383,84.865,126.93,81.18z M113.956,90.222c-1.543,0.14-2.833-1.148-2.695-2.692
			c0.106-1.184,1.059-2.136,2.243-2.242c1.544-0.137,2.833,1.148,2.695,2.693C116.094,89.164,115.14,90.118,113.956,90.222z
			 M122.525,90.222c-1.544,0.14-2.832-1.148-2.695-2.692c0.106-1.184,1.059-2.136,2.242-2.242c1.543-0.137,2.833,1.148,2.695,2.693
			C124.661,89.164,123.709,90.118,122.525,90.222z"/>
		<g>
		</g>
		<g>
		</g>
		<g>
		</g>
		<g>
		</g>
		<g>
		</g>
		<g>
		</g>
		<g>
		</g>
		<g>
		</g>
		<g>
		</g>
		<g>
		</g>
		<g>
		</g>
		<g>
		</g>
		<g>
		</g>
		<g>
		</g>
		<g>
		</g>
	</g>
</g>
</svg>
