<?xml version="1.0" encoding="utf-8"?>
<!-- Generator: Adobe Illustrator 16.0.0, SVG Export Plug-In . SVG Version: 6.00 Build 0)  -->
<!DOCTYPE svg PUBLIC "-//W3C//DTD SVG 1.1//EN" "http://www.w3.org/Graphics/SVG/1.1/DTD/svg11.dtd">
<svg version="1.1" id="Calque_1" xmlns="http://www.w3.org/2000/svg" xmlns:xlink="http://www.w3.org/1999/xlink" x="0px" y="0px"
	 width="104.333px" height="104.667px" viewBox="62.834 49.167 104.333 104.667"
	 enable-background="new 62.834 49.167 104.333 104.667" xml:space="preserve">
<g id="Calque_2">
</g>
<g id="Calque_1_1_">
	<circle cx="116.542" cy="95.142" r="27.542"/>
	<rect x="89" y="61" width="55" height="34"/>
	<path fill="none" stroke="#000000" stroke-width="5" stroke-miterlimit="10" d="M93.5,68.5H71.486c0,0-5.11,35.398,22.015,36.25
		V68.5z"/>
	<path fill="none" stroke="#000000" stroke-width="5" stroke-miterlimit="10" d="M139.5,68.5h22.473c0,0,4.713,35.883-22.473,36.733
		V68.5z"/>
	<rect x="85" y="59" width="63" height="3"/>
	<rect x="113" y="112" width="8" height="20"/>
	<polygon points="113,132 104.959,142 128.875,142 121,132 	"/>
	<rect x="93" y="138" width="47" height="10"/>
	<polyline points="93.014,138 85.125,148 93,148 	"/>
	<polyline points="139.801,138 148.404,148 140,148 	"/>
	<circle stroke="#FFFFFF" stroke-width="3" stroke-miterlimit="10" cx="117.294" cy="89.605" r="17.667"/>
	<g>
		<g>
			<path fill="#FFFFFF" d="M100.859,91.006c0.649,0,1.299,0,1.947,0c1.936,0,1.936-3,0-3c-0.648,0-1.298,0-1.947,0
				C98.925,88.006,98.925,91.006,100.859,91.006L100.859,91.006z"/>
		</g>
	</g>
	<g>
		<g>
			<path fill="#FFFFFF" d="M134.666,87.673c-0.723,0-1.444,0-2.166,0c-1.936,0-1.936,3,0,3c0.722,0,1.443,0,2.166,0
				C136.601,90.673,136.601,87.673,134.666,87.673L134.666,87.673z"/>
		</g>
	</g>
	<g>
		<g>
			<path fill="#FFFFFF" d="M116.334,73.34c0,0.333,0,0.667,0,1c0,1.935,3,1.935,3,0c0-0.333,0-0.667,0-1
				C119.334,71.405,116.334,71.405,116.334,73.34L116.334,73.34z"/>
		</g>
	</g>
	<g>
		<g>
			<path fill="#FFFFFF" d="M116.334,105.34c0,0.333,0,0.667,0,1c0,1.935,3,1.935,3,0c0-0.333,0-0.667,0-1
				C119.334,103.405,116.334,103.405,116.334,105.34L116.334,105.34z"/>
		</g>
	</g>
	<g>
		<g>
			<path fill="#FFFFFF" d="M119.063,88.469c0-3.115,0-6.229,0-9.344c0-1.935-3-1.935-3,0c0,3.115,0,6.229,0,9.344
				C116.063,90.403,119.063,90.403,119.063,88.469L119.063,88.469z"/>
		</g>
	</g>
	<g>
		<g>
			<path fill="#FFFFFF" d="M116.344,90.447c1.6,1.912,3.2,3.825,4.8,5.736c1.243,1.485,3.354-0.648,2.121-2.121
				c-1.6-1.912-3.2-3.824-4.8-5.736C117.222,86.84,115.111,88.975,116.344,90.447L116.344,90.447z"/>
		</g>
	</g>
	<circle stroke="#FFFFFF" stroke-miterlimit="10" cx="117.543" cy="89.356" r="1.586"/>
</g>
<g id="Calque_1_2_">
	<circle fill="#FFFFFF" stroke="#000000" stroke-width="13" stroke-miterlimit="10" cx="117.681" cy="89.368" r="17.667"/>
	<circle stroke="#FFFFFF" stroke-width="3" stroke-miterlimit="10" cx="117.678" cy="89.37" r="17.667"/>
	<g>
		<g>
			<path fill="#FFFFFF" d="M101.243,90.771c0.648,0,1.299,0,1.947,0c1.936,0,1.936-3,0-3c-0.648,0-1.299,0-1.947,0
				C99.309,87.771,99.309,90.771,101.243,90.771L101.243,90.771z"/>
		</g>
	</g>
	<g>
		<g>
			<path fill="#FFFFFF" d="M134.43,87.774c-0.723-0.003-1.443-0.005-2.166-0.008c-1.936-0.007-1.946,2.993-0.011,3
				c0.723,0.003,1.443,0.005,2.166,0.008C136.355,90.781,136.365,87.781,134.43,87.774L134.43,87.774z"/>
		</g>
	</g>
	<g>
		<g>
			<path fill="#FFFFFF" d="M116.18,73.104c0,0.334,0,0.668,0,1c0,1.936,3,1.936,3,0c0-0.332,0-0.666,0-1
				C119.18,71.171,116.18,71.171,116.18,73.104L116.18,73.104z"/>
		</g>
	</g>
	<g>
		<g>
			<path fill="#FFFFFF" d="M116.169,104.535c0.006,0.415,0.012,0.829,0.018,1.241c0.034,2.401,3.034,2.357,3-0.043
				c-0.006-0.412-0.012-0.826-0.018-1.241C119.134,102.095,116.135,102.138,116.169,104.535L116.169,104.535z"/>
		</g>
	</g>
</g>
<g>
	<g>
		<g>
			<path fill="#FFFFFF" d="M130.846,82.604c-0.958,0.425-1.985,0.712-3.065,0.841c1.103-0.66,1.947-1.708,2.347-2.952
				c-1.034,0.611-2.176,1.056-3.392,1.296c-0.974-1.039-2.36-1.687-3.896-1.687c-2.948,0-5.339,2.391-5.339,5.337
				c0,0.418,0.047,0.826,0.138,1.217c-4.436-0.223-8.37-2.348-11.003-5.578c-0.46,0.787-0.722,1.705-0.722,2.683
				c0,1.853,0.943,3.487,2.374,4.443c-0.875-0.029-1.698-0.27-2.418-0.67v0.067c0,2.585,1.841,4.743,4.282,5.234
				c-0.447,0.121-0.919,0.187-1.407,0.187c-0.345,0-0.678-0.034-1.005-0.099c0.68,2.122,2.65,3.666,4.986,3.708
				c-1.826,1.431-4.129,2.281-6.63,2.281c-0.431,0-0.855-0.026-1.273-0.073c2.363,1.518,5.168,2.402,8.183,2.402
				c9.82,0,15.188-8.135,15.188-15.189l-0.018-0.691C129.225,84.614,130.133,83.674,130.846,82.604z"/>
		</g>
	</g>
	<g>
	</g>
	<g>
	</g>
	<g>
	</g>
	<g>
	</g>
	<g>
	</g>
	<g>
	</g>
	<g>
	</g>
	<g>
	</g>
	<g>
	</g>
	<g>
	</g>
	<g>
	</g>
	<g>
	</g>
	<g>
	</g>
	<g>
	</g>
	<g>
	</g>
</g>
</svg>
