<?xml version="1.0" encoding="utf-8"?>
<!-- Generator: Adobe Illustrator 16.0.0, SVG Export Plug-In . SVG Version: 6.00 Build 0)  -->
<!DOCTYPE svg PUBLIC "-//W3C//DTD SVG 1.1//EN" "http://www.w3.org/Graphics/SVG/1.1/DTD/svg11.dtd">
<svg version="1.1" id="Calque_1" xmlns="http://www.w3.org/2000/svg" xmlns:xlink="http://www.w3.org/1999/xlink" x="0px" y="0px"
	 width="104.333px" height="104.667px" viewBox="62.834 49.167 104.333 104.667"
	 enable-background="new 62.834 49.167 104.333 104.667" xml:space="preserve">
<g id="Calque_2">
</g>
<g id="Calque_1_1_">
	<circle cx="116.542" cy="95.142" r="27.542"/>
	<rect x="89" y="61" width="55" height="34"/>
	<path fill="none" stroke="#000000" stroke-width="5" stroke-miterlimit="10" d="M93.5,68.5H71.486c0,0-5.11,35.398,22.015,36.25
		V68.5z"/>
	<path fill="none" stroke="#000000" stroke-width="5" stroke-miterlimit="10" d="M139.5,68.5h22.473c0,0,4.713,35.883-22.473,36.733
		V68.5z"/>
	<rect x="85" y="59" width="63" height="3"/>
	<rect x="113" y="112" width="8" height="20"/>
	<polygon points="113,132 104.959,142 128.875,142 121,132 	"/>
	<rect x="93" y="138" width="47" height="10"/>
	<polyline points="93.014,138 85.125,148 93,148 	"/>
	<polyline points="139.801,138 148.404,148 140,148 	"/>
	<circle stroke="#FFFFFF" stroke-width="3" stroke-miterlimit="10" cx="117.294" cy="89.605" r="17.667"/>
	<g>
		<g>
			<path fill="#FFFFFF" d="M100.859,91.006c0.649,0,1.299,0,1.947,0c1.936,0,1.936-3,0-3c-0.648,0-1.298,0-1.947,0
				C98.925,88.006,98.925,91.006,100.859,91.006L100.859,91.006z"/>
		</g>
	</g>
	<g>
		<g>
			<path fill="#FFFFFF" d="M134.666,87.673c-0.723,0-1.444,0-2.166,0c-1.936,0-1.936,3,0,3c0.722,0,1.443,0,2.166,0
				C136.601,90.673,136.601,87.673,134.666,87.673L134.666,87.673z"/>
		</g>
	</g>
	<g>
		<g>
			<path fill="#FFFFFF" d="M116.334,73.34c0,0.333,0,0.667,0,1c0,1.935,3,1.935,3,0c0-0.333,0-0.667,0-1
				C119.334,71.405,116.334,71.405,116.334,73.34L116.334,73.34z"/>
		</g>
	</g>
	<g>
		<g>
			<path fill="#FFFFFF" d="M116.334,105.34c0,0.333,0,0.667,0,1c0,1.935,3,1.935,3,0c0-0.333,0-0.667,0-1
				C119.334,103.405,116.334,103.405,116.334,105.34L116.334,105.34z"/>
		</g>
	</g>
	<g>
		<g>
			<path fill="#FFFFFF" d="M119.063,88.469c0-3.115,0-6.229,0-9.344c0-1.935-3-1.935-3,0c0,3.115,0,6.229,0,9.344
				C116.063,90.403,119.063,90.403,119.063,88.469L119.063,88.469z"/>
		</g>
	</g>
	<g>
		<g>
			<path fill="#FFFFFF" d="M116.344,90.447c1.6,1.912,3.2,3.825,4.8,5.736c1.243,1.485,3.354-0.648,2.121-2.121
				c-1.6-1.912-3.2-3.824-4.8-5.736C117.222,86.84,115.111,88.975,116.344,90.447L116.344,90.447z"/>
		</g>
	</g>
	<circle stroke="#FFFFFF" stroke-miterlimit="10" cx="117.543" cy="89.356" r="1.586"/>
</g>
<g id="Calque_1_2_">
	<circle fill="#FFFFFF" stroke="#000000" stroke-width="13" stroke-miterlimit="10" cx="117.681" cy="89.368" r="17.667"/>
	<circle stroke="#FFFFFF" stroke-width="3" stroke-miterlimit="10" cx="117.678" cy="89.37" r="17.667"/>
	<g>
		<g>
			<path fill="#FFFFFF" d="M101.243,90.771c0.648,0,1.299,0,1.947,0c1.936,0,1.936-3,0-3c-0.648,0-1.299,0-1.947,0
				C99.309,87.771,99.309,90.771,101.243,90.771L101.243,90.771z"/>
		</g>
	</g>
	<g>
		<g>
			<path fill="#FFFFFF" d="M134.43,87.774c-0.723-0.003-1.443-0.005-2.166-0.008c-1.936-0.007-1.946,2.993-0.011,3
				c0.723,0.003,1.443,0.005,2.166,0.008C136.355,90.781,136.365,87.781,134.43,87.774L134.43,87.774z"/>
		</g>
	</g>
	<g>
		<g>
			<path fill="#FFFFFF" d="M116.18,73.104c0,0.334,0,0.668,0,1c0,1.936,3,1.936,3,0c0-0.332,0-0.666,0-1
				C119.18,71.171,116.18,71.171,116.18,73.104L116.18,73.104z"/>
		</g>
	</g>
	<g>
		<g>
			<path fill="#FFFFFF" d="M116.169,104.535c0.006,0.415,0.012,0.829,0.018,1.241c0.034,2.401,3.034,2.357,3-0.043
				c-0.006-0.412-0.012-0.826-0.018-1.241C119.134,102.095,116.135,102.138,116.169,104.535L116.169,104.535z"/>
		</g>
	</g>
</g>
<g>
	<path fill="#FFFFFF" d="M122.928,81.449c-0.66-0.132-1.551-0.231-2.112-0.231c-1.518,0-1.617,0.66-1.617,1.716v1.881h3.796
		l-0.33,3.895h-3.466v11.849h-4.752V88.71h-2.442v-3.895h2.442v-2.41c0-3.3,1.551-5.148,5.446-5.148c1.353,0,2.343,0.198,3.63,0.462
		L122.928,81.449z"/>
</g>
<g>
	<g id="Calque_1_3_">
		<circle fill="#FFFFFF" stroke="#010101" stroke-width="13" stroke-miterlimit="10" cx="117.681" cy="89.683" r="17.667"/>
		<circle fill="#010101" stroke="#FFFFFF" stroke-width="3" stroke-miterlimit="10" cx="117.678" cy="89.685" r="17.667"/>
		<g>
			<g>
				<path fill="#FFFFFF" d="M101.243,91.084c0.648,0,1.299,0,1.947,0c1.936,0,1.936-3,0-3c-0.648,0-1.299,0-1.947,0
					C99.309,88.084,99.309,91.084,101.243,91.084L101.243,91.084z"/>
			</g>
		</g>
		<g>
			<g>
				<path fill="#FFFFFF" d="M134.43,88.089c-0.723-0.003-1.443-0.005-2.166-0.008c-1.936-0.007-1.946,2.993-0.011,3
					c0.723,0.003,1.443,0.005,2.166,0.008C136.355,91.096,136.365,88.096,134.43,88.089L134.43,88.089z"/>
			</g>
		</g>
		<g>
			<g>
				<path fill="#FFFFFF" d="M116.18,73.418c0,0.334,0,0.668,0,1c0,1.936,3,1.936,3,0c0-0.332,0-0.666,0-1
					C119.18,71.486,116.18,71.486,116.18,73.418L116.18,73.418z"/>
			</g>
		</g>
		<g>
			<g>
				<path fill="#FFFFFF" d="M116.169,104.85c0.006,0.415,0.012,0.829,0.018,1.241c0.034,2.401,3.034,2.357,3-0.043
					c-0.006-0.412-0.012-0.826-0.018-1.241C119.134,102.409,116.134,102.452,116.169,104.85L116.169,104.85z"/>
			</g>
		</g>
	</g>
	<g>
		<g>
			<g>
				<path opacity="0.88" fill="#FFFFFF" enable-background="new    " d="M129.668,85.636c-0.003-0.014-0.011-0.028-0.021-0.041
					l-0.057-0.073l0.015-0.058c0.005-0.021,0.005-0.041-0.001-0.062c-0.395-1.366-1.064-2.706-1.934-3.876
					c-0.013-0.018-0.03-0.03-0.049-0.039l-0.146-0.061c-0.037-0.016-0.081-0.012-0.114,0.013l-0.116,0.079
					c-0.079-0.101-0.161-0.209-0.206-0.268c-0.198-0.218-0.366-0.441-0.442-0.544c0.006-0.02,0.005-0.042-0.002-0.064l-0.06-0.176
					c-0.115-0.226-0.477-0.523-0.524-0.561c-0.015-0.01-0.152-0.104-0.254-0.146c-0.107-0.041-0.22-0.048-0.232-0.049
					c-0.024,0-0.049,0.008-0.069,0.021c-0.313-0.227-0.996-0.774-1.004-0.78c-0.011-0.01-0.025-0.017-0.039-0.021l-0.135-0.042
					c-0.044-0.013-0.079-0.012-0.109,0.021c-0.002,0.001-0.033,0.021-0.142,0.051c-0.138,0.038-0.26,0.053-0.367,0.067l-0.027,0.004
					c-0.144,0.018-0.195,0.077-0.212,0.124l-0.197,0.315c-0.006,0.011-0.011,0.021-0.014,0.031c-0.004,0.016-0.01,0.051,0.002,0.107
					c-0.003-0.005-0.005-0.01-0.007-0.016c-0.048-0.104-0.143-0.187-0.171-0.209c-0.217-0.123-0.59-0.074-0.74-0.049
					c-0.271,0.047-0.637,0.169-0.711,0.197c-0.059,0.022-0.37,0.125-0.53,0.167c-0.094,0.024-0.176,0.049-0.247,0.071
					c-0.052,0.016-0.098,0.029-0.141,0.041c-0.07,0.017-0.422,0.121-1.074,0.315c-0.25,0.074-0.414,0.104-0.413,0.104
					c-0.085,0.009-0.155,0.013-0.214,0.013c-0.17,0-0.232-0.025-0.232-0.024c-0.001-0.004-0.002-0.026-0.002-0.026l0.001-0.277
					c0-0.017-0.015-0.169-0.145-0.24c-0.105-0.056-0.241-0.073-0.426-0.082c-0.199-0.009-0.414,0.011-0.521,0.035
					c-0.202,0.045-0.362,0.131-0.477,0.26c-0.168,0.188-0.146,0.35-0.144,0.354c0,0,0.01,0.163,0.022,0.285
					c0.004,0.044,0.017,0.082,0.035,0.115c-0.105,0.047-0.281,0.117-0.554,0.198c-0.5,0.147-0.84,0.178-0.844,0.179
					c-0.064,0.005-0.112,0.062-0.107,0.126c0.01,0.132,0.116,0.722,0.127,0.787c0.005,0.033,0.054,0.328,0.074,0.409
					c0.021,0.075,0.074,0.246,0.074,0.246c0.004,0.014,0.04,0.142,0.171,0.203c0.103,0.05,0.297,0.076,0.503-0.004
					c0.172-0.068,0.24-0.149,0.305-0.228l0.115-0.133c0-0.002,0.107-0.097,0.229-0.057c0.113,0.038,0.203,0.165,0.229,0.215
					c-0.063,0.023-0.145,0.048-0.205,0.063c-0.119,0.033-1.271,0.403-1.271,0.403s-0.446,0.145-0.801,0.229
					c-0.354,0.087-0.551,0.114-0.628,0.121c-0.071,0.004-0.086,0.001-0.088,0.001c0,0,0.004-0.008,0.036-0.065
					c0.003-0.004,0.004-0.009,0.005-0.013c0.001-0.001,0.001-0.001,0.001-0.003c0.008-0.019,0.013-0.036,0.015-0.055
					c0.002-0.006,0.002-0.011,0.003-0.016c0-0.009,0.002-0.018,0.002-0.024c0-0.004,0-0.005,0-0.008c0.001-0.018,0-0.03,0-0.03
					s-0.003-0.008-0.01-0.023c-0.002-0.008-0.008-0.017-0.014-0.026c-0.025-0.048-0.066-0.12-0.127-0.187
					c-0.025-0.027-0.052-0.048-0.079-0.062c-0.08-0.046-0.159-0.045-0.159-0.045s-0.199-0.029-0.553,0.121
					c-0.354,0.148-0.478,0.274-0.552,0.386c-0.073,0.112-0.005,0.243-0.005,0.243c0.085,0.123,0.249,0.265,0.249,0.265l-0.004,0.001
					c-0.111,0.126-0.405,0.244-0.476,0.271c-0.011,0.004-0.016,0.007-0.016,0.007s-0.007,0.003-0.021,0.007
					c-0.09,0.03-0.472,0.158-0.818,0.202c-0.19,0.024-0.362,0.036-0.486,0.042c0.169-0.168,0.243-0.346,0.247-0.355
					c0.161-0.395,0.017-0.784-0.071-0.882c-0.081-0.088-0.244-0.21-0.256-0.217c-0.057-0.05-0.198-0.106-0.366-0.031
					c0.016-0.096,0.047-0.214,0.093-0.325c0.077-0.188,0.246-0.516,0.246-0.516c0.01-0.018,0.253-0.433,0.354-0.698
					c0.105-0.276,0.105-0.489,0.105-0.498c-0.001-0.026-0.01-0.051-0.026-0.072c0,0-0.114-0.146-0.176-0.226
					c0.187,0.041,0.325-0.036,0.35-0.053c0.258-0.196,0.419-0.545,0.424-0.557l0.232-0.471c0.017-0.036,0.015-0.078-0.006-0.113
					l-0.193-0.315c-0.017-0.026-0.044-0.046-0.077-0.051c-0.023-0.007-0.063-0.013-0.292,0.065
					c-0.105,0.035-0.193,0.073-0.254,0.102l-0.063-0.096c-0.004-0.005-0.024-0.026-0.028-0.031
					c-0.053-0.053-0.155-0.063-0.321-0.023c-0.191,0.043-0.464,0.189-0.592,0.359c-0.071,0.093-0.104,0.162-0.12,0.205
					c-0.344,0.296-0.634,0.436-0.698,0.467c-0.117,0.017-0.191,0.073-0.203,0.082c-0.324,0.273-0.702,0.713-0.751,0.771
					c-0.016,0.015-0.03,0.037-0.044,0.063c-0.015,0.029-0.064,0.179-0.052,0.243c0,0.007,0.002,0.011,0.003,0.015
					c-0.147,0.196-0.242,0.306-0.292,0.358c-0.014,0-0.03,0.002-0.044,0.003c-0.058,0.018-0.164,0.083-0.206,0.11
					c-0.013,0.009-0.024,0.019-0.032,0.032c-0.091,0.128-0.299,0.471-0.366,0.583c-0.016,0.007-0.033,0.017-0.047,0.027
					c-0.017,0-0.035,0.005-0.051,0.014l-0.161,0.092c-0.017,0.01-0.032,0.024-0.042,0.042c-0.75,1.231-1.268,2.575-1.539,3.99
					c-0.002,0.017-0.002,0.034,0.002,0.051l0.01,0.039l-0.043,0.093c-0.003,0.009-0.006,0.019-0.008,0.028
					c-0.118,0.681-0.179,1.379-0.179,2.078c0,0.457,0.026,0.917,0.077,1.368c0.002,0.02,0.009,0.039,0.021,0.055l0.042,0.062
					l-0.025,0.063c-0.007,0.02-0.01,0.04-0.007,0.06c0.213,1.609,0.74,3.137,1.566,4.538c0.008,0.013,0.019,0.024,0.032,0.034
					l0.015,0.012l0.014,0.046c0.002,0.011,0.006,0.021,0.012,0.031c2.217,3.659,6.091,5.842,10.365,5.842
					c3.052,0,5.967-1.141,8.21-3.208c2.229-2.057,3.598-4.847,3.856-7.857c0.001-0.019-0.002-0.037-0.008-0.055L130,89.687
					l0.042-0.07c0.009-0.017,0.015-0.035,0.016-0.055c0.017-0.267,0.025-0.533,0.025-0.792
					C130.08,87.708,129.942,86.654,129.668,85.636z M129.711,87.287c0.015-0.017,0.026-0.047,0.023-0.125
					c0.041,0.303,0.07,0.606,0.088,0.913c-0.021,0.045-0.029,0.143-0.029,0.143s-0.015,0.109-0.036,0.107
					c-0.006-0.001-0.014-0.001-0.023-0.006c-0.029-0.015-0.075-0.073-0.109-0.327c-0.047-0.337-0.037-0.692-0.037-0.692
					s-0.011-0.036,0.01-0.044c0.021-0.009,0.044,0.023,0.044,0.023S129.674,87.323,129.711,87.287z M129.448,85.721
					c0.05,0.191,0.091,0.382,0.132,0.574c-0.058-0.242-0.125-0.466-0.176-0.628L129.448,85.721z M129.404,85.667
					c0.014,0.041,0.027,0.087,0.042,0.135c-0.015-0.048-0.029-0.095-0.042-0.137V85.667z M129.37,85.623l0.004,0.004l-0.039-0.042
					l0,0L129.37,85.623C129.369,85.622,129.37,85.622,129.37,85.623z M128.893,84.136c0.002-0.002,0.002-0.003,0.004-0.004
					c0.18,0.421,0.337,0.849,0.464,1.279c-0.01,0-0.02,0-0.031,0.002c-0.003,0.001-0.006,0.002-0.008,0.004
					c0-0.003-0.001-0.004-0.001-0.004s-0.074-0.215-0.243-0.645c-0.148-0.374-0.189-0.536-0.198-0.57
					c-0.001-0.007-0.001-0.008-0.001-0.008S128.868,84.144,128.893,84.136z M129.335,85.581L129.335,85.581L129.335,85.581
					L129.335,85.581z M129.319,85.411L129.319,85.411L129.319,85.411L129.319,85.411z M127.554,82.005
					c0.029-0.016,0.062-0.033,0.089-0.054c0.01-0.009,0.016-0.016,0.024-0.024c0.202,0.288,0.392,0.585,0.569,0.889
					c-0.022,0.003-0.039,0.031,0.004,0.146c0.027,0.071,0.032,0.098,0.027,0.102c-0.009,0.006-0.045-0.048-0.045-0.048
					C128.004,82.738,127.554,82.006,127.554,82.005l-0.043-0.028L127.554,82.005z M127.409,82.069
					c0.007-0.003,0.015-0.006,0.02-0.01c0.005-0.001,0.01-0.004,0.014-0.005c0.014-0.006,0.027-0.012,0.039-0.018
					c0,0,0.003,0,0.009-0.003l0,0l0.001,0.003c0.24,0.389,0.669,1.011,0.669,1.011s0.174,0.224,0.213,0.228
					c0.039,0.003-0.02-0.174-0.02-0.174s-0.019-0.073-0.002-0.081c0.16,0.29,0.308,0.586,0.444,0.888l0,0
					c0,0-0.035,0.017-0.035,0.078c0,0.118,0.117,0.389,0.117,0.389s0.244,0.622,0.401,1.06c-0.05,0.026-0.08,0.07-0.188,0.087
					c-0.139,0.022-0.3,0.072-0.458,0.311c-0.047,0.072-0.064,0.148-0.067,0.221c-0.001,0.001-0.001,0.002-0.001,0.002
					c0,0.006,0,0.011,0,0.015c0,0.029,0.001,0.058,0.005,0.083c0.001,0.01,0.002,0.017,0.003,0.024
					c0.003,0.022,0.008,0.043,0.013,0.063c0.003,0.007,0.004,0.016,0.006,0.023c0,0.002,0.001,0.002,0.001,0.003
					c0.019,0.062,0.04,0.103,0.04,0.103s0.085,0.139,0.126,0.209c0.041,0.073,0.251,0.521,0.008,0.851c0,0-0.129,0.151-0.358,0.201
					c-0.203,0.045-0.151-0.191-0.172-0.318c0,0-0.03-0.537-0.29-0.845c-0.231-0.27-0.646,0.209-0.854,0.369
					c-0.194,0.146-0.759,0.729-1.572,1.157l-0.027-0.393c0,0-0.02-0.209-0.134-0.536c-0.23-0.664-0.456-0.971-0.456-0.971
					s-0.09-0.195-0.292-0.274c-0.051-0.019-0.107-0.034-0.172-0.034c-0.313,0-0.337,0.286-0.337,0.286s-0.074,0.227-0.193,0.297
					c-0.103,0.06-0.381,0.221-0.571,0.127c-0.027-0.014-0.053-0.032-0.076-0.058c-0.036-0.038-0.065-0.081-0.097-0.123
					c-0.035-0.047-0.067-0.095-0.095-0.144c-0.099-0.172-0.159-0.351-0.175-0.526c-0.024-0.269,0.087-0.379,0.087-0.379
					s0.022-0.07,0.38-0.07c0.4,0,0.473-0.122,0.473-0.122s0.076-0.071,0.07-0.228c-0.006-0.157-0.067-0.492-0.183-0.705
					c-0.016-0.031-0.039-0.065-0.062-0.1c-0.088-0.134-0.218-0.298-0.334-0.434l-0.216-0.039l0.216,0.039
					c0.139-0.052,0.331-0.129,0.538-0.221c0.422-0.191,0.624-0.351,0.817-0.461c0,0,0.428-0.263,0.679-0.257
					c0,0,0.059-0.002,0.064,0.076c0.005,0.077,0.025,0.191,0.051,0.258c0.027,0.065,0.173,0.429,0.642,0.482
					c0.059,0.006,0.113,0.006,0.164,0.004c0.027-0.003,0.052-0.009,0.076-0.014c0.021-0.005,0.043-0.005,0.063-0.01
					c0.036-0.01,0.066-0.021,0.097-0.034c0.006-0.003,0.013-0.004,0.019-0.008c0.032-0.015,0.059-0.03,0.085-0.046
					c0.002-0.002,0.005-0.003,0.008-0.005c0.109-0.072,0.159-0.152,0.159-0.152s0.161-0.246-0.117-0.54c0,0-0.225-0.241-0.231-0.26
					c0,0-0.014-0.021,0.01-0.04c0.007-0.006,0.015-0.011,0.029-0.015c0.04-0.011,0.32-0.089,0.589-0.178
					C127.192,82.149,127.315,82.107,127.409,82.069z M125.938,89.734c0.125,0.256,0.4,0.284,0.6,0.232
					c0.201-0.05,0.266-0.159,0.376-0.4c0.11-0.238,0.17-0.256,0.17-0.256s0.045-0.062,0.247-0.039
					c0.203,0.023,0.248,0.167,0.248,0.167s0.117,0.275,0.093,0.567c-0.023,0.289-0.086,0.419-0.152,0.521
					c-0.067,0.105-0.414,0.07-0.414,0.07s-0.597-0.066-0.65,0.649c-0.054,0.717,0.186,1.214,0.186,1.214
					c0.087,0.189,0.176,0.289,0.25,0.343c0.073,0.052,0.143,0.122,0.143,0.122s0.013,0.012,0.031,0.036l-0.003-0.001
					c-0.425,0.345-0.55,0.455-0.889,0.696c0,0-0.387,0.288-0.809,0.516c-0.425,0.229-0.922,0.2-0.922,0.2s-0.135-0.015-0.068-0.112
					c0.064-0.097,0.148-0.334,0.181-0.455c0.033-0.121,0.098-0.428-0.148-0.525c-0.248-0.098-0.711,0.046-0.711,0.046
					s-1.064,0.283-1.499,0.761c-0.422,0.462-0.067,0.668-0.067,0.668s0.166,0.115,0.327,0.172c0.151,0.055,0.121,0.103,0.083,0.131
					c0,0-0.476,0.303-1.038,0.464c0,0-0.768,0.235-1.514,0.284c-0.732,0.046-1.048,0.066-1.055,0.066
					c-0.08-0.157-0.163-0.299-0.163-0.299s-0.087-0.134-0.129-0.32c-0.037-0.161-0.04-0.354,0.071-0.55
					c0.244-0.424,0.643-0.552,0.643-0.552s0.353-0.077,0.705,0.005c0.333,0.075,0.501-0.053,0.501-0.053s0.115-0.049,0.198-0.246
					c0.007-0.017,0.013-0.039,0.02-0.058c0.006-0.018,0.012-0.033,0.017-0.052c0.012-0.042,0.022-0.089,0.03-0.139
					c0.062-0.406-0.003-1.163-0.545-1.313c-0.542-0.146-0.83,0.134-0.83,0.134s-0.292,0.322-0.386,0.368
					c-0.095,0.048-0.241,0.133-0.241,0.133s-0.203,0.122-0.342,0.153c-0.086,0.018-0.375-0.362-0.441-0.687
					c-0.004-0.021-0.01-0.045-0.012-0.066c-0.028-0.271-0.08-0.497-0.078-0.978c0-0.066,0.002-0.139,0.005-0.221
					c0,0,0-0.001,0-0.002c0.096-0.006,0.193-0.012,0.292-0.016c0.84-0.031,1.256-0.13,1.703-0.229
					c0.447-0.101,1.074-0.467,1.168-0.536c0.082-0.061,0.243-0.134,0.307-0.357c0.006-0.025,0.012-0.052,0.016-0.078
					c0.001-0.009,0.004-0.015,0.005-0.025l0.001-0.001c0.04-0.307-0.321-0.508-0.321-0.508s-0.287-0.151-0.348-0.22
					c-0.029-0.033-0.031-0.065-0.024-0.09c0.006-0.023,0.02-0.039,0.02-0.039s0.161-0.351,0.681-0.554
					c0.518-0.206,0.867-0.261,1.085-0.284c0.22-0.024,0.292,0.055,0.323,0.092c0.03,0.039,0.03,0.114,0.006,0.194
					c-0.025,0.071-0.105,0.245-0.152,0.328c-0.047,0.083-0.124,0.286-0.075,0.382c0.049,0.096,0.198,0.139,0.391,0.104
					c0.193-0.035,0.703-0.18,1.15-0.364c0.446-0.188,1.192-0.553,1.192-0.553s0.003,0,0.006-0.003V88.37l0,0l0.02-0.168
					c0,0.002,0.001,0.004,0.001,0.005l-0.02,0.167C125.525,88.866,125.817,89.482,125.938,89.734z M127.152,92.97l-0.005,0.149
					c0.049,0.133,0.086,0.347,0.034,0.661c-0.068,0.417-0.167,0.659-0.233,0.784c-0.012,0.021-0.024,0.041-0.037,0.062
					c-0.004,0.008-0.007,0.01-0.01,0.017c-0.012,0.016-0.023,0.03-0.035,0.046c-0.012,0.016-0.035,0.042-0.063,0.076
					c-0.015,0.014-0.027,0.03-0.042,0.043c-0.006,0.004-0.012,0.008-0.017,0.013c-0.015,0.016-0.033,0.032-0.051,0.048
					c-0.005,0.004-0.007,0.009-0.012,0.013c-0.09,0.077-0.202,0.147-0.322,0.162c-0.264,0.031-0.548,0.028-0.813,0.28
					c-0.005,0.004-0.009,0.006-0.013,0.011c-0.009,0.009-0.018,0.018-0.027,0.028c-0.004,0.005-0.009,0.009-0.014,0.013
					c-0.001,0.004-0.003,0.005-0.004,0.006c-0.026,0.028-0.053,0.063-0.077,0.103c-0.214,0.321-0.166,0.679-0.166,0.679
					s0.028,0.271,0.318,0.196c0.289-0.074,0.585-0.296,0.809-0.473c0.222-0.178,0.086,0.059,0.086,0.059
					c-0.197,0.385-0.57,0.767-0.57,0.767s-0.13,0.114-0.416,0.518c-0.074,0.104-0.136,0.197-0.188,0.279l0,0
					c0,0-0.001,0.001-0.002,0.004c-0.293,0.156-0.714,0.365-0.979,0.474c0.013-0.004,0.027-0.012,0.041-0.016
					c-0.015,0.005-0.028,0.012-0.041,0.017c-0.14,0.058-0.251,0.096-0.332,0.119c0.002-0.003,0.004-0.003,0.006-0.004
					c-0.085,0.024-0.136,0.03-0.151,0.023c0,0-0.002,0-0.004-0.002s-0.001-0.005,0-0.01c0.001-0.002,0-0.002,0.001-0.004
					c0.03-0.044,0.107-0.106,0.107-0.106s0.095-0.094,0.095-0.191c0,0,0.007-0.033-0.036-0.057
					c-0.043-0.025-0.137-0.038-0.341,0.006c-0.101,0.021-0.197,0.049-0.288,0.079c-0.002,0-0.005,0.001-0.007,0.001
					c-0.122,0.043-0.232,0.086-0.314,0.122c0.001,0,0.002,0,0.003,0c0,0,0.008-0.002,0.024-0.008c-0.117,0.05-0.192,0.09-0.192,0.09
					s-0.205,0.097-0.348,0.207l0.004-0.004c-0.005,0.004-0.009,0.009-0.015,0.013c-0.018,0.014-0.034,0.027-0.048,0.041
					c-0.002,0.005-0.006,0.006-0.009,0.009c-0.019,0.02-0.033,0.037-0.044,0.057c-0.002,0.003-0.004,0.005-0.005,0.009
					c-0.01,0.019-0.016,0.037-0.017,0.057c0,0.001,0,0.001,0,0.002c0,0.02,0.006,0.038,0.021,0.056c0,0,0.027,0.044,0.149,0.083
					c0.015,0.004,0.021,0.011,0.023,0.016c0.001,0.001,0.001,0.004,0.001,0.007c0,0.004-0.002,0.006-0.004,0.011
					c-0.004,0.003-0.006,0.007-0.011,0.012c-0.002,0.001-0.004,0.003-0.007,0.004c-0.006,0.006-0.014,0.011-0.022,0.016l0.003-0.001
					c-0.069,0.038-0.2,0.079-0.2,0.079c-0.321,0.105-0.567,0.152-0.879,0.218c-0.323,0.064-0.603,0.126-0.792,0.168l0,0h0.002
					c-0.021-0.078-0.05-0.152-0.083-0.225c-0.005-0.009-0.008-0.018-0.013-0.025c-0.015-0.032-0.031-0.063-0.047-0.095
					c-0.003-0.005-0.006-0.013-0.009-0.017c-0.019-0.034-0.036-0.065-0.055-0.094c-0.007-0.013-0.014-0.024-0.021-0.036
					c-0.008-0.013-0.016-0.025-0.023-0.035c-0.021-0.034-0.039-0.063-0.051-0.081c-0.073-0.118-0.197-0.187-0.563-0.124
					c-0.365,0.06-0.796,0.242-0.796,0.242s-0.444,0.234-0.775,0.192c-0.083-0.012-0.15-0.043-0.203-0.081
					c-0.159-0.117-0.197-0.326-0.194-0.404c0.004-0.105,0.071-0.197,0.244-0.266c0.173-0.067,0.58-0.157,1.172-0.189
					c0.593-0.03,0.814-0.415,0.814-0.415c0.067-0.098,0.182-0.303-0.013-0.478c-0.028-0.025-0.063-0.05-0.104-0.073
					c-0.207-0.117-0.288-0.141-0.357-0.173c-0.025-0.013-0.051-0.026-0.08-0.045c-0.002-0.002-0.004-0.003-0.007-0.004
					c-0.004-0.003-0.01-0.008-0.015-0.011c-0.012-0.009-0.024-0.017-0.039-0.026c-0.04-0.032-0.08-0.064-0.12-0.099
					c-0.119-0.104-0.229-0.227-0.279-0.38c-0.006-0.021-0.016-0.047-0.024-0.069l-0.12-0.078l-0.078-0.052h-0.001l0,0l0,0v-0.001
					l0,0l0,0l0,0l0,0l0,0l0,0v0.001V95.96l0.002-0.003l0,0l0.014-0.013l-0.014,0.013l0.002,0.003c0,0-0.001,0.001-0.002,0.001
					l0.198,0.13c0.172-0.015,0.397-0.031,0.597-0.041c0.397-0.019,1.02-0.11,1.383-0.188c0.361-0.081,0.909-0.25,1.315-0.459
					c0.405-0.211,0.425-0.358,0.425-0.358s0.03-0.043,0.012-0.106c-0.011-0.037-0.041-0.083-0.104-0.128
					c-0.169-0.124-0.244-0.091-0.394-0.242c-0.019-0.019-0.03-0.039-0.036-0.06c-0.046-0.145,0.167-0.318,0.167-0.318
					s0.145-0.205,0.946-0.513c0.801-0.311,0.936-0.205,0.977-0.17c0.01,0.007,0.019,0.021,0.024,0.035
					c0.017,0.05,0.017,0.125,0.005,0.181c-0.017,0.075-0.117,0.343-0.17,0.482c-0.027,0.072-0.045,0.156-0.028,0.229
					c0.015,0.069,0.064,0.128,0.17,0.151c0.217,0.046,0.521-0.004,0.806-0.105c0.681-0.242,0.884-0.538,2.008-1.354
					c0.003-0.003,0.005-0.005,0.007-0.006L127.152,92.97c0-0.002,0-0.002,0-0.002l0,0C127.151,92.966,127.151,92.969,127.152,92.97z
					 M115.585,97.08c0.179,0.203,0.368,0.29,0.368,0.29s0.11,0.049,0.109,0.079c-0.001,0.039-0.003,0.071-0.086,0.121
					c0,0-0.328,0.19-0.966,0.201c-0.639,0.011-0.919,0.005-1.107-0.164c-0.155-0.138,0.039-0.434,0.039-0.434s0.077-0.145,0-0.342
					c-0.078-0.196-0.522-0.201-0.522-0.201l-0.614-0.03c-0.728-0.021-1.689-0.101-2.118-0.154c0,0-0.002-0.002-0.007-0.002l0,0
					l-0.013-0.018c0,0-0.44-0.793-0.394-1.087c0,0,0.012-0.147,0.2-0.241c0.027-0.013,0.057-0.025,0.092-0.036
					c0.192-0.059,0.167,0.126,0.732,0.229c0,0,0.284,0.076,0.475-0.046c0.059-0.037,0.109-0.092,0.14-0.176
					c0.127-0.354-0.133-0.798-0.133-0.798s-0.341-0.626-0.762-0.648l0,0l0,0c-0.003,0-0.004,0-0.007,0
					c-0.214-0.009-0.16,0.138-0.492,0.218c0,0-0.45,0.043-0.593-0.227c-0.172-0.327-0.239-0.699-0.239-0.947
					c0-0.009,0-0.014,0-0.021c0.004-0.155,0.009-0.21,0.017-0.252c0.004-0.014,0.008-0.031,0.013-0.056
					c0.005-0.024,0.016-0.057,0.027-0.097c0.011-0.042,0.024-0.094,0.032-0.16v-0.003c0.191-0.021,0.498-0.054,0.852-0.092
					c0.594-0.064,0.994-0.129,1.363-0.072c0.371,0.054,0.489,0.343,0.489,0.343s0.006,0.018,0.002,0.045
					c-0.005,0.024-0.02,0.055-0.061,0.081c-0.083,0.053-0.177,0.129-0.222,0.21c-0.001,0.001-0.001,0.001-0.001,0.001l0,0
					c-0.005,0.011-0.011,0.022-0.017,0.033l0,0c-0.039,0.092-0.065,0.245,0.054,0.447c0.135,0.226,0.504,0.373,0.818,0.336
					c0.314-0.036,0.785-0.158,1.064-0.231c0.228-0.059,0.434-0.158,0.539-0.304c0.035-0.049,0.059-0.104,0.067-0.163
					c0.035-0.236-0.361-0.54-0.361-0.54s-0.19-0.145-0.214-0.176c-0.006-0.009-0.007-0.017-0.006-0.021
					c0.005-0.016,0.029-0.023,0.029-0.023s0.222-0.054,0.318-0.097c0.095-0.044,0.358-0.153,0.789-0.286
					c0.431-0.136,1.318-0.294,1.318-0.294s0.49-0.078,1.102-0.127l0.003-0.004c0,0,0,0,0.001,0l0.076-0.087l0.023-0.026l-0.1,0.117
					c-0.002,0.056-0.004,0.116-0.006,0.178c-0.034,0.911,0.169,1.379,0.169,1.379c0.115,0.252,0.241,0.432,0.411,0.545
					c0.169,0.116,0.4,0.036,0.475,0c0.073-0.037,0.28-0.132,0.457-0.243c0.176-0.111,0.17-0.159,0.383-0.355
					c0.213-0.196,0.489-0.144,0.489-0.144s0.26,0.008,0.409,0.311c0.148,0.302,0.119,0.73,0.081,0.886
					c-0.037,0.155-0.104,0.258-0.25,0.231c-0.146-0.026-0.387-0.051-0.475-0.056c-0.088-0.002-0.337-0.011-0.563,0.048
					c-0.221,0.058-0.519,0.217-0.803,0.679c-0.222,0.357-0.113,0.709-0.063,0.848c0.041,0.107,0.149,0.259,0.245,0.445l0.179,0.059
					l0,0l-0.176-0.058c-0.302,0.037-0.813,0.108-1.317,0.23c-0.617,0.15-1.205,0.27-1.624,0.541
					C115.717,96.671,115.405,96.877,115.585,97.08z M110.679,96.451l-0.001,0.033l0,0l0,0l0,0v-0.003l0,0L110.679,96.451z
					 M109.739,91.924l-0.001-0.002h0.001C109.739,91.922,109.739,91.922,109.739,91.924z M117.136,86.933
					c-0.046-0.328-0.06-0.406-0.349-1.401c0.38-0.052,0.69-0.102,1.041-0.169c0.236-0.046,0.489-0.101,0.798-0.173
					c0,0,0.715-0.127,0.865-0.39c0.086-0.151,0.241-0.359-0.01-0.568c0-0.002,0-0.002-0.001-0.002v-0.002
					c0,0-0.029-0.037-0.186-0.073c-0.067-0.014-0.126-0.028-0.183-0.045c-0.077-0.024-0.15-0.054-0.226-0.107
					c-0.133-0.095-0.129-0.205-0.129-0.205s-0.012-0.105,0.202-0.225c0,0,0.113-0.082,0.336-0.177
					c0.075-0.032,0.162-0.065,0.262-0.097c0.397-0.124,0.857-0.069,0.857-0.069s0.193,0.022,0.162,0.151
					c-0.034,0.131-0.143,0.349-0.147,0.461c-0.003,0.066,0,0.141,0.049,0.209c0.015,0.021,0.037,0.044,0.065,0.064
					c0.029,0.021,0.063,0.041,0.106,0.06c0.138,0.057,0.312,0.065,0.423,0.065c0.067,0,0.111-0.004,0.111-0.004
					s0.326-0.015,0.858-0.187c0.333-0.108,0.669-0.225,0.871-0.297c0.12-0.042,0.194-0.067,0.204-0.073
					c0.002-0.001,0.002-0.001,0.005-0.001v0.001c0.467,0.459,0.553,1.018,0.553,1.018s0.063,0.22-0.066,0.236
					c-0.114,0.014-0.377,0.015-0.377,0.015s-0.1,0.012-0.263,0.045c-0.162,0.033-0.266,0.207-0.289,0.326
					c-0.023,0.119-0.094,0.449,0.184,0.967c0.276,0.516,0.626,0.493,0.626,0.493c0.303-0.026,0.396-0.08,0.573-0.2
					c0.171-0.117,0.25-0.376,0.26-0.426c0.011-0.051,0.034-0.1,0.072-0.1c0.042,0,0.028,0,0.122-0.014
					c0.094-0.013,0.165,0.053,0.241,0.21c0.05,0.101,0.316,0.539,0.394,0.8c0.076,0.26,0.144,0.519,0.15,0.753
					c0.002,0.092,0.015,0.197,0.03,0.291l0.074,0.106V88.2v0.001l-0.077-0.11c-0.389,0.192-1.273,0.624-1.85,0.826
					c0,0-0.441,0.179-0.622,0.184c0,0-0.04,0.001-0.007-0.042c0.032-0.044,0.065-0.076,0.12-0.174
					c0.054-0.099,0.151-0.32,0.151-0.547c0-0.229-0.264-0.452-0.631-0.411c-0.366,0.039-0.717,0.142-1.14,0.304
					c-0.423,0.163-0.786,0.507-0.835,0.793c-0.049,0.286,0.26,0.453,0.26,0.453s0.349,0.176,0.394,0.271
					c0.045,0.095,0.012,0.184,0.012,0.184s-0.029,0.097-0.185,0.184c-0.152,0.089-0.568,0.303-0.568,0.303s-0.519,0.286-1.308,0.355
					c0,0-0.72,0.062-1.132,0.082c-0.005,0.001-0.01,0.001-0.015,0.001c0.018-0.528-0.046-0.942-0.156-1.249
					c-0.037-0.103-0.079-0.193-0.125-0.271c-0.189-0.334-0.498-0.51-0.649-0.585c-0.152-0.074-0.505-0.107-0.746-0.02
					c-0.241,0.088-0.292,0.158-0.379,0.313c-0.088,0.153-0.197,0.142-0.197,0.142s-0.322,0.007-0.437-0.475
					c-0.002-0.01-0.005-0.016-0.007-0.025c-0.016-0.076-0.025-0.14-0.033-0.205c-0.001-0.013-0.006-0.03-0.007-0.044
					c-0.005-0.041-0.005-0.075-0.006-0.114c-0.001-0.029-0.005-0.063-0.005-0.088c0.003-0.367,0.136-0.499,0.136-0.499
					s0.075-0.112,0.322-0.146c0.247-0.034,0.407,0.027,0.596,0.074c0.19,0.048,0.333,0.028,0.57-0.087
					c0.136-0.066,0.226-0.16,0.27-0.288C117.148,87.195,117.156,87.077,117.136,86.933z M121.109,79.93
					c0.167-0.044,0.488-0.148,0.557-0.176c0.066-0.026,0.416-0.142,0.667-0.185c0.254-0.045,0.483-0.036,0.565,0.008
					c0.014,0.012,0.069,0.065,0.091,0.115c0.031,0.068,0.119,0.236,0.271,0.313c0.128,0.063,0.22,0.101,0.504,0.075
					c0.402-0.102,0.447-0.324,0.406-0.401c-0.053-0.101-0.21-0.203-0.21-0.203s-0.211-0.136-0.257-0.198
					c-0.005-0.008-0.005-0.012-0.007-0.018c0.114-0.015,0.241-0.031,0.391-0.072c0.073-0.02,0.129-0.038,0.171-0.059l0.064,0.021
					c0.125,0.099,0.842,0.673,1.086,0.833c0.051,0.034,0.117,0.023,0.155-0.022l0.005-0.006c0.031,0.024,0.064,0.051,0.074,0.063
					c0,0,0.153,0,0.229,0.076c0.1,0.082,0.378,0.327,0.45,0.462l0.036,0.109c-0.02,0.038-0.016,0.084,0.009,0.12
					c0.008,0.013,0.223,0.317,0.494,0.614c0.027,0.037,0.253,0.343,0.379,0.474c-0.065,0.028-0.16,0.063-0.285,0.095
					c-0.262,0.071-0.514,0.189-0.514,0.189s-0.21,0.068-0.13,0.237c0.008,0.016,0.017,0.027,0.025,0.043
					c0.004,0.011,0.011,0.024,0.02,0.037c0,0,0.004,0.003,0.005,0.004c0.071,0.112,0.148,0.17,0.148,0.17s0.013,0.012,0.031,0.032
					c0.009,0.01,0.02,0.023,0.032,0.037c0.005,0.006,0.01,0.012,0.015,0.018c0.017,0.022,0.036,0.05,0.051,0.075
					c0.025,0.041,0.043,0.085,0.045,0.123c0.005,0.123-0.047,0.18-0.18,0.253c-0.132,0.073-0.252,0.088-0.252,0.088
					s-0.314,0.056-0.471-0.091c-0.155-0.147-0.186-0.393-0.186-0.393s-0.011-0.206-0.27-0.292c-0.259-0.09-0.577,0.1-0.577,0.1
					s-0.25,0.133-0.518,0.306s-0.773,0.385-1.091,0.496l-0.036,0.164l0,0l0,0l0,0l0,0l0,0H123.1l0,0l0,0h0.001H123.1l0,0h0.001
					l0.017-0.078l0.018-0.083c0-0.003,0-0.003,0-0.003l0,0c-0.021-0.021-0.061-0.062-0.11-0.116
					c-0.121-0.134-0.305-0.347-0.472-0.548c-0.164-0.195-0.311-0.379-0.366-0.457c-0.132-0.189-0.152-0.233-0.176-0.296
					c-0.006-0.017-0.006-0.036-0.002-0.06c0.01-0.07,0.057-0.162,0.099-0.214c0.056-0.065,0.124-0.078,0.259-0.049
					c0.138,0.029,0.227,0.09,0.444,0.02c0.218-0.069,0.228-0.232,0.244-0.399c0.013-0.125-0.098-0.354-0.221-0.533
					c-0.041-0.061-0.083-0.114-0.123-0.157c-0.16-0.17-0.387-0.195-0.543-0.188c-0.157,0.012-0.247,0.124-0.337,0.174
					c-0.089,0.052-0.259,0.102-0.335,0.067c-0.039-0.016-0.087-0.033-0.143-0.075c-0.054-0.04-0.116-0.107-0.181-0.221
					c-0.086-0.151-0.159-0.288-0.205-0.379C121.011,79.957,121.058,79.944,121.109,79.93z M116.511,83.316
					c0.038-0.017,0.102-0.043,0.191-0.056l0.18-0.011c0.037,0.003,0.077,0.005,0.119,0.008l0.043,0.004
					c0.08,0.008,0.193,0.017,0.325-0.04c0.001,0,0.002,0,0.002,0c0.004-0.001,0.007-0.003,0.012-0.005
					c0.025-0.009,0.048-0.02,0.07-0.031c0.1-0.056,0.373-0.205,0.354-0.509c-0.02-0.304-0.261-0.664-0.459-0.788
					c-0.05-0.031-0.103-0.052-0.158-0.063c-0.164-0.033-0.338,0.015-0.445,0.094c-0.142,0.106-0.199,0.242-0.286,0.286
					c-0.085,0.042-0.207,0.137-0.336,0.111c-0.002-0.001-0.003,0-0.004-0.001c-0.13-0.03-0.137-0.321-0.192-0.65
					c-0.022-0.134-0.042-0.243-0.057-0.331c-0.006-0.037-0.011-0.07-0.017-0.1c0.153-0.023,0.407-0.068,0.733-0.166
					c0.544-0.158,0.732-0.286,0.751-0.299c0.025-0.02,0.037-0.049,0.042-0.077c0.056-0.034,0.108-0.071,0.148-0.108
					c0,0,0.147-0.069,0.005-0.208c-0.001,0-0.001,0-0.001,0l0,0c-0.142-0.139-0.21-0.179-0.21-0.179s-0.024-0.015-0.036-0.043
					c-0.003-0.008-0.005-0.019-0.005-0.029c0.012-0.023,0.029-0.048,0.056-0.078c0.081-0.091,0.199-0.154,0.351-0.187
					c0.079-0.019,0.274-0.038,0.462-0.029c0.147,0.007,0.232,0.019,0.291,0.041c-0.008,0.086-0.021,0.204-0.018,0.239
					c0.002,0.036,0.006,0.118,0.089,0.194c0.017,0.047,0.048,0.092,0.101,0.115c0.036,0.021,0.184,0.089,0.598,0.046
					c0.007-0.002,0.179-0.032,0.447-0.111c0.641-0.191,1-0.297,1.067-0.314c0.005-0.001,0.013-0.004,0.018-0.005
					c0.034,0.064,0.087,0.167,0.18,0.323c0.212,0.365,0.583,0.508,0.742,0.49c0.14-0.015,0.381-0.08,0.473-0.183
					c0.094-0.104,0.187-0.091,0.187-0.091c0.203-0.013,0.253,0.156,0.419,0.396c0.167,0.24,0.063,0.427,0.063,0.427
					c-0.11,0.146-0.233,0.116-0.347,0.094c-0.085-0.019-0.094-0.028-0.192-0.047c-0.307-0.04-0.41,0.187-0.41,0.187
					c-0.22,0.34,0.04,0.586,0.04,0.586s0.581,0.778,1.023,1.258c-0.333,0.116-0.768,0.261-0.768,0.261s-0.591,0.218-0.979,0.271
					c-0.387,0.053-0.474-0.002-0.526-0.055c-0.054-0.054,0.009-0.238,0.009-0.238s0.159-0.325,0.083-0.491
					c-0.077-0.169-0.577-0.212-0.585-0.212c-0.009,0-0.545-0.062-1.047,0.219c-0.446,0.249-0.504,0.387-0.504,0.387
					s-0.142,0.221,0.027,0.439c0.189,0.246,0.441,0.27,0.441,0.27s0.241,0.018,0.296,0.089c0.057,0.07,0.018,0.147,0.018,0.147
					s-0.079,0.218-0.524,0.308c0,0-0.747,0.22-2.142,0.418c-0.278-1.004-0.295-1.637-0.295-1.637
					C116.401,83.456,116.425,83.373,116.511,83.316z M111.897,86.37c0,0,0.111,0.013,0.096,0.054c-0.016,0.03-0.1,0.098-0.1,0.098
					s-0.031,0.019-0.153,0.157c-0.122,0.136-0.158,0.271-0.164,0.39c0,0.015,0.001,0.033,0.005,0.056
					c0.025,0.146,0.172,0.426,0.563,0.508c0.448,0.094,0.959-0.078,0.959-0.078s0.335-0.074,0.655-0.395
					c0.146-0.146,0.164-0.304,0.139-0.437c-0.032-0.168-0.136-0.297-0.136-0.297s-0.052-0.07-0.152-0.104
					c0,0-0.025-0.005-0.026-0.021c0-0.005,0.001-0.012,0.007-0.019c0.016-0.018,0.045-0.07,0.12-0.122
					c0.045-0.026,0.112-0.059,0.204-0.09c0.236-0.062,0.937-0.282,2.601-0.503v-0.002c0.001,0.003,0.121,0.485,0.212,0.794
					c0.091,0.313,0.132,0.622,0.146,0.686c0.014,0.065,0.01,0.178-0.074,0.247c-0.085,0.068-0.292,0.126-0.335,0.134
					c-0.044,0.005-0.125-0.011-0.234-0.048c-0.109-0.038-0.217-0.045-0.217-0.045s-0.261-0.043-0.538,0.041
					c-0.278,0.085-0.489,0.368-0.506,0.725c-0.016,0.355-0.013,0.535,0.126,0.851c0.139,0.314,0.39,0.495,0.58,0.498
					c0.19,0.004,0.345-0.094,0.455-0.247c0.107-0.152,0.139-0.177,0.139-0.177c0.128-0.07,0.457-0.103,0.623-0.041
					c0.167,0.061,0.472,0.253,0.64,0.63c0.137,0.306,0.179,0.647,0.172,1.264l0.136,0.103l-0.001,0.002l-0.138-0.104
					c-0.386,0.03-0.832,0.084-0.832,0.084s-1.01,0.143-1.934,0.429c-0.785,0.241-0.934,0.374-0.934,0.374s-0.167,0.141-0.028,0.342
					c0,0,0.08,0.127,0.243,0.255c0.161,0.127,0.291,0.248,0.272,0.309c-0.019,0.063-0.067,0.091-0.067,0.091s-0.227,0.2-1.152,0.356
					c0,0-0.595,0.115-0.778-0.065c-0.184-0.179-0.103-0.3-0.103-0.3s0.012-0.041,0.146-0.125c0,0,0.223-0.14,0.152-0.405
					c-0.071-0.267-0.501-0.599-0.964-0.597c0,0-0.542,0.002-1.928,0.18c0,0-0.002,0-0.004,0c0-0.06-0.001-0.125-0.005-0.193
					c-0.021-0.392-0.049-0.994-0.102-1.344c-0.053-0.352-0.149-0.894-0.469-0.91c0,0-0.158-0.013-0.385,0.208
					c-0.207,0.201-0.396-0.165-0.406-0.39c-0.012-0.265,0.031-0.531,0.096-0.658c0.016-0.033,0.04-0.057,0.066-0.074
					c0.08-0.056,0.187-0.058,0.212-0.057c0.035,0.004,0.13,0.041,0.245,0.113c0.087,0.053,0.197,0.065,0.287,0.029
					c0.029-0.012,0.058-0.028,0.081-0.053c0.093-0.093,0.223-0.201,0.276-0.61c0.053-0.41,0.053-0.835,0.003-1.343v-0.003
					c0.09-0.017,0.209-0.036,0.344-0.058c0.149-0.023,0.319-0.045,0.497-0.062C111.075,86.347,111.653,86.338,111.897,86.37z
					 M107.963,82.569c0.019-0.013,0.048-0.033,0.065-0.039c0.028-0.009,0.053-0.028,0.068-0.052
					c0.002-0.006,0.254-0.425,0.364-0.587c0.037-0.021,0.072-0.043,0.092-0.055c0.01,0.003,0.02,0.006,0.03,0.008
					c0.033,0.004,0.066-0.007,0.092-0.028c0.013-0.012,0.134-0.121,0.415-0.499c0.021-0.027,0.03-0.061,0.026-0.091
					c-0.002-0.022-0.011-0.043-0.024-0.06c0.006-0.029,0.018-0.069,0.027-0.09c0.002-0.002,0.004-0.004,0.005-0.008
					c0.004-0.004,0.403-0.473,0.722-0.742c0,0,0.041-0.028,0.103-0.036c0.011,0,0.021-0.005,0.032-0.008
					c0.015-0.006,0.369-0.155,0.8-0.534c0.018-0.015,0.032-0.04,0.038-0.063c0,0,0.014-0.054,0.09-0.156
					c0.063-0.083,0.203-0.176,0.338-0.23c-0.043,0.039-0.101,0.09-0.172,0.168c-0.072,0.075-0.097,0.123-0.091,0.146
					c0.005,0.023,0.041,0.026,0.088,0.01c0.024-0.008,0.054-0.02,0.09-0.036c0.001,0,0.002-0.001,0.004-0.001l0,0
					c0.091-0.039,0.225-0.104,0.413-0.2l0.008,0.012c0.034,0.05,0.102,0.066,0.155,0.035c0.001,0,0.083-0.044,0.209-0.095
					c-0.073,0.155-0.197,0.4-0.339,0.576c0,0-0.088,0.13-0.156,0.099c-0.067-0.032-0.147-0.034-0.214-0.021
					c-0.066,0.015-0.271,0.082-0.458,0.334c-0.185,0.248-0.208,0.437-0.107,0.493c0.099,0.056,0.246-0.019,0.333-0.096
					c0.065-0.058,0.116-0.093,0.149-0.105c0.011,0.023,0.028,0.04,0.049,0.052c-0.001,0.016-0.002,0.031-0.004,0.038
					c-0.006,0.023-0.036,0.322-0.383,0.921c-0.086,0.15-0.198,0.373-0.251,0.482l0,0l-0.001-0.002
					c-0.561,0.105-0.98,0.235-1.123,0.288c-0.143,0.055-0.146,0.021-0.146,0.021c-0.02-0.024-0.006-0.068,0.017-0.113
					c0.014-0.026,0.03-0.053,0.046-0.075c0.021-0.031,0.04-0.053,0.04-0.053s0.153-0.21,0.215-0.403
					c0.06-0.193-0.21-0.167-0.21-0.167c-0.179,0.029-0.307,0.113-0.455,0.291c-0.114,0.138-0.184,0.327-0.209,0.427
					c-0.017,0.063-0.045,0.12-0.045,0.12s-0.022,0.04-0.106,0.077c-0.098,0.044-0.289,0.094-0.289,0.094s-0.126,0.01-0.219-0.036
					c-0.032-0.014-0.091-0.01-0.139-0.003C107.951,82.574,107.958,82.573,107.963,82.569z M107.792,82.706
					C107.792,82.705,107.792,82.705,107.792,82.706l0.002-0.002l0,0l0,0l-0.04,0.059c0.015-0.021,0.027-0.042,0.04-0.059
					C107.792,82.705,107.792,82.705,107.792,82.706z M106.985,84.261c-0.001,0.007-0.001,0.008-0.002,0.012
					c-0.014,0.052-0.02,0.08-0.02,0.08c-0.001,0.021,0,0.037,0.002,0.05c0.004,0.015,0.011,0.021,0.024,0.021
					c0.01-0.001,0.03-0.032,0.036-0.016c0.004,0.011,0.003,0.036-0.009,0.098c-0.021,0.11-0.123,0.402-0.163,0.521
					c-0.04,0.12-0.085,0.2-0.116,0.195c-0.011-0.002-0.017-0.009-0.022-0.018c-0.009-0.016-0.01-0.037-0.01-0.037
					s-0.001-0.02-0.007-0.031c-0.005-0.013-0.016-0.018-0.032-0.003C106.761,84.838,106.868,84.548,106.985,84.261z M106.588,85.382
					l0.001-0.002c0,0,0.011-0.028,0.021-0.044c0.007-0.009,0.013-0.012,0.012,0.023c-0.004,0.079,0.046,0.087,0.046,0.087
					c0.031-0.007,0.065-0.041,0.1-0.099l0,0c0.001-0.001,0.002-0.004,0.003-0.005c0.014-0.023,0.028-0.051,0.043-0.081
					c0.003-0.009,0.007-0.017,0.011-0.027c0.011-0.024,0.023-0.051,0.034-0.078c0.005-0.012,0.01-0.024,0.016-0.037
					c0.01-0.028,0.021-0.057,0.032-0.086c0.005-0.014,0.01-0.028,0.015-0.042c0.009-0.027,0.019-0.053,0.027-0.08
					c0.006-0.018,0.012-0.034,0.017-0.051c0.005-0.016,0.009-0.029,0.013-0.043c0.011-0.031,0.021-0.063,0.029-0.095
					c0.006-0.024,0.014-0.046,0.019-0.067c0.007-0.024,0.014-0.047,0.02-0.068c0.005-0.021,0.011-0.041,0.015-0.061
					c0.009-0.036,0.017-0.067,0.024-0.098c0.003-0.018,0.006-0.03,0.009-0.045c0.004-0.021,0.008-0.035,0.011-0.054
					c0.001-0.004,0.003-0.013,0.005-0.017l0,0c0.008-0.047,0.014-0.081,0.014-0.09c0-0.024-0.014-0.045-0.036-0.032
					c-0.023,0.014-0.029,0.003-0.029,0.003c-0.001-0.005,0-0.013,0.002-0.021c0-0.003,0-0.004,0.001-0.005
					c0.016-0.075,0.082-0.238,0.082-0.238c0.035-0.089,0.072-0.175,0.11-0.259c0.003-0.009,0.008-0.017,0.011-0.025
					c0.019-0.038,0.037-0.078,0.056-0.116c0.001-0.003,0.002-0.006,0.003-0.007c0.146-0.302,0.297-0.553,0.405-0.719
					c0.019-0.002,0.02-0.001,0.056-0.013c0,0,0.096-0.014,0.262,0.029c0.215,0.056,0.487-0.116,0.487-0.116s0.003-0.004,0.01-0.008
					c0,0,0.002-0.001,0.003-0.001c0.006-0.005,0.014-0.011,0.024-0.019c0.003-0.002,0.005-0.004,0.008-0.006
					c0.01-0.007,0.021-0.016,0.033-0.024c0.004-0.004,0.009-0.008,0.013-0.012c0.011-0.009,0.023-0.02,0.035-0.031
					c0.004-0.002,0.006-0.005,0.01-0.009l-0.001,0.002c0.058-0.055,0.122-0.129,0.164-0.219l0.086-0.237c0,0,0.068-0.227,0.26-0.3
					c0,0,0.074-0.041,0.195-0.042c0.076,0,0.092,0.033,0.095,0.056c0,0.016-0.003,0.027-0.003,0.027s-0.013,0.055-0.138,0.213
					c-0.125,0.16-0.158,0.283-0.158,0.283s-0.042,0.095-0.012,0.167c0.009,0.023,0.027,0.045,0.058,0.058
					c0,0,0.056,0.033,0.22-0.021c0.166-0.055,0.711-0.197,1.044-0.249l0.003-0.001l-0.001,0.001
					c-0.062,0.179-0.142,0.458-0.11,0.614c0.048,0.238,0.273,0.238,0.273,0.238s0.049,0.002,0.125-0.014
					c0.004,0.001,0.007,0.007,0.012,0.008c0.042,0.013,0.119,0.017,0.257-0.054c0.011-0.005,0.019-0.007,0.029-0.011
					c0.08,0.074,0.103,0.297,0.103,0.342c0,0.062-0.001,0.406-0.24,0.574c0,0-0.096,0.074-0.231,0.074
					c-0.137,0-0.225-0.039-0.225-0.039s-0.231-0.064-0.374,0.019c-0.142,0.085-0.312,0.258-0.446,0.511
					c-0.134,0.251-0.246,0.703-0.24,1.035c0.004,0.26,0.042,0.508,0.068,0.677l0.156,0.101c0,0,0,0-0.001,0v0.001l0,0v-0.001
					l-0.158-0.102c0,0-0.539,0.143-1.146,0.137c-0.428-0.001-0.417-0.226-0.362-0.373c0.007-0.02,0.015-0.04,0.024-0.055
					c0.002-0.007,0.005-0.011,0.006-0.016c0.008-0.014,0.015-0.027,0.021-0.036c0.006-0.013,0.012-0.018,0.012-0.018
					s0.149-0.265,0.176-0.416c0,0,0.053-0.41-0.333-0.385c-0.387,0.026-0.464,0.364-0.464,0.364s-0.025,0.188-0.021,0.327
					c0.004,0.139,0,0.435-0.174,0.602c-0.173,0.168-0.36,0.118-0.36,0.118s-0.313-0.139-0.375-0.171
					c-0.049-0.024-0.094-0.026-0.137-0.019C106.411,86.033,106.493,85.705,106.588,85.382z M106.23,90.175l-0.063-0.087
					c-0.047-0.434-0.071-0.875-0.071-1.312c0-0.682,0.058-1.361,0.171-2.024l0.053-0.119c0.005-0.011,0.007-0.022,0.009-0.035
					c0.05,0.01,0.096,0.032,0.096,0.032s0.267,0.146,0.385,0.169c0.12,0.025,0.207-0.015,0.284-0.068
					c0.016-0.011,0.033-0.027,0.049-0.043c0.015-0.011,0.028-0.021,0.043-0.035c0.011-0.011,0.021-0.023,0.032-0.035
					c0.019-0.02,0.038-0.038,0.056-0.062c-0.002,0.001-0.004,0.003-0.006,0.005c0.051-0.063,0.093-0.131,0.126-0.201
					c-0.002,0.007-0.004,0.012-0.008,0.021c0.014-0.028,0.027-0.056,0.036-0.083c0.007-0.018,0.013-0.041,0.018-0.065
					c0.002-0.007,0.003-0.016,0.005-0.024c0.003-0.013,0.005-0.025,0.007-0.04c0,0.003,0,0.004-0.001,0.007
					c0.011-0.07,0.021-0.151,0.025-0.226c0,0.001,0,0.004,0,0.004c0.009-0.117,0.012-0.215,0.012-0.217v0.002v-0.001h0.001
					c0,0,0-0.1-0.003-0.122c0-0.002,0-0.006-0.001-0.009c-0.003-0.033-0.011-0.124,0.049-0.176c0.065-0.054,0.107-0.079,0.269-0.084
					c0.16-0.004,0.208,0.089,0.208,0.089s0.054,0.077,0.055,0.126c0,0.049-0.016,0.078-0.016,0.078s-0.087,0.149-0.118,0.221
					c-0.03,0.07-0.149,0.312-0.115,0.512l0,0v0.002c0.036,0.201,0.348,0.294,0.348,0.294s0.25,0.06,0.606,0.006l0.733-0.118
					l0.127-0.147l0.001,0.004l-0.126,0.144c0.019,0.267,0.04,0.791,0.037,0.966c-0.004,0.214-0.036,0.668-0.262,0.774
					c0,0-0.077,0.041-0.204-0.055c-0.128-0.098-0.267-0.102-0.323-0.103c-0.055-0.002-0.302,0.037-0.397,0.308
					c-0.097,0.27-0.088,0.631-0.068,0.847c0.021,0.213,0.207,0.577,0.44,0.577c0,0,0.114,0.009,0.248-0.13
					c0.133-0.139,0.212-0.149,0.272-0.148c0.06,0.004,0.176,0.065,0.252,0.671c0.072,0.574,0.104,1.045,0.098,1.567l0.138,0.091
					c0,0.001,0,0.001,0,0.001c-0.001,0-0.001,0-0.002,0l-0.14-0.092c-0.076,0.01-0.168,0.019-0.262,0.026
					c-0.237,0.016-0.583-0.015-1.011-0.14c-0.414-0.124-0.675-0.344-0.728-0.486c-0.001-0.005-0.005-0.012-0.006-0.017
					c-0.006-0.024-0.009-0.049-0.01-0.073c0-0.006,0-0.013,0-0.021c0-0.073,0.018-0.141,0.018-0.141s0.081-0.308,0.03-0.564
					c-0.005-0.027-0.012-0.057-0.019-0.082c-0.001-0.011-0.003-0.02-0.004-0.025c-0.002-0.007-0.004-0.014-0.006-0.02
					c-0.002-0.006-0.004-0.011-0.007-0.016c-0.057-0.188-0.149-0.342-0.347-0.462c-0.247-0.148-0.387-0.122-0.387-0.122
					s-0.221-0.034-0.212,0.341c0.008,0.374,0.055,0.529,0.055,0.529s0.043,0.133-0.025,0.15c-0.068,0.017-0.174-0.085-0.174-0.085
					s-0.048-0.045-0.114-0.107c-0.008-0.01-0.016-0.019-0.025-0.028c-0.044-0.045-0.093-0.095-0.141-0.146l0.022-0.055
					C106.256,90.25,106.252,90.208,106.23,90.175z M106.656,92.387c0.001-0.002,0.001-0.003,0.001-0.003
					c0.02-0.004,0.137,0.208,0.203,0.409c0.078,0.233,0.13,0.427,0.13,0.427s0.043,0.132,0.04,0.179
					C106.891,93.067,106.766,92.729,106.656,92.387z M107.815,94.935l-0.02-0.07c-0.007-0.026-0.022-0.046-0.043-0.064l-0.029-0.021
					c-0.221-0.373-0.416-0.758-0.592-1.148c0.001-0.002,0.001-0.007,0.001-0.01c0.001-0.008,0.003-0.016,0.003-0.025
					c0-0.009,0-0.019-0.001-0.028c0-0.015-0.002-0.028-0.005-0.049c-0.001-0.004-0.001-0.007-0.001-0.015
					c0-0.001,0-0.001-0.001-0.001c-0.019-0.112-0.07-0.3-0.184-0.605c-0.123-0.333-0.202-0.51-0.251-0.607c0,0,0,0,0-0.003
					c-0.005-0.008-0.01-0.017-0.014-0.024v0.003c-0.042-0.078-0.06-0.09-0.064-0.098c-0.006-0.007-0.022-0.021-0.032-0.017
					c-0.153-0.52-0.269-1.051-0.351-1.592c0.019,0.021,0.04,0.046,0.062,0.07v0.003c0.041,0.044,0.089,0.098,0.147,0.156h0.001l0,0
					l0,0c0.255,0.265,0.336,0.098,0.336,0.098s0.004-0.012,0.008-0.032c0-0.004,0-0.006,0.001-0.009
					c0.002-0.009,0.004-0.02,0.005-0.033c0.002-0.004,0.002-0.009,0.002-0.015c0.001-0.013,0.002-0.025,0.003-0.042
					c0-0.003,0-0.004,0-0.008v0.003c0.002-0.032,0.002-0.068-0.001-0.112c0,0.002,0,0.003,0.001,0.006
					c0-0.003-0.001-0.004-0.001-0.006c-0.001-0.021-0.004-0.044-0.006-0.068c-0.001-0.014-0.002-0.024-0.005-0.039
					c-0.003-0.024-0.009-0.054-0.016-0.081c-0.002-0.01-0.003-0.021-0.006-0.03c0-0.001,0-0.001,0-0.004
					c-0.044-0.185-0.056-0.323-0.026-0.4c0.008-0.021,0.02-0.037,0.034-0.049c0.005-0.004,0.009-0.006,0.015-0.009
					c0.012-0.006,0.025-0.01,0.04-0.012c0.005,0,0.009-0.001,0.015-0.001c0.135,0.004,0.531,0.085,0.654,0.412
					c0,0,0.05,0.152,0.004,0.347c-0.048,0.196-0.039,0.369-0.004,0.54c0.034,0.171,0.179,0.33,0.344,0.463
					c0.165,0.133,0.646,0.362,1.113,0.391c0.467,0.03,0.612,0.006,0.612,0.006l0.174-0.179c0,0.002,0,0.002,0,0.003l-0.174,0.178
					c-0.011,0.046-0.021,0.098-0.034,0.146c-0.04,0.161-0.043,0.321-0.005,0.604c0.038,0.285,0.191,0.875,0.413,1.03
					c0.294,0.204,0.487,0.2,0.686,0.186c0.198-0.017,0.334-0.168,0.334-0.168s0.078-0.08,0.162-0.056
					c0.083,0.025,0.316,0.154,0.484,0.489c0.167,0.335,0.205,0.704-0.074,0.77c-0.28,0.064-0.761-0.198-0.761-0.198
					s-0.272-0.153-0.496,0.015c-0.223,0.168-0.23,0.425-0.118,0.742c0.062,0.173,0.184,0.455,0.355,0.75l0.167,0.069h-0.002
					l-0.167-0.072c-0.268-0.051-0.763-0.156-0.959-0.254c-0.076-0.038-0.137-0.058-0.181-0.081c-0.021-0.014-0.038-0.026-0.05-0.043
					c-0.02-0.029-0.027-0.068-0.019-0.136c0.024-0.18-0.177-0.432-0.177-0.432s-0.28-0.303-0.531-0.491
					c-0.25-0.188-0.358-0.132-0.358-0.132s-0.113,0.061-0.011,0.306c0.102,0.243,0.201,0.329,0.201,0.329s0.049,0.053,0.022,0.066
					c-0.028,0.015-0.114-0.051-0.186-0.112c-0.033-0.027-0.167-0.151-0.301-0.276C107.912,95.081,107.86,95.009,107.815,94.935z
					 M113.881,99.93c0.312,0.039,0.709,0.087,0.845,0.1l0.003-0.003c-0.002,0.022-0.01,0.044-0.023,0.073
					c-0.023,0.054,0.026,0.094,0.072,0.118C114.475,100.135,114.177,100.036,113.881,99.93z M114.87,99.964L114.87,99.964h0.035
					c-0.029-0.025-0.065-0.049-0.106-0.073c-0.004-0.004-0.007-0.005-0.011-0.008c0.003,0.002,0.006,0.004,0.009,0.007
					c-0.012-0.008-0.023-0.016-0.038-0.022c-0.165-0.088-0.877-0.559-1.099-0.707c-0.147-0.102-0.368-0.244-0.549-0.314
					c-0.014-0.004-0.025-0.009-0.037-0.013c-0.075-0.024-0.141-0.036-0.19-0.022c-0.129,0.041-0.112,0.094-0.188,0.131
					c-0.059,0.028-0.12,0.021-0.226-0.025c-0.002-0.001-0.004-0.001-0.006-0.003c-0.036-0.016-0.076-0.036-0.123-0.062
					c-0.014-0.008-0.027-0.015-0.042-0.021c-0.022-0.012-0.044-0.024-0.066-0.036c-0.117-0.063-0.237-0.141-0.429-0.311
					c-0.018-0.016-0.033-0.028-0.052-0.046c-0.038-0.034-0.078-0.07-0.122-0.114c-0.293-0.278,0.375-0.025,0.375-0.025
					s0.146,0.061,0.082-0.091c-0.008-0.017-0.02-0.039-0.034-0.063c-0.007-0.013-0.017-0.026-0.027-0.042
					c-0.008-0.012-0.016-0.023-0.024-0.036c-0.013-0.018-0.027-0.037-0.042-0.058c-0.008-0.012-0.016-0.021-0.025-0.033
					c-0.016-0.021-0.034-0.044-0.052-0.067c-0.01-0.011-0.019-0.023-0.029-0.035c-0.018-0.023-0.037-0.047-0.057-0.069
					c-0.013-0.016-0.026-0.032-0.04-0.048c-0.018-0.021-0.034-0.041-0.052-0.063c-0.021-0.024-0.043-0.049-0.066-0.074
					c-0.011-0.013-0.022-0.024-0.033-0.037c-0.026-0.029-0.053-0.061-0.081-0.089c0.002,0.001,0.002,0.001,0.004,0.004
					c-0.048-0.053-0.098-0.106-0.147-0.156c-0.094-0.097-0.17-0.183-0.242-0.266c0.002,0.003,0.004,0.006,0.006,0.008
					c-0.123-0.143-0.225-0.28-0.335-0.441l-0.131-0.151c0.001,0.001,0.002,0.003,0.003,0.004l-0.005-0.005l-0.045,0.127
					c0.116,0.177,0.249,0.349,0.395,0.495c0,0,0.579,0.643,0.902,1.049c0,0,0.02,0.036-0.037,0.004
					c-0.056-0.035-0.297-0.146-0.428-0.134c-0.13,0.014-0.106,0.093-0.106,0.093s0.057,0.295,0.943,0.793c0,0,0.319,0.18,0.521,0.18
					c0,0,0.065,0.009,0.146-0.082c0.082-0.089,0.106-0.079,0.162-0.061c0.057,0.018,0.13,0.058,0.409,0.26
					c0.28,0.202,0.823,0.511,1.018,0.643c0.063,0.041,0.104,0.072,0.13,0.098c-0.398-0.032-0.836-0.083-1.066-0.116
					c-0.104-0.04-0.205-0.084-0.307-0.126c-0.049-0.029-0.106-0.064-0.162-0.098c-0.122-0.075-0.488-0.213-0.488-0.213
					s-0.037-0.017-0.089-0.034c-0.437-0.224-0.859-0.473-1.265-0.746c0.07,0.023,0.145,0.035,0.199,0.003
					c-0.013-0.135-0.165-0.242-0.251-0.307c-0.032-0.025-0.054-0.066-0.084-0.094c-0.111-0.099-0.241-0.194-0.363-0.279
					c-0.1-0.069-0.237-0.112-0.326-0.195c-0.003-0.02,0.029-0.07,0.009-0.12c-0.079-0.212-0.374-0.456-0.558-0.568
					c-0.086-0.054-0.229-0.077-0.308-0.131c-0.058-0.004-0.088-0.005-0.102,0.037c-0.023,0.051,0.05,0.122,0.075,0.157
					c0.064,0.091,0.136,0.194,0.224,0.261c0.065,0.049,0.139,0.093,0.194,0.148h0.028c-0.036-0.1-0.143-0.154-0.223-0.213
					c-0.074-0.053-0.106-0.149-0.168-0.214c0.005-0.03,0.008-0.027,0.019-0.047c0.257,0.003,0.424,0.238,0.54,0.392
					c0.051,0.067,0.134,0.108,0.139,0.223c-0.027,0-0.051,0-0.065-0.009h-0.026c0.044,0.122,0.194,0.111,0.298,0.177
					c0.209,0.13,0.377,0.331,0.558,0.492c0.062,0.056,0.169,0.109,0.186,0.205c-0.126-0.006-0.216-0.076-0.296-0.129
					c-0.01-0.007-0.022-0.016-0.033-0.022c-0.119-0.088-0.235-0.179-0.351-0.271c-0.036-0.032-0.068-0.066-0.092-0.098
					c-0.019-0.024-0.025-0.062-0.047-0.083c-0.025-0.026-0.062-0.035-0.083-0.065h-0.037c-0.002,0.018,0.004,0.032,0.009,0.046
					c-0.825-0.688-1.562-1.494-2.188-2.406c0.013,0.011,0.023,0.021,0.037,0.03c0.273,0.215,0.343,0.203,0.361,0.185
					c0.006-0.006,0.006-0.013,0.006-0.013s0.014-0.096-0.07-0.199c-0.023-0.027-0.05-0.066-0.076-0.106
					c-0.011-0.018-0.022-0.035-0.033-0.054c-0.032-0.055-0.061-0.112-0.074-0.159c-0.001-0.004-0.001-0.005-0.002-0.008
					c-0.003-0.014-0.006-0.025-0.006-0.037c-0.001-0.012,0-0.021,0.004-0.032c0-0.001,0-0.004,0-0.005
					c0.034-0.08,0.073-0.073,0.073-0.073s0.031-0.013,0.14,0.07c0.108,0.082,0.352,0.254,0.473,0.401
					c0.118,0.146,0.113,0.273,0.112,0.277c0,0-0.001,0.008-0.001,0.022c-0.001,0.043,0.008,0.146,0.107,0.252
					c0.131,0.143,0.408,0.404,1.379,0.554c0.005,0,0.009,0,0.014,0.002l0.045-0.129v0.002l0,0l0.002,0.001l0,0l0.131,0.152
					c0.001,0,0.002,0,0.004,0c0.844,0.123,1.303,0.133,1.303,0.133s1.107,0.039,1.408,0.039c0.254,0,0.251,0.113,0.246,0.146
					c-0.002,0.006-0.002,0.009-0.002,0.009s-0.017,0.085-0.053,0.151c-0.023,0.044-0.065,0.159-0.072,0.271
					c-0.004,0.068,0.004,0.137,0.037,0.187c0,0,0.138,0.336,1.031,0.36c0,0,0.782,0.062,1.327-0.161
					c0.171-0.071,0.24-0.149,0.253-0.225c0.033-0.166-0.2-0.313-0.2-0.313s-0.187-0.114-0.266-0.174
					c-0.036-0.027-0.046-0.055-0.046-0.083c0-0.023,0.011-0.047,0.018-0.067c0.015-0.037,0.07-0.084,0.133-0.114
					c0.062-0.032,0.292-0.155,1.262-0.405c0.97-0.251,1.549-0.278,1.549-0.278s0.005,0,0.009-0.002
					c0.094,0.227,0.165,0.351,0.307,0.506c0.152,0.164,0.393,0.294,0.677,0.404c0.286,0.107,0.155,0.301,0.155,0.301
					c-0.162,0.352-0.647,0.366-0.789,0.384c-0.142,0.016-0.44,0.044-0.719,0.105c-0.278,0.06-0.539,0.098-0.696,0.278
					c-0.154,0.178-0.093,0.364-0.002,0.562c0.092,0.197,0.336,0.302,0.671,0.287c0.335-0.013,0.552-0.11,0.755-0.2
					c0.204-0.086,0.556-0.188,0.662-0.219c0.104-0.029,0.247-0.093,0.353,0.062c0.113,0.165,0.233,0.398,0.289,0.576l0.129-0.03
					c0,0.003,0,0.003,0,0.003c-0.023,0.005-0.044,0.009-0.06,0.014c-0.039,0.008-0.06,0.015-0.06,0.015s-0.285,0.067-0.76,0.253
					c-0.474,0.183-1.404,0.335-1.404,0.335s-0.303,0.035-0.498,0.084c0.023-0.008,0.042-0.012,0.042-0.012s0.225-0.046,0.452-0.077
					c0,0-0.599,0.069-0.654,0.147c-0.019,0.032-0.016,0.057-0.006,0.075c0.015,0.031,0.054,0.046,0.054,0.046
					s0.084,0.054,0.392,0.068c0,0,0.106,0,0.111,0.009l0,0c0.001,0.002,0.002,0.004,0.002,0.006c0,0-0.001,0.003-0.002,0.004
					c-0.001,0.003-0.006,0.007-0.016,0.012c-0.009,0.004-0.021,0.008-0.041,0.014c-0.067,0.022-0.2,0.075-0.652,0.131
					c-0.3,0.039-0.396,0.021-0.429,0.003l0,0c-0.019-0.01-0.017-0.018-0.017-0.018s0-0.007,0.001-0.014
					c0.002-0.007,0.007-0.021,0.017-0.038c0.005-0.006,0.008-0.017,0.008-0.026c0.001-0.031-0.022-0.069-0.076-0.1
					c0,0-0.019-0.012-0.064-0.025c0,0,0.004,0.003,0.008,0.005c-0.06-0.019-0.174-0.042-0.375-0.041
					c-0.331,0.004-0.99,0.006-1.607-0.03C114.899,99.965,114.884,99.964,114.87,99.964z M116.328,100.536
					c-0.205-0.027-0.408-0.06-0.61-0.098c0.122-0.008,0.207-0.012,0.31,0.01c0.148,0.03,0.301,0.067,0.316,0.08
					C116.35,100.534,116.34,100.534,116.328,100.536z M118.742,100.621c0.162-0.022,0.354-0.034,0.462-0.044
					c0.045-0.007,0.076-0.007,0.097-0.007C119.116,100.593,118.929,100.61,118.742,100.621z M119.587,100.536
					c-0.013-0.009-0.045-0.016-0.121-0.02c-0.067-0.003-0.136-0.003-0.205,0c-0.098,0-0.227,0.007-0.343,0.021
					c-0.08,0.012-0.162,0.024-0.233,0.039c-0.023,0.002-0.045,0.005-0.068,0.008c-0.151,0.021-0.22,0.042-0.25,0.056
					c-0.132,0.005-0.264,0.01-0.396,0.01c-0.475,0-0.943-0.032-1.406-0.085c0.014-0.016-0.019-0.033-0.041-0.045
					c-0.012-0.005-0.021-0.009-0.021-0.009s-0.021-0.011-0.063-0.023l0,0c-0.005-0.001-0.008-0.004-0.013-0.005
					c0.002,0.001,0.005,0.001,0.007,0.001c-0.024-0.008-0.055-0.017-0.091-0.024c-0.001-0.002-0.002-0.002-0.003-0.002
					c-0.028-0.007-0.058-0.016-0.092-0.021h-0.001c-0.07-0.018-0.155-0.031-0.257-0.044c0.003,0.001,0.006,0.001,0.009,0.002
					c-0.053-0.007-0.109-0.014-0.172-0.019c0,0-0.189-0.014-0.354,0.003c-0.006,0.002-0.014,0.002-0.021,0.002
					c0.001,0,0.002,0,0.003-0.002c-0.002,0.002-0.005,0-0.006,0c-0.123-0.026-0.244-0.052-0.364-0.082
					c-0.067-0.027-0.167-0.079-0.126-0.132c0.029-0.038,0.032-0.077,0.015-0.118c0.259,0.019,0.601,0.035,0.601,0.035
					s0.7,0.025,1.083-0.004c0.172-0.017,0.119,0.074,0.119,0.074s-0.05,0.084,0.048,0.124c0,0,0.181,0.104,0.786,0.038
					c0.605-0.068,0.739-0.203,0.739-0.203s0.07-0.064-0.083-0.093c-0.01-0.002-0.017-0.005-0.025-0.006
					c-0.003-0.001-0.008-0.003-0.009-0.004c-0.002,0-0.003,0-0.005,0c-0.003,0-0.004,0-0.005-0.001c-0.001,0-0.002,0-0.002,0
					c-0.002,0-0.004,0-0.005-0.002c0,0-0.002,0-0.004,0c-0.001,0-0.002,0-0.004,0c0,0-0.002-0.001-0.004-0.001
					c-0.001,0-0.003,0-0.004,0C118.198,100,118.197,100,118.196,100s-0.003,0-0.003,0c-0.002,0-0.003,0-0.004,0
					C118.188,100,118.186,100,118.186,100c-0.002,0-0.003,0-0.005,0c-0.002,0-0.002,0-0.002,0c-0.002-0.001-0.005-0.001-0.007-0.001
					l0,0c-0.002,0-0.004,0-0.006,0c0-0.002-0.001-0.002-0.002-0.002c-0.002,0-0.003,0-0.004,0c-0.002,0-0.002,0-0.002,0
					c-0.002,0-0.003,0-0.005,0c0,0-0.001,0-0.002,0s-0.004,0-0.004,0c-0.001,0-0.002-0.001-0.002-0.001c-0.002,0-0.004,0-0.005,0
					c-0.001,0-0.001,0-0.001,0c-0.009-0.001-0.019-0.001-0.03-0.001h-0.001c-0.002,0-0.003-0.002-0.005-0.002
					c-0.001,0-0.002,0-0.003,0s-0.003,0-0.005,0c-0.001,0-0.002,0-0.003,0s-0.002-0.001-0.004-0.001c-0.001,0-0.002,0-0.004,0
					s-0.002,0-0.004,0s-0.005,0-0.006-0.002c-0.001,0-0.003,0-0.005,0c-0.001,0-0.004,0-0.006,0c0,0-0.002,0-0.003,0
					c-0.002,0-0.004,0-0.006,0c-0.001-0.002-0.003-0.002-0.005-0.002s-0.004,0-0.006,0c-0.001,0-0.003,0-0.005,0
					c-0.001-0.001-0.004-0.001-0.006-0.001s-0.004,0-0.005,0c-0.002,0-0.005-0.001-0.006-0.001s-0.003,0-0.006,0
					c-0.003,0-0.005,0-0.007-0.002c-0.002,0-0.003,0-0.005,0c-0.005,0-0.009-0.001-0.014-0.001
					c-0.033-0.005-0.063-0.008-0.089-0.013l-0.037-0.005c-0.057-0.016-0.067-0.037,0-0.055c0.104-0.026,0.276-0.042,0.276-0.042
					s0.529-0.073,0.957-0.184c0,0,0.455-0.107,0.908-0.268c0.178-0.062,0.328-0.106,0.444-0.14l0.103-0.151c0,0.001,0,0.001,0,0.001
					l-0.101,0.148c0.022,0.154-0.025,0.207-0.06,0.263c-0.037,0.063-0.139,0.141-0.088,0.28c0.051,0.139,0.396,0.095,0.597,0.034
					c0.199-0.062,0.368-0.115,0.501-0.163c0.131-0.046,0.168,0.019,0.168,0.019s0.059,0.042-0.135,0.145
					c-0.043,0.021-0.094,0.04-0.148,0.058c-0.007,0.003-0.013,0.006-0.021,0.007c-0.043,0.015-0.088,0.024-0.134,0.034
					c-0.012,0.003-0.024,0.007-0.035,0.01c-0.038,0.006-0.076,0.014-0.112,0.021c-0.016,0.003-0.03,0.005-0.046,0.007
					c-0.03,0.006-0.06,0.01-0.087,0.015c-0.017,0.003-0.034,0.004-0.048,0.006c-0.031,0.005-0.062,0.009-0.086,0.011
					c-0.021,0.003-0.039,0.004-0.053,0.004c-0.01,0.003-0.018,0.004-0.026,0.004c-0.004,0-0.011,0-0.015,0
					c-0.01,0.002-0.02,0.002-0.028,0.003c-0.006,0-0.013,0.001-0.019,0.003c-0.003,0-0.006,0-0.01,0
					c-0.008,0.001-0.017,0.002-0.025,0.005c-0.001,0.001-0.003,0.001-0.005,0.001c-0.037,0.008-0.09,0.024-0.191,0.059
					c-0.255,0.089-0.017,0.166-0.017,0.166c0.128,0.034,0.247,0.052,0.356,0.063C120.32,100.417,119.955,100.485,119.587,100.536z
					 M124.441,98.698c-0.005,0.006-0.01,0.01-0.016,0.016c-1.065,0.695-2.245,1.227-3.5,1.555c-0.113-0.009-0.192-0.024-0.232-0.03
					c-0.102-0.013-0.183-0.032-0.207-0.085c-0.004-0.005-0.004-0.012-0.003-0.016c0.011-0.033,0.115-0.03,0.115-0.03h0.001
					c0,0,0.021-0.003,0.056-0.007c0.103-0.015,0.332-0.05,0.574-0.116c0.044-0.012,0.088-0.024,0.132-0.04
					c0.366-0.119,0.455-0.229,0.44-0.315c-0.002-0.012-0.008-0.023-0.018-0.029c-0.003-0.004-0.006-0.007-0.01-0.01
					c-0.008-0.005-0.018-0.009-0.028-0.011c-0.005-0.002-0.011-0.004-0.016-0.007c-0.015-0.002-0.031-0.004-0.049-0.004
					c-0.004,0-0.006-0.001-0.009-0.001c-0.021,0-0.046,0.003-0.071,0.005c-0.004,0-0.006,0-0.011,0c0.002,0,0.004,0,0.006,0
					c-0.063,0.009-0.136,0.025-0.212,0.05c-0.221,0.072-0.549,0.177-0.626,0.194c-0.02,0.002-0.039,0.006-0.057,0.007
					c0.001,0,0.002,0,0.005,0c-0.029,0.002-0.056,0-0.079-0.006c-0.002-0.001-0.006-0.001-0.009-0.003
					c-0.022-0.006-0.041-0.017-0.051-0.033l0,0c-0.027-0.049-0.051-0.124,0.034-0.213c0.084-0.09,0.095-0.163,0.095-0.163
					c0.008-0.038,0.01-0.079,0.009-0.12c0-0.011-0.001-0.021-0.002-0.031c0-0.013,0-0.024-0.001-0.037
					c0.014-0.002,0.023-0.004,0.023-0.004s0.542-0.127,0.77-0.166c0.227-0.039,0.742-0.15,0.961-0.256
					c0.218-0.104,0.328-0.188,0.354-0.253c0.025-0.063-0.092-0.101-0.092-0.101s-0.139-0.032-0.12-0.08
					c0.018-0.047,0.069-0.088,0.286-0.187c0.216-0.097,0.486-0.2,0.759-0.27c0.271-0.066,0.172,0.046,0.172,0.046
					s-0.163,0.167-0.185,0.23c-0.02,0.063,0.007,0.068,0.028,0.077c0.021,0.015,0.152,0.008,0.241-0.014
					c0.09-0.024,0.814-0.3,1.256-0.552c0.011-0.008,0.021-0.013,0.032-0.02l0.093-0.153v0.001l0,0
					c-0.005,0.008-0.007,0.015-0.012,0.021c-0.132,0.213-0.187,0.336-0.187,0.336s-0.068,0.13-0.074,0.203
					c-0.005,0.074-0.06,0.065-0.06,0.065s-0.112-0.008-0.274,0.063c-0.005,0.002-0.008,0.003-0.014,0.005
					c0,0-0.006,0.003-0.017,0.009c-0.053,0.026-0.11,0.059-0.171,0.103c-0.01,0.009-0.021,0.014-0.032,0.022
					c-0.006,0.004-0.015,0.009-0.021,0.015c-0.173,0.144-0.292,0.264-0.36,0.337c-0.004,0.007-0.006,0.009-0.009,0.013
					c-0.036,0.041-0.055,0.064-0.055,0.064s-0.1,0.132-0.004,0.132c0.097,0,0.322-0.116,0.41-0.192
					C124.484,98.634,124.441,98.698,124.441,98.698z M126.52,96.94c-0.151,0.168-0.228,0.237-0.228,0.237s-0.026,0.025-0.055,0.059
					l-0.003,0.003c0,0.001-0.001,0.005-0.002,0.005l0,0c-0.019,0.023-0.036,0.048-0.047,0.07c-0.496,0.477-1.03,0.91-1.601,1.295
					c0.011-0.02,0.017-0.035,0.009-0.041l0,0l0,0c-0.03-0.024-0.147,0.061-0.147,0.061s-0.017,0.015-0.043,0.033l0,0
					c-0.032,0.022-0.078,0.054-0.125,0.076c-0.013,0.006-0.026,0.014-0.039,0.018c-0.007,0.005-0.015,0.006-0.023,0.009
					c-0.017,0.006-0.034,0.009-0.047,0.007c-0.093-0.007,0.112-0.203,0.112-0.203s0.12-0.135,0.265-0.217
					c0.049-0.028,0.1-0.05,0.151-0.061c0.203-0.036,0.241-0.086,0.339-0.162c0.034-0.026,0.058-0.052,0.082-0.089
					c0.05-0.076,0.104-0.194,0.239-0.441c0.008-0.015,0.016-0.027,0.024-0.042l0,0c0.26-0.146,0.353-0.19,0.414-0.227
					c0.278-0.165,0.609-0.366,0.697-0.436C126.493,96.894,126.671,96.772,126.52,96.94z M128.201,94.774
					c0.071-0.156,0.129-0.32,0.202-0.481c0.07-0.16,0.172-0.319,0.167-0.549c-0.011-0.012-0.019-0.024-0.027-0.037h-0.057
					c-0.056,0.048-0.133,0.069-0.195,0.111c-0.094,0.068-0.178,0.155-0.27,0.224c-0.041,0.032-0.103,0.061-0.131,0.103
					c-0.047,0.07-0.037,0.189-0.093,0.251v0.036c0.074-0.026,0.109-0.113,0.168-0.156c0.072-0.056,0.132-0.128,0.204-0.179
					c0.045-0.032,0.097-0.047,0.14-0.083c0.029,0.005,0.027,0.008,0.047,0.02c-0.005,0.236-0.129,0.403-0.205,0.577
					c-0.022,0.05-0.029,0.129-0.065,0.166c-0.018,0.019-0.054,0.022-0.074,0.036c-0.063,0.069-0.125,0.139-0.187,0.207
					c-0.059,0.08-0.087,0.188-0.149,0.269c0,0.027,0,0.051,0.008,0.064c0.01,0.008,0.026,0.016,0.038,0.02
					c0.102-0.097,0.201-0.183,0.29-0.289c-0.403,0.637-0.865,1.23-1.377,1.776c0.011-0.015,0.022-0.028,0.031-0.039
					c0.005-0.007,0.008-0.012,0.012-0.018c0.072-0.1,0.022-0.095,0.022-0.095s-0.016-0.001-0.061,0.016
					c-0.006,0.003-0.014,0.005-0.022,0.009c-0.004,0.003-0.006,0.003-0.01,0.004v0.002c-0.034,0.017-0.079,0.04-0.14,0.079
					c-0.188,0.118-0.321,0.201-0.321,0.201s-0.405,0.231-0.663,0.383c-0.002,0.001-0.005,0.002-0.007,0.005
					c0.001-0.003,0.001-0.003,0.001-0.003c0.002-0.001,0.005-0.002,0.007-0.004c-0.002,0.002-0.005,0.003-0.007,0.003
					c0.186-0.287,0.404-0.54,0.569-0.725c0.203-0.226,0.447-0.594,0.447-0.594s0.149-0.26,0.156-0.379
					c0-0.018-0.002-0.032-0.008-0.042c-0.002-0.004-0.011-0.004-0.015-0.007c-0.005-0.004-0.01-0.008-0.017-0.008
					c-0.057-0.009-0.178,0.052-0.364,0.191c-0.169,0.126-0.305,0.212-0.418,0.271c-0.005,0.004-0.009,0.005-0.015,0.007
					c0.005-0.002,0.01-0.004,0.015-0.007c-0.064,0.03-0.13,0.053-0.188,0.058c-0.151,0.017-0.205-0.074-0.22-0.17
					c-0.008-0.058-0.003-0.118,0.003-0.16c0.017-0.109,0.074-0.363,0.25-0.463c0.177-0.101,0.424-0.097,0.596-0.121
					c0.174-0.024,0.254-0.073,0.254-0.073s0.283-0.18,0.47-0.483c0.187-0.304,0.353-0.793,0.373-1.28c0-0.004,0-0.009,0-0.014
					c0.001-0.048,0-0.094-0.002-0.135c-0.001-0.017-0.003-0.032-0.005-0.048c-0.003-0.03-0.007-0.063-0.013-0.091
					c-0.002-0.012-0.004-0.024-0.006-0.036c-0.008-0.036-0.017-0.07-0.027-0.103h0.001c0.465-0.37,0.91-0.84,0.91-0.84
					s0.295-0.298,0.445-0.554c0.012-0.02,0.02-0.035,0.027-0.044c0.003-0.005,0.006-0.008,0.008-0.011
					c0.006-0.007,0.011-0.013,0.015-0.015c0,0,0.001-0.002,0.002-0.002c0.003-0.002,0.006,0,0.008,0.005
					c0.001,0,0.001,0.003,0.001,0.005c0.001,0.004,0.002,0.01,0.001,0.019c0,0-0.001,0.003-0.001,0.004v0.001
					c0,0-0.121,0.341-0.078,0.508c0,0.002,0,0.003,0,0.004c0-0.001-0.001-0.001-0.001-0.002c0,0.002,0.001,0.005,0.001,0.01
					c0.002,0.035,0.006,0.067,0.014,0.1c0.002,0.009,0.005,0.019,0.008,0.026c0.01,0.033,0.023,0.064,0.043,0.087
					c0,0.002,0,0.002,0,0.003c0.005,0.005,0.01,0.005,0.014,0.007c0.105,0.071,0.354-0.194,0.354-0.194s0.162-0.186,0.228-0.483
					c0.061-0.275,0.062-0.415,0.055-0.479c-0.004-0.038-0.011-0.05-0.011-0.05s-0.059-0.093-0.022-0.202
					c0.003-0.009,0.009-0.023,0.015-0.038c0.059-0.162,0.26-0.66,0.435-0.881C129.608,91.709,129.051,93.338,128.201,94.774z
					 M127.983,94.963c-0.012,0.093-0.082,0.175-0.149,0.213v0.011h-0.01c0.016-0.112,0.102-0.143,0.14-0.224H127.983z
					 M128.691,91.741c-0.01,0.037-0.018,0.065-0.018,0.065s-0.001,0.006-0.002,0.011c0-0.004,0.002-0.011,0.002-0.011
					S128.681,91.778,128.691,91.741z M129.821,89.525l-0.057,0.096c-0.019,0.033-0.021,0.071-0.008,0.104l0.026,0.063
					c-0.001,0.001-0.002,0.002-0.004,0.005c0,0.001,0,0.001-0.001,0.001c-0.003,0.006-0.007,0.013-0.011,0.017
					c-0.042,0.068-0.096,0.153-0.16,0.262c-0.298,0.49-0.345,0.887-0.345,0.887s-0.028,0.153-0.013,0.242
					c0.004,0.018,0.007,0.033,0.012,0.046c0,0.003,0.001,0.004,0.001,0.005c0.004,0.015,0.008,0.026,0.013,0.036l0.001,0.002
					c0,0,0,0,0,0.001c0.005,0.013,0.01,0.024,0.013,0.034c0.001,0.002,0.001,0.003,0.001,0.006c0.003,0.005,0.004,0.013,0.005,0.018
					c0,0.011-0.003,0.058-0.016,0.124c-0.003,0.014-0.006,0.026-0.009,0.039c-0.003,0.01-0.006,0.021-0.009,0.034
					c-0.007,0.026-0.015,0.054-0.025,0.081c-0.003,0.011-0.007,0.021-0.011,0.028c-0.013,0.032-0.025,0.064-0.043,0.098
					c-0.002,0.004-0.004,0.008-0.006,0.013c-0.103,0.191-0.192,0.242-0.192,0.242s-0.177,0.128-0.202,0.037
					c-0.024-0.092-0.018-0.17-0.008-0.229c0.008-0.058,0.068-0.371,0.06-0.485c-0.008-0.117-0.112-0.023-0.112-0.023
					s-0.024,0.027-0.071,0.085c-0.046,0.059-0.302,0.386-0.4,0.5c-0.233,0.271-0.444,0.468-1.01,0.925
					c-0.002,0.001-0.003,0.003-0.004,0.004c-0.002-0.003-0.004-0.004-0.005-0.007c-0.022-0.036-0.043-0.065-0.063-0.09
					c-0.024-0.033-0.047-0.059-0.061-0.078c-0.067-0.086-0.189-0.047-0.337-0.407c-0.147-0.357-0.182-0.66-0.179-0.871
					c0-0.031,0.001-0.06,0.003-0.086c0.014-0.209,0.064-0.289,0.16-0.379c0.097-0.09,0.523-0.05,0.523-0.05s0.21,0.042,0.397-0.267
					c0.139-0.23,0.167-0.569,0.147-0.834c-0.006-0.091-0.019-0.173-0.035-0.237c-0.059-0.254-0.146-0.475-0.493-0.51
					c-0.346-0.036-0.502,0.391-0.502,0.391s-0.07,0.163-0.144,0.257c-0.074,0.094-0.273,0.066-0.273,0.066
					c-0.086-0.012-0.192,0.023-0.297-0.191c-0.103-0.211-0.339-0.771-0.339-0.771c-0.079-0.191-0.13-0.356-0.162-0.483l-0.17-0.071
					l0,0l0.169,0.069c0.24-0.132,0.651-0.371,0.944-0.619c0.44-0.371,0.87-0.758,0.979-0.855c0.109-0.099,0.209-0.176,0.307-0.172
					c0.097,0.005,0.172,0.074,0.233,0.337c0.06,0.262,0.072,0.479,0.1,0.606c0.028,0.129,0.067,0.277,0.219,0.307
					c0.153,0.031,0.356-0.103,0.433-0.166c0.02-0.019,0.043-0.044,0.067-0.078c0-0.002,0.003-0.003,0.004-0.006
					c0.01-0.015,0.021-0.03,0.031-0.05c0.059-0.102,0.111-0.251,0.106-0.429c0,0,0.015-0.378-0.179-0.734
					c0,0-0.082-0.146-0.113-0.185c-0.02-0.029-0.036-0.058-0.001-0.125c0.009-0.015,0.02-0.035,0.033-0.059
					c0.042-0.066,0.11-0.151,0.215-0.21c0.105-0.061,0.207-0.075,0.264-0.094c0,0,0.065-0.016,0.147-0.061V85.68
					c0,0,0-0.002,0.002-0.002c0,0.003,0.001,0.006,0.002,0.007c0.124,0.385,0.267,1.027,0.267,1.027s0.044,0.188,0.048,0.277
					c0.005,0.087-0.014,0.089-0.053,0.043s-0.078-0.018-0.078-0.018s-0.041,0.018-0.041,0.182c0,0.166,0.019,0.552,0.051,0.851
					c0.036,0.354,0.145,0.502,0.145,0.502s0.098,0.146,0.124-0.136c0.002-0.011,0.002-0.016,0.003-0.025
					c0.005,0.13,0.013,0.26,0.013,0.388C129.844,89.02,129.836,89.273,129.821,89.525z"/>
				<path opacity="0.88" fill="#FFFFFF" enable-background="new    " d="M111.49,97.45c0.013,0.015,0.025,0.028,0.038,0.041
					c-0.002-0.002-0.004-0.004-0.004-0.004L111.49,97.45z"/>
				<path opacity="0.88" fill="#FFFFFF" enable-background="new    " d="M109.633,86.409L109.633,86.409L109.633,86.409z"/>
				<path opacity="0.88" fill="#FFFFFF" enable-background="new    " d="M118.837,95.958L118.837,95.958L118.837,95.958z"/>
				<path opacity="0.88" fill="#FFFFFF" enable-background="new    " d="M124.001,95.501c-0.271-0.065-0.499,0.066-0.782,0.046
					c-0.026-0.028-0.048-0.045-0.065-0.083c-0.196,0.006-0.413,0.443-0.214,0.577c0.106,0.072,0.411,0.029,0.54,0
					c0.072-0.017,0.184-0.032,0.241,0.009c0.079,0.058,0.064,0.278,0.038,0.401c-0.032,0.229-0.063,0.458-0.093,0.688
					c-0.028,0.139-0.057,0.278-0.085,0.418c0.143,0,0.278-0.147,0.317-0.251c0.024-0.061,0.012-0.118,0.028-0.186
					c0.049-0.195,0.056-0.428,0.103-0.633c0.029-0.132,0.01-0.259,0.037-0.382c0.021-0.093,0.033-0.397,0.01-0.484
					C124.061,95.576,124.025,95.54,124.001,95.501z"/>
				<path opacity="0.88" fill="#FFFFFF" enable-background="new    " d="M110.814,79.868v-0.02h-0.038
					c-0.043,0.033-0.159,0.052-0.213,0.084c0.007,0.031,0.004,0.024,0.028,0.037c-0.033,0.091-0.141,0.159-0.196,0.233
					c-0.087,0.116-0.184,0.229-0.27,0.345c-0.029,0.039-0.048,0.099-0.083,0.13c-0.056,0.049-0.215,0.042-0.279,0.094h-0.019
					c0.013-0.08,0.213-0.329,0.27-0.383v-0.01c-0.096,0.014-0.17,0.065-0.233,0.111c0.01,0.021,0.008,0.019,0.028,0.028
					c-0.034,0.057-0.085,0.099-0.121,0.148c-0.046,0.064-0.071,0.142-0.121,0.204c0.003,0.011,0.006,0.02,0.009,0.029
					c0.06-0.006,0.307-0.083,0.345-0.112h0.027c-0.038,0.114-0.186,0.27-0.251,0.373c-0.037,0.058-0.06,0.135-0.112,0.178
					c0.009,0.008-0.001,0,0.009,0.008c0.02,0.012,0.191-0.033,0.224-0.056c0.02,0.005,0.018,0.003,0.028,0.009
					c0.01,0.018-0.113,0.233-0.14,0.263v0.01c0.046-0.004,0.118-0.013,0.149-0.037c0.09-0.07,0.11-0.221,0.176-0.317
					c-0.004-0.014-0.006-0.03-0.009-0.045c-0.053-0.01-0.161,0.006-0.205,0.036h-0.009c0.021-0.11,0.204-0.316,0.27-0.409
					c0.107-0.152,0.208-0.298,0.316-0.446c0.057-0.078,0.138-0.146,0.196-0.223C110.655,80.042,110.724,79.929,110.814,79.868z"/>
				<path opacity="0.88" fill="#FFFFFF" enable-background="new    " d="M113.391,95.447c-0.014,0.031-0.012,0.084-0.027,0.121
					c-0.081,0.197-0.107,0.238,0.019,0.428c0.056,0,0.063-0.009,0.093-0.027C113.512,95.814,113.518,95.52,113.391,95.447z"/>
				<path opacity="0.88" fill="#FFFFFF" enable-background="new    " d="M113.782,95.279c-0.039-0.063-0.115-0.08-0.167-0.131
					c-0.017-0.004-0.01-0.001-0.02-0.009c0.121-0.062,0.248-0.13,0.373-0.186c0.034,0.037,0.189,0.187,0.243,0.158
					c0.009-0.002,0.018-0.006,0.027-0.009c-0.002-0.053-0.005-0.104-0.009-0.158c-0.117-0.117-0.291-0.215-0.484-0.251v0.009h-0.01
					c0.022,0.064,0.094,0.125,0.15,0.158v0.028c-0.11,0.016-0.208,0.069-0.307,0.102c-0.068,0.023-0.15,0.021-0.205,0.057h-0.029
					c0.041-0.112,0.174-0.204,0.243-0.298c0.135-0.184,0.242-0.407,0.456-0.512c-0.006-0.087-0.253-0.265-0.345-0.205
					c-0.023,0.012-0.006-0.006-0.018,0.019c-0.015,0.033,0.032,0.075,0.018,0.13c-0.018,0.072-0.195,0.409-0.242,0.446v0.009
					c-0.096-0.031-0.169-0.123-0.26-0.167c0.016-0.087,0.088-0.151,0.129-0.214c0.107-0.16,0.192-0.313,0.354-0.419
					c-0.002-0.123-0.201-0.253-0.335-0.25c0.001,0.056,0.03,0.087,0.019,0.138c-0.033,0.151-0.102,0.306-0.158,0.438
					c-0.037,0.086-0.053,0.188-0.112,0.252c-0.012,0.006-0.116-0.002-0.14-0.02c-0.035,0-0.07,0.001-0.092,0.009v0.02
					c0.157,0.152,0.326,0.204,0.54,0.298c-0.03,0.153-0.186,0.258-0.261,0.373c-0.039,0-0.07-0.003-0.093-0.019
					c-0.022,0.004-0.023,0.004-0.037,0.011c0.003,0.136,0.117,0.253,0.232,0.277c0.077-0.085,0.173-0.127,0.288-0.176
					c0.106,0.111,0.136,0.268,0.177,0.445c0.017,0.078-0.012,0.165,0.009,0.231c0.036,0.122,0.1,0.158,0.158,0.242h0.066
					c0.041-0.219-0.06-0.431-0.112-0.604C113.814,95.429,113.798,95.354,113.782,95.279z"/>
				<path opacity="0.88" fill="#FFFFFF" enable-background="new    " d="M116.127,99.382c0.069,0.025,0.127,0.095,0.195,0.131
					c0.179,0.094,0.476,0.17,0.745,0.111c0.131-0.029,0.269-0.029,0.306-0.148c0.042-0.067-0.015-0.157-0.037-0.195
					c-0.086-0.154-0.201-0.257-0.344-0.353c-0.474-0.324-1.172-0.653-1.981-0.633c-0.04,0.024-0.118,0.006-0.168,0.02
					c-0.067,0.018-0.108,0.052-0.158,0.084c-0.002,0.228,0.339,0.352,0.53,0.399c0.114,0.028,0.213-0.024,0.279-0.046
					c0.051-0.194-0.182-0.221-0.289-0.317h-0.019v-0.009c0.714-0.028,1.248,0.171,1.656,0.476c0.102,0.074,0.219,0.183,0.27,0.307
					c0.02,0.045,0.027,0.119,0,0.159c-0.038,0.102-0.161,0.094-0.279,0.12c-0.273,0.063-0.648-0.092-0.773-0.214
					c-0.025,0.045,0.012,0.111-0.027,0.158c-0.042,0.112-0.186,0.083-0.317,0.112c-0.215,0.046-0.554-0.065-0.679-0.148
					c-0.035-0.025-0.061-0.068-0.093-0.094c-0.002-0.024-0.004-0.032-0.01-0.048c0.019-0.016,0.042-0.043,0.056-0.063
					c0.268-0.021,0.404-0.008,0.559,0.14c-0.004,0.017-0.003,0.016-0.009,0.025c-0.018,0.036-0.058,0.04-0.112,0.038v0.018
					c0.098,0.001,0.139-0.016,0.195-0.046c0.003-0.02,0.007-0.039,0.01-0.057c-0.032-0.033-0.055-0.077-0.093-0.103
					c-0.153-0.102-0.468-0.151-0.642-0.037c-0.028,0.132,0.055,0.204,0.13,0.26c0.152,0.115,0.28,0.181,0.493,0.243
					c0.068,0.019,0.13,0.001,0.206,0.017c0.065,0.017,0.18,0.019,0.25,0c0.119-0.03,0.284-0.154,0.148-0.298L116.127,99.382
					L116.127,99.382z M115.271,98.498c0.033,0.022,0.052,0.069,0.083,0.094c-0.001,0.022-0.001,0.034-0.008,0.046
					c-0.062,0.164-0.402,0.044-0.485-0.019c-0.025-0.019-0.036-0.058-0.056-0.083c0.003-0.02,0.002-0.018,0.009-0.028
					c0.026-0.071,0.098-0.046,0.159-0.082C115.091,98.426,115.197,98.45,115.271,98.498z"/>
				<path opacity="0.88" fill="#FFFFFF" enable-background="new    " d="M118.547,100.341c0.003-0.008,0.005-0.018,0.009-0.026
					c-0.229-0.011-0.46-0.021-0.688-0.027c-0.029,0.018-0.073,0.007-0.112,0.017c-0.047,0.015-0.1,0.036-0.14,0.057
					c0.006,0.016,0.002,0.01,0.01,0.019c0.056,0.044,0.381,0.048,0.446,0h0.018v-0.02c-0.098-0.032-0.278,0.047-0.353,0h-0.009
					v-0.011c0.247-0.016,0.523-0.01,0.782-0.009c-0.024,0.018-0.077,0.012-0.102,0.029c-0.01,0.003-0.018,0.006-0.028,0.009v0.019
					c0.057,0.009,0.112,0.018,0.167,0.028c0.008,0.008,0,0.001,0.009,0.008c-0.082,0.055-0.294,0.033-0.373-0.008v-0.02
					c-0.041-0.019-0.232,0.021-0.269,0.027c-0.031,0.008-0.064-0.004-0.084,0.009c-0.04,0.003-0.043,0.008-0.065,0.019
					c0.004,0.03,0.008,0.027,0.019,0.047c0.06,0.014,0.164,0.016,0.232,0.036v-0.01h0.009v-0.009
					c-0.035-0.013-0.132-0.005-0.168-0.025h-0.019c0.032-0.025,0.335-0.066,0.392-0.028c0.016,0.005,0.009,0.001,0.019,0.008
					c-0.05,0.011-0.1,0.021-0.149,0.029c0.006,0.015,0.002,0.008,0.01,0.017c0.015,0.012,0.045,0.012,0.073,0.009
					c-0.009,0.018-0.012,0.026-0.027,0.038c0.002,0.006,0.006,0.011,0.009,0.019c0.132,0,0.243-0.014,0.354-0.036
					c0.066-0.017,0.147,0.012,0.195-0.021h0.076v-0.018c-0.127-0.001-0.444-0.014-0.521,0.038h-0.028
					c0.008-0.011,0-0.001,0.009-0.01c0.037-0.044,0.111-0.021,0.176-0.036c0.104-0.025,0.275-0.067,0.364,0
					c0.024,0.015,0.009-0.004,0.009,0.025c0.025,0,0.042,0,0.056-0.007h0.065v-0.019c-0.084-0.021-0.21-0.059-0.279-0.103
					C118.599,100.382,118.617,100.348,118.547,100.341z"/>
				<path opacity="0.88" fill="#FFFFFF" enable-background="new    " d="M128.653,93.093c-0.034,0.03-0.083,0.037-0.121,0.064
					c-0.118,0.086-0.241,0.227-0.326,0.345c-0.067,0.095-0.125,0.199-0.186,0.298c-0.026,0.045-0.032,0.096-0.065,0.131v0.018
					c0.081-0.013,0.129-0.066,0.187-0.103c0.155-0.096,0.293-0.185,0.437-0.287c0.069-0.051,0.121-0.131,0.196-0.178
					c0.007-0.111,0.029-0.199-0.019-0.28C128.726,93.096,128.693,93.093,128.653,93.093z M128.542,93.427
					c-0.057,0.042-0.11,0.1-0.168,0.14c-0.049,0.034-0.107,0.054-0.148,0.094h-0.01c0.03-0.097,0.192-0.261,0.27-0.315
					c0.04-0.03,0.09-0.037,0.131-0.065h0.036c0.009,0.009,0.008,0.009,0.019,0.018C128.663,93.367,128.587,93.392,128.542,93.427z"
					/>
				<path opacity="0.88" fill="#FFFFFF" enable-background="new    " d="M123.907,98.592h-0.093
					c-0.062,0.05-0.163,0.057-0.232,0.094c-0.062,0.033-0.137,0.076-0.195,0.12c-0.049,0.036-0.077,0.099-0.122,0.14
					c0.001,0.046,0.002,0.053,0.038,0.064c0.009,0.008,0.003,0.005,0.018,0.01c0.009-0.011,0.019-0.014,0.028-0.028
					c0.008-0.005-0.007-0.025-0.009-0.055c0.09-0.091,0.157-0.14,0.288-0.195c0.035-0.014,0.106-0.055,0.149-0.028h0.019
					c-0.006,0.093-0.215,0.375-0.28,0.42v0.027c0.171-0.045,0.286-0.388,0.401-0.512c-0.004-0.022-0.003-0.026-0.01-0.038V98.592z"
					/>
				<path opacity="0.88" fill="#FFFFFF" enable-background="new    " d="M128.467,89.137c0.021,0.052,0.061,0.137,0.103,0.169
					c0.021,0.014,0.031,0.009,0.047,0.027c0.309,0.025,0.433-0.505,0.308-0.81c-0.023-0.054-0.122-0.209-0.214-0.149h-0.02
					c0.007-0.016,0.003-0.009,0.01-0.019c0-0.044-0.005-0.061-0.018-0.084c-0.019-0.004-0.037-0.006-0.056-0.009
					c-0.009,0.008-0.003,0.004-0.019,0.009c0.007,0.057,0.026,0.058,0.028,0.122C128.485,88.53,128.357,88.859,128.467,89.137z
					 M128.569,88.644c0.021-0.05,0.063-0.082,0.093-0.12c0.02-0.005,0.018-0.002,0.028-0.011c0.071,0,0.09,0.015,0.13,0.037
					c0.071,0.17,0.082,0.461-0.036,0.588c-0.018,0.019-0.054,0.026-0.074,0.046C128.514,89.167,128.499,88.815,128.569,88.644z"/>
				<path opacity="0.88" fill="#FFFFFF" enable-background="new    " d="M129.23,89.082v-0.149
					c-0.023-0.105-0.014-0.248-0.037-0.354c-0.044-0.207-0.005-0.452-0.083-0.624c-0.046-0.011-0.092-0.02-0.158-0.02
					c-0.024,0.024-0.042,0.038-0.037,0.067c0.019,0.083,0.128,0.101,0.158,0.186c0.004,0.041,0.005,0.081,0.009,0.121
					c0.031,0.133,0.025,0.302,0.055,0.438v0.11c0.015,0.067,0.038,0.243,0.019,0.298c-0.033,0.097-0.138,0.184-0.204,0.252
					c-0.177,0.177-0.386,0.402-0.699,0.437c-0.006,0.015-0.002,0.009-0.01,0.019c0.005,0.117,0.112,0.094,0.187,0.14
					c0.019-0.003,0.037-0.006,0.056-0.009c0.029-0.018,0.045-0.058,0.065-0.085c0.047-0.063,0.133-0.094,0.177-0.158h0.009
					c0,0.283,0.007,0.603,0.009,0.876h0.027c0.064-0.277,0.059-0.616,0.057-0.951c0.123-0.114,0.2-0.279,0.326-0.391v-0.017h0.009
					c0.001,0.293,0.009,0.595,0.009,0.892c0,0.095-0.024,0.324,0,0.362v0.057h0.019c0.025-0.099,0.031-0.241,0.056-0.353v-0.159
					c0.027-0.126,0.026-0.367,0-0.492C129.215,89.417,129.261,89.228,129.23,89.082z"/>
				<path opacity="0.88" fill="#FFFFFF" enable-background="new    " d="M123.162,99.281c-0.055,0.05-0.189,0.054-0.25,0.103h-0.009
					c0.024-0.036,0.067-0.05,0.093-0.083c0.018-0.024,0.026-0.053,0.046-0.073c-0.004-0.021-0.002-0.018-0.009-0.028v-0.02
					c-0.271-0.05-0.726,0.187-0.865,0.308c-0.037,0.032-0.059,0.08-0.093,0.113c0.001,0.024,0.003,0.038,0.009,0.054
					c0.165,0.012,0.474-0.089,0.511-0.222c0.008-0.005,0.004-0.001,0-0.009v-0.019c-0.112-0.007-0.264,0.019-0.333,0.082h-0.009
					c0.062-0.092,0.287-0.174,0.408-0.213c0.041-0.013,0.13-0.036,0.169-0.01c0.009,0.004,0.017,0.005,0.027,0.01
					c-0.021,0.094-0.155,0.196-0.242,0.224v0.02c0.143-0.035,0.274-0.099,0.4-0.15c0.087-0.035,0.186-0.045,0.262-0.093
					c0.054-0.036,0.237-0.284,0.25-0.354C123.31,98.952,123.292,99.164,123.162,99.281z M122.427,99.467v0.029
					c-0.018,0.01-0.03,0.035-0.047,0.044c-0.048,0.029-0.112,0.026-0.158,0.059c-0.021-0.004-0.026-0.004-0.036-0.011h-0.01
					C122.201,99.509,122.355,99.472,122.427,99.467z"/>
				<path opacity="0.88" fill="#FFFFFF" enable-background="new    " d="M124.252,92.309c-0.105-0.063-0.119-0.394-0.159-0.539
					c-0.076-0.285-0.114-0.585-0.196-0.875c-0.051-0.186-0.123-0.377-0.101-0.605c0.032-0.033,0.054-0.074,0.093-0.103
					c0.053-0.035,0.137-0.054,0.176-0.102c0.007-0.013-0.004-0.03-0.009-0.056c-0.108,0.017-0.207,0.082-0.298,0.12
					c-0.187,0.079-0.369,0.126-0.558,0.205c-0.06,0.023-0.121,0.065-0.197,0.073v0.057c0.007,0.002,0.013,0.005,0.019,0.009
					c0.01,0.012,0.244-0.091,0.317-0.025c0.083,0.028,0.072,0.136,0.121,0.204c-0.015,0.144-0.159,0.365-0.215,0.492
					c-0.137,0.312-0.275,0.61-0.428,0.902c-0.057,0.112-0.127,0.314-0.205,0.4v0.009c-0.051-0.07-0.047-0.248-0.074-0.345
					c-0.083-0.289-0.137-0.607-0.224-0.893c-0.016-0.054-0.071-0.3-0.036-0.354c0.012-0.129,0.193-0.185,0.297-0.224
					c-0.002-0.021-0.005-0.043-0.008-0.064c-0.166,0.026-0.336,0.112-0.485,0.167c-0.14,0.053-0.268,0.074-0.409,0.122
					c-0.07,0.023-0.149,0.065-0.231,0.074v0.013h-0.01c0.004,0.025,0.005,0.039,0.018,0.054c0.039,0.025,0.243-0.082,0.327-0.017
					c0.13,0.045,0.134,0.251,0.176,0.39c0.113,0.372,0.17,0.782,0.28,1.163c0.027,0.095,0.092,0.396,0.027,0.476
					c-0.035,0.104-0.208,0.145-0.307,0.187c0.004,0.018,0.005,0.037,0.009,0.057c0.143-0.022,0.273-0.089,0.401-0.133
					c0.25-0.083,0.486-0.153,0.726-0.241c-0.004-0.021-0.006-0.045-0.009-0.065c-0.104,0.027-0.183,0.059-0.326,0.056
					c-0.02-0.017-0.037-0.03-0.056-0.046c-0.016-0.049-0.031-0.101-0.046-0.149c0.01-0.118,0.161-0.334,0.214-0.438
					c0.159-0.304,0.297-0.61,0.436-0.929c0.054-0.123,0.177-0.301,0.196-0.438c0.043,0.027,0.031,0.103,0.046,0.159
					c0.032,0.11,0.05,0.231,0.083,0.353c0.067,0.235,0.092,0.488,0.159,0.735c0.024,0.091,0.061,0.246,0.019,0.345
					c-0.042,0.095-0.198,0.158-0.297,0.194c0.004,0.021,0.007,0.043,0.019,0.056c0,0.002,0.213-0.067,0.25-0.083
					c0.26-0.109,0.526-0.225,0.791-0.326c-0.004-0.021-0.005-0.044-0.009-0.063C124.493,92.281,124.343,92.365,124.252,92.309z"/>
				<path opacity="0.88" fill="#FFFFFF" enable-background="new    " d="M119.951,81.915c0.044,0.021,0.044,0.078,0.066,0.121
					c0.043,0.087,0.102,0.192,0.13,0.288v0.074c0.021,0.061,0.093,0.067,0.14,0.103c0.037-0.005,0.051-0.014,0.074-0.026
					c-0.015-0.178-0.123-0.324-0.186-0.466c-0.019-0.045-0.049-0.106-0.056-0.15c-0.005-0.024,0.016-0.038,0-0.063
					c-0.012-0.029-0.016-0.021-0.036-0.039c-0.014-0.008-0.007-0.002,0-0.018c0.016-0.033,0.05-0.066,0.065-0.103
					c0.031-0.073,0.029-0.136,0.093-0.176c-0.009-0.097-0.15-0.107-0.26-0.103c-0.014,0.009-0.037,0.017-0.057,0.018
					c0.012,0.024,0.02,0.03,0.048,0.037c0.025,0.272-0.165,0.523-0.29,0.689c-0.048,0.063-0.13,0.106-0.176,0.177h-0.009v0.009
					C119.619,82.267,119.889,82.01,119.951,81.915z"/>
				<path opacity="0.88" fill="#FFFFFF" enable-background="new    " d="M118.1,82.046c0.047,0.017,0.093,0.031,0.141,0.046
					c0.037,0,0.077,0,0.102-0.009c-0.002-0.153-0.085-0.214-0.14-0.316c-0.026-0.052-0.042-0.122-0.083-0.158
					c0.016-0.057,0.171-0.072,0.232-0.092c0.151-0.052,0.322-0.101,0.475-0.15c0.072-0.023,0.157-0.018,0.214-0.055
					c0.035,0.002,0.051,0.006,0.065,0.027c0.034,0.049,0.062,0.392,0.037,0.494c-0.094,0.391-0.21,0.696-0.456,0.93v0.008
					c0.091-0.014,0.133-0.102,0.195-0.146c0.247-0.187,0.414-0.465,0.502-0.81c0.052-0.203-0.033-0.403,0.046-0.578h-0.008
					c-0.018-0.043-0.255-0.129-0.327-0.129c-0.039,0.04-0.094,0.096-0.149,0.12c-0.084,0.035-0.197,0.024-0.269,0.073
					c-0.067-0.005-0.119-0.134-0.075-0.186c-0.002-0.021-0.001-0.026-0.008-0.037c-0.057-0.045-0.2-0.039-0.298-0.037
					c-0.032,0.03-0.06,0.035-0.074,0.084h-0.01c-0.005,0.019,0.005,0.012,0.01,0.02c0.006,0.003,0.037-0.001,0.055,0.009
					c0.106,0.012,0.103,0.134,0.16,0.195c-0.007,0.017-0.003,0.009-0.01,0.019c-0.036,0.028-0.306,0.106-0.363,0.121
					c-0.043,0.01-0.097-0.016-0.13-0.019c-0.079-0.007-0.149,0.038-0.196,0.064c0.025,0.036,0.102,0.028,0.13,0.065
					C117.966,81.731,118.011,81.902,118.1,82.046z"/>
				<path opacity="0.88" fill="#FFFFFF" enable-background="new    " d="M118.956,85.972c0.187,0.057,0.32,0.269,0.427,0.411
					c0.047,0.062,0.121,0.112,0.168,0.176c0.2,0.266,0.425,0.505,0.624,0.774c0.077,0.104,0.181,0.192,0.25,0.305
					c0.042,0,0.05-0.006,0.075-0.019c0.05-0.217,0.078-0.438,0.14-0.659c0.027-0.103,0.063-0.223,0.073-0.335
					c0.077,0.027,0.139,0.143,0.187,0.204c0.146,0.193,0.351,0.354,0.484,0.558c0.039-0.001,0.043-0.005,0.066-0.018
					c0.042-0.316,0.082-0.632,0.122-0.949v-0.093c0.042-0.188,0.032-0.414,0.074-0.605c0.056-0.255-0.024-0.505,0.233-0.566
					c0.005-0.026,0.013-0.035,0-0.057c-0.006-0.016-0.003-0.009-0.01-0.02c-0.009-0.006-0.009-0.005-0.026-0.008
					c-0.071,0.052-0.266,0.086-0.363,0.11c-0.074,0.019-0.15,0.003-0.205,0.038c-0.009,0.003-0.018,0.006-0.028,0.009
					c0.003,0.019,0.006,0.037,0.01,0.056c0.106,0.035,0.204-0.007,0.251,0.084c0.031,0.061,0.026,0.271,0.009,0.354
					c-0.058,0.273-0.035,0.586-0.093,0.857c-0.021,0.092,0.005,0.275-0.037,0.342v0.02c-0.057-0.025-0.094-0.1-0.131-0.148
					c-0.083-0.109-0.206-0.198-0.289-0.307c-0.05-0.066-0.103-0.146-0.168-0.196c0.008-0.179,0.061-0.366,0.103-0.53
					c0.031-0.123,0.032-0.237,0.093-0.325c0.036-0.052,0.119-0.085,0.177-0.113c0-0.022,0-0.033-0.009-0.045
					c-0.003-0.01-0.006-0.021-0.009-0.028c-0.128,0.019-0.236,0.081-0.354,0.112c-0.106,0.029-0.213,0.021-0.298,0.063
					c0.002,0.023,0.002,0.026,0.009,0.036c0.003,0.011,0.005,0.021,0.009,0.027c0.326-0.017,0.278,0.16,0.214,0.411
					c-0.02,0.076-0.006,0.182-0.046,0.242v0.018h-0.01c-0.067-0.102-0.168-0.199-0.25-0.289c-0.035-0.029-0.069-0.062-0.102-0.092
					c-0.024-0.033-0.038-0.073-0.067-0.104c0.006-0.102,0.09-0.128,0.169-0.156c-0.005-0.043-0.012-0.049-0.028-0.075
					c-0.242,0.037-0.454,0.172-0.726,0.186v0.011h-0.01c0.001,0.022,0.001,0.034,0.009,0.046v0.02
					c0.053,0.009,0.133-0.014,0.196,0.009c0.101,0.035,0.19,0.152,0.251,0.233c0.09,0.119,0.234,0.223,0.324,0.342
					c0.049,0.065,0.103,0.15,0.168,0.196c-0.008,0.164-0.054,0.336-0.093,0.484c-0.02,0.076-0.008,0.173-0.046,0.231
					c-0.005,0.017-0.002,0.011-0.009,0.02c-0.088-0.169-0.261-0.298-0.372-0.446c-0.216-0.287-0.457-0.545-0.68-0.827
					c0-0.041,0.002-0.064,0.018-0.085c0.017-0.054,0.085-0.104,0.149-0.111c0.003-0.029,0.007-0.032-0.009-0.057
					c-0.003-0.009-0.006-0.02-0.009-0.027c-0.189,0.028-0.358,0.117-0.54,0.167c-0.094,0.027-0.218,0.015-0.29,0.065
					c-0.009,0.004-0.019,0.007-0.027,0.01c0.005,0.035,0.014,0.042,0.027,0.064C118.806,85.971,118.883,85.95,118.956,85.972z"/>
				<path opacity="0.88" fill="#FFFFFF" enable-background="new    " d="M127.767,84.987c-0.021,0.322-0.298,0.425-0.594,0.298
					c-0.212-0.092-0.38-0.292-0.513-0.467c-0.043-0.058-0.113-0.106-0.158-0.168c-0.042-0.055-0.072-0.117-0.121-0.166v-0.011
					h-0.019c0.026,0.102,0.084,0.192,0.121,0.279c0.158,0.362,0.357,0.616,0.662,0.829c0.143,0.102,0.381,0.26,0.586,0.111
					c0.359-0.258,0.185-1.221,0.037-1.581c-0.039-0.095-0.069-0.17-0.112-0.25c-0.07-0.137-0.144-0.334-0.344-0.337
					c-0.049,0.043-0.102,0.077-0.131,0.141c-0.182,0.414,0.192,0.881,0.364,1.107C127.606,84.853,127.676,84.94,127.767,84.987z
					 M127.397,83.972h0.046c0.091,0.096,0.176,0.186,0.233,0.315c0.03,0.071,0.035,0.19,0.072,0.252
					c-0.004,0.016,0,0.011-0.008,0.02c-0.024,0.023-0.127-0.099-0.148-0.122C127.488,84.333,127.28,84.151,127.397,83.972z"/>
				<path opacity="0.88" fill="#FFFFFF" enable-background="new    " d="M108.896,84.056c0.146-0.148,0.452-0.521,0.447-0.8
					c-0.015-0.015-0.027-0.038-0.037-0.056c-0.058-0.014-0.132-0.021-0.214-0.021c-0.021,0.077-0.064,0.14-0.093,0.205
					c-0.063,0.145-0.119,0.289-0.177,0.43c-0.048,0.117-0.079,0.305-0.148,0.399v0.019
					C108.772,84.215,108.837,84.117,108.896,84.056z M108.934,83.759c0.055-0.132,0.094-0.264,0.158-0.383
					c0.036,0.002,0.063,0.005,0.084,0.02c0.022,0.013,0.007-0.004,0.018,0.018c0.02,0.047-0.042,0.122-0.064,0.159
					c-0.042,0.07-0.066,0.139-0.112,0.205c-0.042,0.06-0.108,0.106-0.149,0.167h-0.009
					C108.871,83.874,108.909,83.817,108.934,83.759z"/>
				<path opacity="0.88" fill="#FFFFFF" enable-background="new    " d="M108.04,84.241h0.13c0.021-0.026,0.043-0.055,0.065-0.083
					c0.078-0.082,0.18-0.165,0.241-0.261h0.028v0.13c-0.071,0.065-0.182,0.164-0.214,0.261v0.075
					c-0.047,0.208,0.053,0.313,0.233,0.298c0.117-0.109,0.312-0.2,0.289-0.42c-0.011-0.006-0.002,0.003-0.01-0.008
					c-0.019,0.004-0.017,0.003-0.027,0.008c-0.068,0.036-0.182,0.337-0.316,0.253c-0.068,0-0.075-0.013-0.112-0.037
					c0.005-0.088,0.156-0.251,0.215-0.288c0.007-0.143,0.044-0.296,0.027-0.429c-0.009-0.004-0.019-0.007-0.027-0.01
					c-0.033-0.01-0.059,0.04-0.084,0.066c-0.067,0.067-0.152,0.14-0.205,0.223c-0.079-0.001-0.333-0.004-0.381,0.028h-0.028
					c0.023-0.061,0.203-0.258,0.149-0.345c-0.003-0.011-0.006-0.019-0.01-0.027c-0.169,0-0.374,0.303-0.428,0.426
					c-0.026,0.064-0.026,0.136-0.065,0.187v0.01c0.127-0.014,0.255-0.029,0.382-0.046C107.939,84.24,108.005,84.263,108.04,84.241z
					 M107.724,84.066h-0.057c0.026-0.102,0.126-0.221,0.251-0.224v0.046c-0.043,0.057-0.086,0.111-0.13,0.168
					C107.762,84.056,107.738,84.056,107.724,84.066z"/>
				<path opacity="0.88" fill="#FFFFFF" enable-background="new    " d="M112.59,90.321v0.009c0.015,0.02,0.014,0.062,0.028,0.083
					c-0.006,0.016-0.002,0.008-0.01,0.019c-0.039,0.026-0.095,0.015-0.149,0.028c-0.11,0.026-0.467,0.112-0.548,0.035
					c-0.052-0.017-0.087-0.084-0.093-0.148c-0.024,0.001-0.035,0.001-0.046,0.011h-0.02c0.035,0.179,0.069,0.358,0.103,0.538h0.009
					v0.011c0.327-0.057,0.652-0.113,0.978-0.167c-0.047-0.172-0.093-0.344-0.14-0.515c-0.026-0.039-0.11-0.033-0.158-0.054
					c-0.082-0.034-0.183-0.109-0.232-0.177c-0.15-0.207-0.314-0.694-0.205-1.061c0.089-0.299,0.283-0.501,0.596-0.579
					c0.158-0.037,0.328,0.015,0.428,0.067c0.284,0.145,0.405,0.354,0.493,0.697c0.113,0.443-0.031,0.852-0.326,0.985
					c0.018,0.181,0.038,0.36,0.056,0.541c0.104-0.004,0.2-0.024,0.289-0.046c0.148-0.037,0.299-0.043,0.437-0.076
					c0.102-0.024,0.248-0.004,0.326-0.055c0.018-0.04-0.059-0.318-0.074-0.383c-0.014-0.054-0.002-0.108-0.027-0.148v-0.02
					c-0.021,0.004-0.044,0.007-0.065,0.011c0.004,0.281-0.196,0.242-0.418,0.297c-0.112,0.029-0.247,0.064-0.373,0.066
					c0-0.04,0-0.081,0-0.121c0.011-0.021,0.174-0.091,0.204-0.112c0.109-0.075,0.219-0.194,0.29-0.307
					c0.047-0.077,0.086-0.179,0.111-0.271c0.032-0.113,0.036-0.274,0.01-0.391c-0.019-0.078-0.012-0.142-0.037-0.213
					c-0.102-0.279-0.312-0.482-0.577-0.597c-0.121-0.05-0.257-0.053-0.4-0.083c-0.127-0.028-0.354,0.028-0.446,0.058
					c-0.448,0.131-0.753,0.347-0.894,0.781c-0.056,0.17-0.039,0.407,0.01,0.566C111.826,89.97,112.132,90.313,112.59,90.321z"/>
				<path opacity="0.88" fill="#FFFFFF" enable-background="new    " d="M113.921,95.325c-0.019,0.08,0.18,0.26,0.243,0.309
					c0.031,0.021,0.072,0.076,0.121,0.056c0.025-0.003,0.032-0.006,0.046-0.011c0.011-0.024,0.028-0.056,0.01-0.083
					C114.336,95.479,114.032,95.348,113.921,95.325z"/>
				<path opacity="0.88" fill="#FFFFFF" enable-background="new    " d="M116.081,95.772c0.01-0.004,0.019-0.006,0.027-0.01
					c-0.004-0.121-0.237-0.173-0.363-0.139c-0.057,0.016-0.121,0.051-0.176,0.066c-0.044,0.003-0.087,0.006-0.131,0.009
					c-0.014-0.151-0.089-0.27-0.092-0.429c0.138-0.003,0.314-0.021,0.408-0.073c-0.002-0.047-0.01-0.047-0.027-0.074
					c-0.106-0.024-0.29-0.029-0.373,0.027c-0.024-0.002-0.035-0.002-0.046-0.01c-0.052-0.065-0.027-0.199-0.075-0.271v-0.036
					c0.101-0.021,0.265-0.038,0.316-0.112c0.008-0.008,0.003-0.003,0.009-0.017c-0.008-0.009-0.012-0.016-0.018-0.029
					c-0.146-0.036-0.209-0.012-0.335,0.038c-0.039-0.127,0.008-0.226-0.121-0.262c0.028-0.047,0.119-0.046,0.177-0.064
					c0.089-0.03,0.191-0.069,0.269-0.111c0.006-0.017,0.002-0.01,0.01-0.018c-0.005-0.049-0.019-0.047-0.037-0.076
					c-0.135-0.01-0.242,0.003-0.317,0.076h-0.017c0.011-0.069,0.054-0.171,0.093-0.225c0.026-0.038,0.074-0.032,0.093-0.083h0.01
					v-0.011c-0.019-0.024-0.038-0.05-0.057-0.073c-0.043-0.032-0.107-0.034-0.148-0.066c-0.062-0.001-0.121-0.001-0.159,0.018
					c0.005,0.036,0.021,0.06,0.028,0.085c0.026,0.095-0.066,0.393-0.103,0.438c-0.028,0.035-0.365,0.157-0.456,0.131
					c-0.021-0.008-0.085-0.04-0.103-0.058c-0.007-0.009-0.003-0.002-0.009-0.019c0.132-0.123,0.227-0.399,0.41-0.455
					c0.003-0.016,0.006-0.031,0.009-0.046c-0.045-0.048-0.267-0.279-0.381-0.205c-0.01,0.004-0.019,0.005-0.027,0.01
					c0,0.077,0.04,0.138,0.018,0.222c-0.042,0.168-0.137,0.366-0.223,0.504c-0.051,0.081-0.163,0.17-0.167,0.289
					c0.151-0.016,0.188-0.172,0.306-0.216c0.035,0.032,0.069,0.064,0.102,0.094c0.049,0.074,0.04,0.184,0.066,0.28
					c0.043,0.2,0.087,0.402,0.13,0.604c0.006,0.102,0.012,0.199,0.019,0.299c0.024,0.09,0.098,0.246,0.196,0.269
					c0.015,0.008,0.027,0.005,0.046-0.01c0.032-0.027,0.014-0.074,0.037-0.112c0.052-0.036,0.145-0.027,0.214-0.046
					c0.19-0.051,0.412-0.047,0.624-0.094C115.837,95.758,116.002,95.818,116.081,95.772z M114.573,94.563
					c0.015-0.026,0.262-0.063,0.289-0.046c0.099,0.046,0.064,0.19,0.121,0.279c-0.019,0.047-0.246,0.116-0.316,0.121
					C114.654,94.819,114.637,94.616,114.573,94.563z M114.694,95.02c0.071-0.008,0.255-0.068,0.307-0.104h0.01
					c0.017,0.084,0.027,0.23,0.074,0.298c-0.033,0.082-0.239,0.075-0.317,0.121C114.736,95.316,114.692,95.082,114.694,95.02z
					 M114.861,95.801c-0.02-0.134-0.083-0.249-0.083-0.392c0.143-0.002,0.216-0.061,0.334-0.074c0.008,0.086,0.061,0.331,0.103,0.39
					c0.001,0.007,0.001,0.015,0.001,0.02C115.103,95.769,114.986,95.801,114.861,95.801z"/>
				<path opacity="0.88" fill="#FFFFFF" enable-background="new    " d="M107.239,88.958c0.019,0.007,0.034,0.009,0.047,0.02
					c0.183-0.013,0.221-0.16,0.316-0.262c0.08,0.193,0.02,0.531-0.158,0.577c-0.076,0.053-0.188-0.015-0.232-0.055
					c-0.153-0.142-0.186-0.355-0.241-0.596c-0.02-0.081,0.007-0.246-0.028-0.308c0.001-0.095,0.022-0.267-0.028-0.315v-0.011
					l-0.019,0.002c-0.003,0.58-0.033,1.474,0.419,1.601c0.164,0.045,0.256-0.064,0.307-0.14c0.185-0.276,0.133-0.812-0.047-1.042
					c-0.08,0.007-0.194,0.197-0.231,0.259c-0.02-0.002-0.018-0.002-0.028-0.009c-0.022-0.01-0.021-0.016-0.037-0.028
					c-0.014-0.219,0.03-0.423,0.037-0.632c0.246,0.024,0.456,0.164,0.708,0.177c-0.001-0.044,0-0.103,0.018-0.13
					c-0.002-0.021-0.002-0.026-0.009-0.038c-0.035-0.026-0.224-0.071-0.28-0.074v-0.009h-0.009c0.035-0.277-0.044-0.49-0.233-0.567
					c-0.105-0.02-0.211-0.038-0.316-0.057c-0.054-0.021-0.081-0.063-0.121-0.094c-0.013-0.089-0.031-0.188,0.038-0.242
					c-0.005-0.033-0.008-0.038-0.028-0.056v-0.01h-0.01c-0.031,0.054-0.057,0.117-0.074,0.188c-0.055,0.232,0.073,0.428,0.214,0.476
					c0.093,0.015,0.186,0.03,0.279,0.046c0.074,0.028,0.106,0.09,0.158,0.14c-0.002,0.12-0.118,0.135-0.214,0.103
					c-0.15-0.049-0.311-0.083-0.465-0.14c-0.04-0.014-0.078-0.039-0.131-0.046c-0.006,0.058-0.013,0.118-0.019,0.176
					c0.13,0.04,0.261,0.081,0.392,0.122C107.206,88.312,107.076,88.705,107.239,88.958z"/>
				<path opacity="0.88" fill="#FFFFFF" enable-background="new    " d="M108.402,94.098c0.056,0.029,0.068,0.16,0.093,0.223
					c0.05,0.133,0.123,0.303,0.242,0.363v0.01h0.02c-0.016-0.104-0.075-0.2-0.112-0.289c-0.082-0.2-0.147-0.412-0.215-0.614
					c-0.039-0.118-0.065-0.234-0.101-0.345c-0.02-0.058-0.016-0.124-0.047-0.169V93.25c0.063,0.023,0.159,0.022,0.214,0.057h0.047
					c-0.01-0.047-0.021-0.129-0.047-0.167c-0.028-0.046-0.209-0.046-0.26-0.084c-0.074-0.058-0.144-0.222-0.196-0.307
					c-0.131-0.209-0.306-0.431-0.502-0.577c-0.104-0.077-0.177-0.159-0.364-0.159c-0.021,0.016-0.043,0.032-0.064,0.046
					c-0.042,0.187,0.033,0.529,0.138,0.613v0.02c-0.044-0.012-0.092-0.036-0.12-0.064h-0.01c0.001,0.053,0.012,0.122,0.037,0.158
					c0.011,0.046,0.086,0.083,0.131,0.092c0.058,0.245,0.139,0.496,0.223,0.719c0.068,0.178,0.103,0.349,0.176,0.521
					c0.037,0.085,0.124,0.145,0.149,0.232h0.027c-0.021-0.079-0.064-0.152-0.093-0.224c-0.085-0.205-0.154-0.423-0.224-0.631
					c-0.045-0.139-0.077-0.271-0.12-0.401c-0.017-0.05-0.012-0.101-0.037-0.139v-0.011c0.063,0.012,0.101,0.045,0.148,0.064
					c0.108,0.048,0.212,0.067,0.326,0.113c0.083,0.034,0.188,0.082,0.289,0.094c0.011,0.083,0.06,0.305,0.103,0.362v0.028
					c-0.141-0.097-0.139-0.237-0.392-0.215c-0.012,0.016-0.03,0.026-0.046,0.037c-0.023,0.058-0.024,0.152,0,0.214
					c0.061,0.152,0.252,0.468,0.409,0.513C108.287,94.197,108.375,94.144,108.402,94.098z M108.161,93.036
					c-0.099-0.007-0.182-0.046-0.261-0.074c-0.209-0.078-0.4-0.145-0.585-0.233c-0.023-0.083-0.18-0.386-0.094-0.492
					c0.006-0.011,0.013-0.019,0.019-0.028c0.019-0.005,0.018-0.001,0.028-0.009c0.287,0.034,0.575,0.383,0.717,0.577
					c0.055,0.075,0.101,0.188,0.176,0.241V93.036L108.161,93.036z M107.92,93.735c0-0.091,0.035-0.091,0.073-0.14
					c0.021-0.002,0.026-0.002,0.038-0.009c0.144,0.001,0.177,0.066,0.26,0.12c0.014,0.055,0.022,0.08,0.019,0.139
					c-0.027,0.034-0.056,0.069-0.084,0.104c-0.024,0.02-0.052,0.024-0.074,0.047C107.992,93.992,107.986,93.833,107.92,93.735z"/>
				<path opacity="0.88" fill="#FFFFFF" enable-background="new    " d="M124.391,81.563c0.108,0.144,0.229,0.294,0.427,0.344
					c0.225,0.057,0.335-0.208,0.419-0.307c0.087-0.103,0.278-0.128,0.344-0.261c0.025-0.05,0.008-0.146-0.008-0.188
					c-0.043-0.1-0.251-0.38-0.336-0.437c0.006-0.057,0.032-0.058,0.056-0.093c0.059,0.027,0.079,0.112,0.122,0.158
					c0.053,0.062,0.128,0.094,0.186,0.148c0.089,0,0.142-0.022,0.186-0.065h0.01c-0.022-0.063-0.104-0.105-0.148-0.148
					c-0.097-0.098-0.172-0.221-0.27-0.315v-0.011c-0.048,0.019-0.212,0.162-0.242,0.207c-0.058-0.023-0.091-0.087-0.14-0.122
					c-0.159-0.119-0.309-0.274-0.585-0.271c-0.035,0.028-0.087,0.029-0.131,0.046c-0.125,0.056-0.254,0.163-0.307,0.29
					c-0.059,0.141,0.002,0.351,0.047,0.455C124.11,81.207,124.261,81.388,124.391,81.563z M124.344,80.269
					c0.158,0.001,0.234,0.107,0.326,0.177c0.227,0.172,0.417,0.382,0.586,0.614c0.076,0.103,0.177,0.16,0.177,0.344
					c-0.029,0.027-0.037,0.054-0.085,0.065c-0.008,0.007-0.002,0.004-0.018,0.009c-0.132-0.218-0.321-0.401-0.475-0.604
					c-0.05-0.067-0.127-0.121-0.177-0.187c-0.085-0.112-0.187-0.203-0.279-0.308c-0.026-0.031-0.04-0.061-0.074-0.083
					C124.334,80.277,124.333,80.283,124.344,80.269z M124.111,80.4h0.037c0.045,0.069,0.126,0.118,0.177,0.186
					c0.139,0.185,0.31,0.347,0.446,0.53c0.085,0.114,0.179,0.221,0.26,0.334c0.042,0.06,0.075,0.133,0.132,0.178
					c-0.01,0.042-0.028,0.063-0.046,0.094c-0.166,0.039-0.247-0.069-0.334-0.158c-0.221-0.221-0.37-0.494-0.54-0.763
					C124.184,80.706,124.034,80.534,124.111,80.4z"/>
			</g>
		</g>
		<g>
		</g>
		<g>
		</g>
		<g>
		</g>
		<g>
		</g>
		<g>
		</g>
		<g>
		</g>
		<g>
		</g>
		<g>
		</g>
		<g>
		</g>
		<g>
		</g>
		<g>
		</g>
		<g>
		</g>
		<g>
		</g>
		<g>
		</g>
		<g>
		</g>
	</g>
</g>
</svg>
